<svg height='100px' width='100px' xmlns="http://www.w3.org/2000/svg" viewBox="0 0 41.99997 48" x="0px" y="0px"><g data-name="Layer 2"><g><path d="M5,21H6V18a5,5,0,0,0-5-5H0v3A5,5,0,0,0,5,21Z"></path><path d="M5,30H6V27a5,5,0,0,0-5-5H0v3A5,5,0,0,0,5,30Z"></path><path d="M6,36a5,5,0,0,0-5-5H0v3a5,5,0,0,0,5,5H6Z"></path><path d="M9,18v3h1a5,5,0,0,0,5-5V13H14A5,5,0,0,0,9,18Z"></path><path d="M9,27v3h1a5,5,0,0,0,5-5V22H14A5,5,0,0,0,9,27Z"></path><path d="M9,36v3h1a5,5,0,0,0,5-5V31H14A5,5,0,0,0,9,36Z"></path><path d="M6,46.5a1.5,1.5,0,0,0,3,0V41H6Z"></path><path d="M1.5,11A1.5,1.5,0,0,0,3,9.5v-4a1.5,1.5,0,0,0-3,0v4A1.5,1.5,0,0,0,1.5,11Z"></path><path d="M13.5,4A1.5,1.5,0,0,0,12,5.5v4a1.5,1.5,0,0,0,3,0v-4A1.5,1.5,0,0,0,13.5,4Z"></path><path d="M7.5,14A1.5,1.5,0,0,0,9,12.5V1.5a1.5,1.5,0,0,0-3,0v11A1.5,1.5,0,0,0,7.5,14Z"></path><path d="M28.27759,21.22144l.96588.25878.77649-2.8977a5.00012,5.00012,0,0,0-3.53552-6.12378L25.51849,12.2,24.742,15.09778A4.99992,4.99992,0,0,0,28.27759,21.22144Z"></path><path d="M25.94818,29.91479l.96594.25879.77643-2.8977A5,5,0,0,0,24.155,21.1521l-.96594-.25879L22.41266,23.791A5,5,0,0,0,25.94818,29.91479Z"></path><path d="M24.58472,38.86694l.77649-2.8977a5,5,0,0,0-3.53553-6.12378l-.96594-.25879-.77643,2.89771a5,5,0,0,0,3.53553,6.12377Z"></path><path d="M32.91772,19.35889l-.77642,2.898.96588.25878A5.00009,5.00009,0,0,0,39.2309,18.98l.77649-2.8977-.96595-.25879A4.99987,4.99987,0,0,0,32.91772,19.35889Z"></path><path d="M30.58838,28.05225l-.77649,2.89782.96594.25891a5.00014,5.00014,0,0,0,6.12372-3.53564l.77643-2.89771-.96588-.25878A4.99984,4.99984,0,0,0,30.58838,28.05225Z"></path><path d="M28.259,36.74561l-.77643,2.89782.96589.25879a4.99991,4.99991,0,0,0,6.12371-3.53552l.77649-2.89771-.96594-.25891A5.00007,5.00007,0,0,0,28.259,36.74561Z"></path><path d="M22.64362,46.11133a1.5,1.5,0,0,0,2.89776.77661L26.9649,41.5752l-2.89782-.77637Z"></path><path d="M27.485,10.65637A1.5,1.5,0,0,0,29.32214,9.5957l1.03528-3.86377a1.5,1.5,0,1,0-2.89776-.77636L26.42438,8.81921A1.50007,1.50007,0,0,0,27.485,10.65637Z"></path><path d="M40.88788,7.00073a1.5,1.5,0,0,0-1.83716,1.06055l-1.03528,3.86377a1.5,1.5,0,0,0,2.89783.77649l1.03522-3.86365A1.5,1.5,0,0,0,40.88788,7.00073Z"></path><path d="M32.50409,15.10706a1.5,1.5,0,0,0,1.83716-1.06067l2.847-10.62525a1.5,1.5,0,1,0-2.89776-.77636l-2.847,10.62512A1.50011,1.50011,0,0,0,32.50409,15.10706Z"></path></g></g></svg>