<svg width="32" height="20" viewBox="0 0 32 20" xmlns="http://www.w3.org/2000/svg">
<path d="M31.68 17.407L30.077 19.01C29.863 19.224 29.617 19.331 29.339 19.331C29.061 19.331 28.816 19.224 28.602 19.01L16 6.40901L3.39902 19.01C3.18502 19.224 2.93902 19.331 2.66102 19.331C2.38302 19.331 2.13702 19.224 1.92302 19.01L0.320023 17.407C0.106023 17.193 -0.000976562 16.947 -0.000976562 16.669C-0.000976562 16.391 0.106023 16.145 0.320023 15.932L15.262 0.990005C15.476 0.776005 15.722 0.669006 16 0.669006C16.278 0.669006 16.523 0.776005 16.737 0.990005L31.68 15.932C31.894 16.146 32 16.392 32 16.669C32 16.946 31.894 17.193 31.68 17.407Z"/>
</svg>
