<svg width="32" height="24" viewBox="0 0 32 24" xmlns="http://www.w3.org/2000/svg">
<path d="M31.5642 10.9479L22.0415 1.42519C21.4605 0.84419 20.5183 0.84419 19.9373 1.42519C19.3561 2.00631 19.3561 2.94834 19.9373 3.52947L26.9199 10.5121H1.48792C0.66623 10.5121 0 11.1783 0 12C0 12.8216 0.66623 13.4879 1.48792 13.4879H26.9199L19.9375 20.4705C19.3564 21.0517 19.3564 21.9937 19.9375 22.5748C20.2279 22.8651 20.6089 23.0106 20.9896 23.0106C21.3704 23.0106 21.7512 22.8651 22.0418 22.5748L31.5642 13.0521C32.1453 12.471 32.1453 11.529 31.5642 10.9479Z"/>
</svg>
