<svg width="158" height="148" viewBox="0 0 158 148" xmlns="http://www.w3.org/2000/svg">
    <path fill-rule="evenodd" clip-rule="evenodd"
        d="M60.486 1.389C45.627 4.23 33.005 11.009 22.015 22.052C13.153 30.957 6.69303 41.705 3.18403 53.382C0.058027 63.788 -0.317973 81.884 2.38203 92C8.02503 113.145 22.906 131.137 42.5 140.507C53.452 145.744 60.91 147.374 74 147.39C87.918 147.408 94.903 145.764 107.771 139.445C123.098 131.918 135.853 117.818 142.751 100.779C147.453 89.163 146.594 82 140.5 82C137.488 82 135.694 84.459 133.569 91.5C127.7 110.953 112.908 126.344 93.683 133.003C85.03 136 69.722 136.736 60.624 134.591C42.582 130.338 26.64 117.494 18.597 100.73C16.161 95.653 13.681 89.115 13.084 86.201C10.426 73.208 12.87 56.686 19.225 44.693C23.326 36.954 34.053 25.56 41.414 21.123C44.496 19.265 50.051 16.589 53.758 15.175C59.793 12.875 61.917 12.605 74 12.605C86.083 12.605 88.207 12.875 94.242 15.175C104.392 19.045 111.472 23.745 118.845 31.507C124.342 37.294 132 48.884 132 51.416C132 51.765 130.646 51.351 128.991 50.495C125.576 48.729 122.807 49.623 120.952 53.09C119.275 56.223 121.867 59.257 131.568 65.516C140.379 71.199 142.524 71.866 145.197 69.75C147.278 68.103 158 50.981 158 49.304C158 47.297 154.241 44 151.952 44C149.837 44 145.003 48.445 144.997 50.396C144.995 51.003 143.001 47.45 140.567 42.5C135.348 31.889 128.737 23.401 120.476 16.704C113.577 11.112 101.163 4.801 92.5 2.484C84.223 0.269002 69.054 -0.249997 60.486 1.389ZM64.459 31.395C56.164 33.41 49.846 37.034 43.456 43.44C18.194 68.768 31.706 110.553 67.278 117.107C80.813 119.601 95.27 114.64 105.392 104.027C121.856 86.767 121.918 61.298 105.54 44.127C99.002 37.272 92.721 33.617 83.913 31.541C76.351 29.759 71.348 29.721 64.459 31.395ZM77.365 51.073C79.789 52.979 80 53.74 80 60.573V68L86.75 68.015C94.175 68.032 95.114 68.387 96.952 71.875C98.021 73.903 97.918 74.633 96.247 76.875C94.37 79.392 93.842 79.511 83.378 79.781C68.398 80.166 68.592 80.346 68.165 65.622C67.839 54.386 67.897 54.012 70.369 51.54C73.444 48.465 74.003 48.428 77.365 51.073Z"
    />
</svg>