<svg width="146" height="190" viewBox="0 0 146 190" xmlns="http://www.w3.org/2000/svg">
    <path
        d="M107.335 1.41315L105.922 2.82631V94.753C105.922 156.877 106.083 186.981 106.42 187.609C107.63 189.87 108.698 190 126.145 190C141.959 190 142.594 189.964 143.811 189.007C144.506 188.461 145.306 187.21 145.591 186.227C145.952 184.979 146.065 157.064 145.965 93.6308L145.823 2.82148L144.243 1.41074L142.663 0H125.706H108.749L107.335 1.41315ZM55.5056 49.078C54.8368 49.7466 54.1538 50.9703 53.9884 51.7975C53.823 52.6247 53.6876 82.9778 53.6876 119.249C53.6876 190.336 53.5841 187.406 56.1624 189.211C57.1496 189.903 59.3066 190 73.6565 190C90.6731 190 91.3198 189.929 92.9733 187.889C93.7559 186.923 93.8096 182.552 93.8197 118.773L93.8304 50.6889L92.4167 49.2758L91.003 47.8626H73.862H56.7215L55.5056 49.078ZM3.0874 95.9365C-0.207689 97.3699 0.00269771 94.1941 0.00269771 142.511C0.00269771 189.939 -0.0969336 188.172 2.64922 189.422C3.55267 189.834 8.63533 190 20.3309 190H36.7445L38.324 188.589L39.9036 187.179L40.0323 143.377C40.175 94.7312 40.3418 97.3308 36.9853 95.9287C34.6474 94.9521 5.33443 94.9589 3.0874 95.9365Z"
    />
</svg>