<svg width="89" height="88" viewBox="0 0 89 88" xmlns="http://www.w3.org/2000/svg">
    <path
        d="M20.1697 0.441068C19.6002 0.726927 19.1061 1.14984 18.7858 1.62557L18.2877 2.36522L18.2333 9.82317C18.1964 14.9135 18.2403 17.491 18.372 17.9421C18.5972 18.7146 19.4328 19.7326 20.1473 20.1048C20.423 20.2485 21.1501 20.4133 21.7629 20.471C23.8135 20.6639 25.3133 19.9948 26.0833 18.5432C26.4659 17.8219 26.4746 17.6712 26.5264 10.8173C26.5849 3.0775 26.5211 2.38382 25.6531 1.32286C24.874 0.370701 23.9663 0.00482237 22.3712 8.43838e-05C21.3072 -0.00307428 20.8863 0.0813322 20.1697 0.441068ZM65.3131 0.234001C64.6168 0.553727 63.848 1.34743 63.5035 2.102C63.2642 2.62598 63.2153 3.71397 63.1701 9.51292C63.1033 18.0941 63.152 18.4045 64.7744 19.7277C65.3734 20.2162 65.566 20.2699 66.925 20.3273C68.6336 20.3996 69.5033 20.1913 70.2938 19.5211C71.4825 18.5133 71.4881 18.4703 71.4923 10.1675C71.4961 2.76865 71.4926 2.696 71.1042 1.93003C70.8886 1.50501 70.4114 0.915745 70.0435 0.620586C69.4085 0.110988 69.2857 0.0816831 67.6052 0.0390412C66.394 0.00833202 65.6707 0.0697504 65.3131 0.234001ZM4.08442 7.42995C2.52858 7.85269 1.09256 9.10966 0.372198 10.6792L0 11.4902V47.6393V83.7885L0.46172 84.7808C1.00687 85.9521 2.05153 87.0301 3.1885 87.5943L4.00587 88H44.5H84.9941L85.8115 87.5943C86.9485 87.0301 87.9931 85.9521 88.5383 84.7808L89 83.7885V47.6393V11.4902L88.5176 10.5002C87.9545 9.34516 86.7877 8.19488 85.6344 7.6579C84.8663 7.30027 84.5199 7.27553 79.5514 7.22324L74.2828 7.16779V13.0267C74.2828 17.8653 74.2356 19.025 74.0121 19.6861C73.3712 21.5811 71.5151 22.8381 68.8479 23.1836C65.1003 23.669 62.3437 22.3702 60.9755 19.4746L60.4364 18.334L60.38 12.7625L60.3234 7.19095H44.8354H29.3474L29.3446 12.3238C29.3416 17.8862 29.2315 18.8322 28.426 20.2171C27.8222 21.2552 26.7319 22.2218 25.5366 22.7786C24.2434 23.381 21.5601 23.5279 20.0313 23.0801C18.2196 22.5494 16.8064 21.3551 15.9728 19.6501L15.501 18.685L15.4506 12.938L15.4003 7.19095L10.1385 7.20271C6.56318 7.21078 4.62278 7.2836 4.08442 7.42995ZM83.3395 56.2379V82.4723H44.5H5.66047V56.2379V30.0035H44.5H83.3395V56.2379ZM46.8804 37.3153C46.8164 37.3795 46.7642 39.6142 46.7642 42.2814C46.7642 45.8189 46.8208 47.1875 46.9732 47.341C47.2721 47.6422 57.9256 47.6422 58.2245 47.341C58.5225 47.0408 58.5225 37.709 58.2245 37.4088C58.0707 37.2538 56.5589 37.1982 52.506 37.1982C49.4756 37.1982 46.9441 37.2509 46.8804 37.3153ZM63.6005 37.3153C63.5366 37.3795 63.4843 39.6142 63.4843 42.2814C63.4843 45.8189 63.541 47.1875 63.6934 47.341C63.9922 47.6422 74.6457 47.6422 74.9446 47.341C75.2426 47.0408 75.2426 37.709 74.9446 37.4088C74.7908 37.2538 73.2791 37.1982 69.2262 37.1982C66.1958 37.1982 63.6643 37.2509 63.6005 37.3153ZM13.5165 52.0039C13.3763 52.1743 13.3319 53.674 13.3646 57.1367L13.411 62.0288L18.9634 62.0751C22.9157 62.1081 24.5849 62.0641 24.7545 61.9221C25.0797 61.6501 25.1076 52.2996 24.7842 51.9737C24.4593 51.6465 13.7875 51.6751 13.5165 52.0039ZM30.2367 52.0039C30.0965 52.1743 30.052 53.674 30.0848 57.1367L30.1311 62.0288L35.6836 62.0751C39.6358 62.1081 41.3051 62.0641 41.4747 61.9221C41.7999 61.6501 41.8277 52.2996 41.5043 51.9737C41.1795 51.6465 30.5077 51.6751 30.2367 52.0039ZM46.9568 52.0039C46.8166 52.1743 46.7722 53.674 46.8049 57.1367L46.8513 62.0288L52.4038 62.0751C56.356 62.1081 58.0252 62.0641 58.1949 61.9221C58.52 61.6501 58.5479 52.2996 58.2245 51.9737C57.8996 51.6465 47.2278 51.6751 46.9568 52.0039ZM63.677 52.0039C63.5368 52.1743 63.4924 53.674 63.5251 57.1367L63.5714 62.0288L69.1239 62.0751C73.0761 62.1081 74.7454 62.0641 74.915 61.9221C75.2402 61.6501 75.268 52.2996 74.9446 51.9737C74.6198 51.6465 63.948 51.6751 63.677 52.0039ZM13.6287 66.5176C13.35 66.6812 13.3239 67.1135 13.3239 71.5662C13.3239 75.1197 13.3803 76.4927 13.5329 76.6464C13.6863 76.801 15.1634 76.857 19.0939 76.857C23.7269 76.857 24.4825 76.8199 24.7195 76.5813C24.9547 76.3442 24.9932 75.6428 24.9932 71.5899C24.9932 66.9159 24.9897 66.8721 24.606 66.6013C24.2764 66.3686 23.4549 66.329 19.0761 66.3333C15.9084 66.3367 13.8164 66.4074 13.6287 66.5176ZM30.3488 66.5176C30.0702 66.6812 30.044 67.1135 30.044 71.5662C30.044 75.1197 30.1005 76.4927 30.253 76.6464C30.4065 76.801 31.8836 76.857 35.8141 76.857C40.4471 76.857 41.2026 76.8199 41.4397 76.5813C41.6748 76.3442 41.7133 75.6428 41.7133 71.5899C41.7133 66.9159 41.7098 66.8721 41.3261 66.6013C40.9966 66.3686 40.1751 66.329 35.7963 66.3333C32.6285 66.3367 30.5366 66.4074 30.3488 66.5176ZM47.069 66.5176C46.7901 66.6812 46.7642 67.1149 46.7642 71.5952C46.7642 76.2586 46.7804 76.5023 47.101 76.6753C47.3118 76.7889 49.394 76.857 52.6621 76.857C57.1789 76.857 57.9232 76.8196 58.1598 76.5813C58.395 76.3442 58.4335 75.6428 58.4335 71.5899C58.4335 66.9159 58.43 66.8721 58.0463 66.6013C57.7168 66.3686 56.8952 66.329 52.5164 66.3333C49.3487 66.3367 47.2567 66.4074 47.069 66.5176ZM63.7891 66.5176C63.5103 66.6812 63.4843 67.1149 63.4843 71.5952C63.4843 76.2586 63.5005 76.5023 63.8212 76.6753C64.0319 76.7889 66.1141 76.857 69.3822 76.857C73.8991 76.857 74.6433 76.8196 74.88 76.5813C75.1151 76.3442 75.1536 75.6428 75.1536 71.5899C75.1536 66.9159 75.1501 66.8721 74.7664 66.6013C74.4369 66.3686 73.6154 66.329 69.2366 66.3333C66.0688 66.3367 63.9769 66.4074 63.7891 66.5176Z"
    />
</svg>