<svg height="512pt" viewBox="0 0 512 512" width="512pt" xmlns="http://www.w3.org/2000/svg">
    <path d="m373 149.808594c0-11.046875-8.953125-20-20-20h-.425781c-20.578125 0-40.386719 3.363281-58.910157 9.5625v-74.183594c0-11.046875-8.953124-20-20-20-11.046874 0-20 8.953125-20 20v93.15625c-18.035156 11.363281-33.992187 25.730469-47.164062 42.402344v-180.746094c0-11.046875-8.953125-20-20-20s-20 8.953125-20 20v180.953125c-13.167969-16.679687-29.128906-31.0625-47.164062-42.445313v-93.320312c0-11.046875-8.953126-20-20-20-11.046876 0-20 8.953125-20 20v74.289062c-18.648438-6.265624-38.601563-9.671874-59.335938-9.671874-11.046875 0-20 8.957031-20 20 0 37.691406 11.269531 72.796874 30.605469 102.152343-3.371094-.183593-6.765625-.28125-10.179688-.28125h-.425781c-11.046875 0-20 8.953125-20 20v.25c0 95.988281 73.066406 175.230469 166.5 185.046875v35.027344c0 11.046875 8.953125 20 20 20s20-8.953125 20-20v-35.027344c93.4375-9.816406 166.5-89.058594 166.5-185.046875v-.25c0-11.046875-8.953125-20-20-20h-.425781c-3.363281 0-6.707031.09375-10.03125.269531 19.242187-29.289062 30.457031-64.300781 30.457031-101.890624zm-208.089844 144.738281c-63.527344-9.410156-113.886718-59.707031-123.320312-123.15625 63.53125 9.410156 113.886718 59.707031 123.320312 123.15625zm-123.363281-1.347656c63.625 9.253906 114.09375 59.671875 123.410156 123.277343-63.628906-9.253906-114.09375-59.671874-123.410156-123.277343zm166.5 123.277343c9.324219-63.652343 60.25-114.089843 123.410156-123.277343-9.316406 63.605469-59.785156 114.023437-123.410156 123.277343zm0-121.867187c9.234375-63.046875 59.292969-113.953125 123.410156-123.28125-9.296875 63.457031-59.644531 114.003906-123.410156 123.28125zm0 0"/>
</svg>