<svg width="125" height="162" viewBox="0 0 125 162" xmlns="http://www.w3.org/2000/svg">
    <path
        d="M44.1401 0.0530446C38.1555 1.13861 33.9691 3.27308 29.9028 7.31246C26.3563 10.8354 24.5141 13.793 23.1315 18.1834C21.963 21.8947 21.9837 21.4001 21.8815 48.2446L21.7846 73.6687L20.921 74.2023C17.9842 76.0167 13.1232 80.5559 10.2463 84.1704C5.39146 90.2698 1.9126 98.1723 0.514715 106.277C-0.0607067 109.613 -0.17753 116.516 0.285769 119.82C2.69276 136.99 13.8907 151.561 29.8015 158.226C36.1843 160.9 43.1375 162.226 49.4289 161.969C59.1704 161.57 68.6726 158.219 76.4309 152.447C91.5275 141.216 98.8594 122.252 95.114 104.122C93.703 97.2926 90.041 89.4507 85.7317 84.0304C83.1914 80.8353 78.5243 76.4615 75.4521 74.3966L74.2284 73.5742L74.2279 49.5576C74.2277 33.538 74.1405 24.736 73.9661 23.1234C72.7922 12.2696 65.2283 3.50993 54.5122 0.594182C53.1106 0.212825 51.8483 0.0889953 48.7237 0.0264931C46.5259 -0.0174464 44.4633 -0.00546312 44.1401 0.0530446ZM92.0919 20.4708V24.5828H108.546H125V20.4708V16.3588H108.546H92.0919V20.4708ZM52.132 56.9531V88.1487L54.1888 88.645C66.7106 91.6658 75.3915 103.85 74.0211 116.481C73.1072 124.903 68.5205 132.09 61.2854 136.437C53.6477 141.026 43.4229 141.189 35.4843 136.848C32.2457 135.077 28.5802 131.744 26.5192 128.695C18.7185 117.155 21.169 101.769 32.1521 93.3254C35.2344 90.9559 39.5294 88.997 43.0235 88.3665L43.905 88.2075V57.1392C43.905 40.0516 43.9755 26.0004 44.0618 25.9144C44.1478 25.8282 45.9989 25.7577 48.1753 25.7577H52.132V56.9531ZM92.0919 42.3231V46.4351H103.022H113.952V42.3231V38.2111H103.022H92.0919V42.3231ZM92.0919 64.4103V68.5223H108.546H125V64.4103V60.2984H108.546H92.0919V64.4103ZM45.1087 96.2787C41.5304 96.873 38.1038 98.7074 35.2955 101.533C33.6976 103.14 33.188 103.855 32.1798 105.902C30.758 108.79 30.2716 110.875 30.2716 114.084C30.2716 121.764 35.1329 128.397 42.6122 130.924C45.3179 131.838 49.3325 131.993 52.1393 131.292C60.9467 129.091 66.849 120.741 65.7558 112.026C65.1949 107.554 63.7077 104.527 60.4808 101.288C58.6335 99.4334 58.0437 99.0044 55.893 97.9505C52.3584 96.2186 48.7968 95.6664 45.1087 96.2787Z"
    />
</svg>