<svg id="Capa_1" enable-background="new 0 0 512 512" height="512" viewBox="0 0 512 512" width="512" xmlns="http://www.w3.org/2000/svg"><g><path d="m422 282.58v-187.58c0-8.284-6.716-15-15-15s-15 6.716-15 15v187.58c-17.459 6.192-30 22.865-30 42.42 0 24.813 20.187 45 45 45s45-20.187 45-45c0-19.554-12.541-36.228-30-42.42zm-15 57.42c-8.271 0-15-6.729-15-15s6.729-15 15-15 15 6.729 15 15-6.728 15-15 15z"/><path d="m472 242.552v-177.552c0-35.841-29.159-65-65-65s-65 29.159-65 65v177.55c-4.586 3.614-8.821 7.574-12.69 11.822-30.079-56.194-89.059-92.372-154.31-92.372-96.495 0-175 78.505-175 175s78.505 175 175 175c39.897 0 78.929-13.784 109.905-38.813 23.11-18.673 41.084-43.015 52.207-70.256 17.95 16.16 41.377 26.321 66.918 27.028 1.004.028 2.006.042 3.006.042 27.51 0 53.393-10.491 73.17-29.728 20.502-19.943 31.794-46.675 31.794-75.273 0-32.343-14.811-62.593-40-82.448zm-169.95 79.448h-37.05c-13.785 0-25-11.215-25-25s11.215-25 25-25h39.656c2.011 4.014 3.851 8.142 5.5 12.382-4.936 11.772-7.734 24.495-8.106 37.618zm-256.638-50h89.588c8.271 0 15 6.729 15 15s-6.729 15-15 15c-24.813 0-45 20.187-45 45s20.187 45 45 45h40c8.271 0 15 6.729 15 15s-6.729 15-15 15h-117.397c-17.352-23.899-27.603-53.273-27.603-85 0-23.357 5.559-45.437 15.412-65zm129.588 210c-33.161 0-63.752-11.198-88.208-30h88.208c24.813 0 45-20.187 45-45s-20.187-45-45-45h-40c-8.271 0-15-6.729-15-15s6.729-15 15-15c24.813 0 45-20.187 45-45s-20.187-45-45-45h-69.456c26.605-30.613 65.808-50 109.456-50 42.934 0 82.589 18.904 109.581 50h-19.581c-30.327 0-55 24.673-55 55s24.673 55 55 55h40.609c2.2 8.089 5.359 15.815 9.347 23.044-17.058 63.27-73.785 106.956-139.956 106.956zm284.288-103.232c-14.639 14.239-33.969 21.758-54.428 21.203-39.889-1.104-72.573-34.489-72.858-74.42-.181-25.291 12.284-48.809 33.344-62.91 4.158-2.785 6.654-7.459 6.654-12.464v-185.177c0-19.299 15.701-35 35-35s35 15.701 35 35v185.176c0 5.004 2.496 9.68 6.654 12.464 20.88 13.981 33.346 37.293 33.346 62.36 0 20.427-8.065 39.522-22.712 53.768z"/><path d="m221.607 70.607 19.393-19.394v73.787c0 8.284 6.716 15 15 15s15-6.716 15-15v-73.787l19.394 19.393c2.928 2.93 6.767 4.394 10.606 4.394s7.678-1.464 10.606-4.394c5.858-5.858 5.858-15.355 0-21.213l-45-45c-5.857-5.858-15.355-5.858-21.213 0l-45 45c-5.858 5.858-5.858 15.355 0 21.213 5.858 5.859 15.356 5.859 21.214.001z"/></g></svg>