<svg width="130" height="130" viewBox="0 0 130 130" xmlns="http://www.w3.org/2000/svg">
    <path
        d="M71.4787 0.0652451C61.2868 0.922959 51.3336 4.7413 43.0244 10.981C40.5781 12.8179 35.3544 17.907 33.5754 20.1866C28.0585 27.2556 24.4013 35.1039 22.726 43.4705C21.8577 47.807 21.6441 50.551 21.7696 55.7638C21.8929 60.886 22.2731 63.6803 23.4478 68.0978C25.348 75.2432 28.7918 82.1528 33.3577 87.9807C35.3462 90.5187 40.6729 95.6791 43.3501 97.6609C47.7124 100.89 50.8857 102.666 55.7916 104.622C63.197 107.574 70.6424 108.822 78.5232 108.43C85.9601 108.061 92.6236 106.351 99.5095 103.047C105.272 100.282 109.44 97.3127 114.116 92.6422C120.369 86.3961 124.561 79.6483 127.291 71.4368C129.371 65.1804 130 61.1737 130 54.192C130 50.2777 129.905 48.3784 129.614 46.5029C125.882 22.4301 107.734 4.1905 83.812 0.469195C81.6469 0.132391 73.7528 -0.126224 71.4787 0.0652451ZM81.5401 13.8175C88.0434 14.657 95.1469 17.6744 100.797 21.9976C102.545 23.3346 106.071 26.7687 107.488 28.5145C112.027 34.1033 115.059 41.0614 116.154 48.3966C116.585 51.2898 116.583 56.923 116.15 59.904C114.226 73.1336 106.245 84.2901 94.2946 90.4555C88.6882 93.3479 82.5354 94.8034 75.9143 94.8034C64.6951 94.8034 54.5773 90.5404 46.798 82.5357C43.3226 78.9597 41.1857 75.9034 39.1524 71.6016C32.9793 58.5405 34.1243 43.3055 42.1723 31.4233C48.2996 22.3766 57.0675 16.5219 67.8003 14.31C72.3186 13.3787 76.8763 13.2153 81.5401 13.8175ZM91.7096 38.0403C90.6468 38.297 90.1632 38.6483 89.7904 39.4347C89.4715 40.1077 89.4377 42.3315 89.4377 62.726C89.4377 75.1271 89.4985 85.2733 89.5731 85.2733C89.6476 85.2733 90.6455 84.782 91.791 84.1814C97.029 81.435 101.497 77.2911 104.563 72.3356L105.666 70.5524V55.0655V39.5788L105.071 38.9141C104.715 38.5166 104.128 38.169 103.61 38.0494C102.602 37.8163 92.6675 37.8088 91.7096 38.0403ZM69.4054 46.2796C69.1578 46.3798 68.6952 46.771 68.3776 47.1487L67.8003 47.8356V67.5251V87.2144L68.2872 87.3251C68.555 87.3859 69.2122 87.5393 69.7477 87.666C70.2832 87.7927 72.5755 87.9525 74.8416 88.0214C78.1367 88.1217 79.393 88.0743 81.1164 87.7845C82.3015 87.5854 83.4415 87.3708 83.6497 87.3079C84.0067 87.1999 84.0283 86.0757 84.0275 67.6605C84.0268 48.6692 84.0149 48.108 83.6043 47.434C82.8017 46.116 82.5278 46.0682 75.8711 46.0833C72.5627 46.0909 69.6531 46.1793 69.4054 46.2796ZM47.2859 54.7339C46.0078 55.5232 45.9466 55.9219 45.9466 63.4639V70.2592L46.9996 72.0129C49.5061 76.1878 52.8201 79.6565 56.8734 82.3481C58.5062 83.4322 61.8745 85.2717 62.2287 85.2728C62.3181 85.273 62.391 78.8374 62.391 70.9711C62.391 55.6767 62.3998 55.8093 61.3167 54.8418C60.8582 54.4322 60.4808 54.4053 54.4169 54.3501C48.2817 54.2942 47.9709 54.3109 47.2859 54.7339ZM12.5611 101.767C7.0276 107.289 2.20095 112.258 1.83528 112.81C0.356149 115.044 -0.241693 117.738 0.0882771 120.684C0.487703 124.249 2.8306 127.467 6.26359 129.166L7.94936 130H11.0059H14.0624L15.8859 129.082C17.65 128.193 18.0495 127.826 28.0957 117.87L38.4817 107.576L37.9446 107.2C33.5066 104.094 27.4615 98.1959 24.1902 93.7804C23.5038 92.8541 22.8701 92.0132 22.782 91.9121C22.6939 91.8109 18.0945 96.2457 12.5611 101.767Z"
    />
</svg>