<svg width="480" height="424" viewBox="0 0 480 424" xmlns="http://www.w3.org/2000/svg">
    <path d="M366.304 0.901972C349.448 4.28497 336.457 15.406 330.699 31.38C328.93 36.287 328.448 40.328 328.054 53.556L327.573 69.732L321.438 64.93C298.296 46.814 269.563 33.592 239.804 27.366C224.466 24.156 196.054 22.923 180.256 24.781C142.984 29.164 107.901 43.175 78.019 65.614C68.05 73.099 51.244 89.298 43.54 98.846C19.342 128.838 4.94698 163.986 0.726982 203.38C-0.704018 216.741 0.0619824 242.561 2.28498 255.88C11.607 311.737 42.515 358.881 90.304 390.14C154.016 431.813 233.84 434.787 297.743 397.867C303.443 394.574 308.658 391.88 309.333 391.88C310.007 391.88 311.106 392.539 311.775 393.344C313.681 395.642 323.156 401.671 330.558 405.298C347.626 413.659 366.142 416.934 384.767 414.884C437.127 409.122 476.536 368.893 479.503 318.175C481.679 280.982 463.372 244.637 432.511 224.88L423.92 219.38L423.609 128.38L423.297 37.38L421.046 31.461C419.808 28.205 417.396 23.361 415.685 20.695C405.918 5.47297 385.1 -2.87103 366.304 0.901972ZM388.926 18.605C395.484 21.513 401.295 27.144 404.524 33.719L407.304 39.38L407.804 133.477C408.21 209.92 408.554 227.875 409.639 229.182C410.373 230.066 413.942 232.421 417.569 234.415C459.069 257.226 474.698 305.534 454.807 349.517C439.698 382.928 402.756 403.407 365.77 398.876C327.465 394.184 298.581 367.686 290.033 329.397C287.714 319.013 288.055 299.578 290.734 289.38C296.7 266.672 312.044 246.78 332.414 235.347C337.079 232.729 341.55 229.652 342.35 228.511C343.596 226.732 343.804 213.459 343.804 135.707C343.804 74.188 344.154 43.348 344.89 39.913C346.974 30.197 355.075 21.259 365.009 17.714C371.778 15.298 382.357 15.692 388.926 18.605ZM261.757 50.364C280.259 56.657 301.513 68.973 318.554 83.276L327.804 91.039L327.803 155.21L327.802 219.38L322.779 222.201C311.16 228.727 298.193 240.945 289.88 253.202C284.881 260.572 278.177 275.472 275.852 284.38C267.374 316.867 273.593 349.14 293.328 375.059L296.891 379.739L289.9 383.892C278.891 390.432 249.733 402.143 248.222 400.631C248.02 400.429 248.589 396.69 249.485 392.322C252.858 375.897 248.086 360.996 235.387 348.298C220.068 332.982 199.244 325.758 175.147 327.4C168.633 327.844 159.243 328.246 154.28 328.293C145.949 328.373 144.727 328.119 138.351 324.979C133.147 322.416 128.972 319.115 121.41 311.585C108.851 299.079 102.883 295.882 92.091 295.881C79.446 295.879 68.542 301.73 54.674 315.956L46.045 324.809L42.541 319.095C24.407 289.515 14.691 251.916 16.129 216.88C16.456 208.905 17.257 199.467 17.91 195.907C19.085 189.494 19.111 189.457 20.678 191.907C23.634 196.529 35.281 208.087 41.393 212.464C49.396 218.197 60.404 223.342 70.304 225.978C82.268 229.164 100.939 229 113.893 225.597C132.008 220.836 140.32 215.212 153.265 198.955C164.416 184.951 169.714 179.964 177.745 175.91C190.597 169.422 205.385 168.024 226.547 171.296C246.98 174.455 256.738 172.47 262.332 164.017C268.242 155.086 267.49 146.673 258.935 126.001C256.164 119.306 252.655 109.002 251.137 103.104C248.737 93.778 248.373 90.424 248.341 77.38C248.309 64.49 248.625 61.36 250.583 55.13C251.836 51.143 253.22 47.88 253.658 47.88C254.095 47.88 257.74 48.998 261.757 50.364ZM450.259 66.335C448.243 68.35 447.804 69.78 447.804 74.335V79.88H442.259C433.8 79.88 429.902 84.612 432.914 91.223C434.341 94.354 437.76 95.88 443.351 95.88H447.804V100.333C447.804 106.168 449.402 109.471 452.934 110.934C455.151 111.852 456.457 111.852 458.674 110.934C462.206 109.471 463.804 106.168 463.804 100.333V95.88H468.257C473.848 95.88 477.267 94.354 478.694 91.223C480.403 87.472 480.031 85.016 477.349 82.335C475.334 80.319 473.904 79.88 469.349 79.88H463.804V74.335C463.804 67.662 460.91 63.88 455.804 63.88C453.856 63.88 451.806 64.787 450.259 66.335ZM370.259 98.335L367.804 100.789V174.315V247.842L365.054 248.45C351 251.556 340.23 257.341 330.683 266.913C310.833 286.815 306.471 315.249 319.26 341.38C325.79 354.722 339.129 366.323 354.123 371.701C360.503 373.989 362.865 374.282 375.304 374.328C387.493 374.373 390.258 374.067 396.68 371.964C411.729 367.035 425.623 355.121 432.348 341.38C441.815 322.036 441.998 301.839 432.874 283.33C424.058 265.446 407.621 253.067 386.554 248.445L383.804 247.842V174.315V100.789L381.349 98.335C379.802 96.787 377.752 95.88 375.804 95.88C373.856 95.88 371.806 96.787 370.259 98.335ZM434.259 186.335C431.577 189.016 431.205 191.472 432.914 195.223C434.758 199.27 437.758 199.88 455.804 199.88C473.85 199.88 476.85 199.27 478.694 195.223C480.403 191.472 480.031 189.016 477.349 186.335C474.915 183.9 474.74 183.88 455.804 183.88C436.868 183.88 436.693 183.9 434.259 186.335Z" />
</svg>