<svg width="139" height="139" viewBox="0 0 139 139" xmlns="http://www.w3.org/2000/svg">
    <path fill-rule="evenodd" clip-rule="evenodd"
        d="M54.8314 1.05208C29.159 7.05351 9.88829 24.8782 2.14841 49.7866C0.267147 55.8409 -0.0460815 58.8048 0.00501929 70.1064C0.0580127 81.8531 0.349476 84.1866 2.6017 90.8987C9.95831 112.825 26.2226 129.072 48.2072 136.456C55.0405 138.75 57.1139 138.998 69.4992 139C81.717 139.002 84.0156 138.736 90.4761 136.577C113.115 129.009 129.847 112.016 136.85 89.4811C138.731 83.4286 139.045 80.4591 138.995 69.1613C138.945 57.5837 138.636 55.0243 136.519 48.6836C132.675 37.1722 127.807 29.4053 118.793 20.4022C104.839 6.4666 91.4612 0.670254 71.865 0.0720008C64.2888 -0.159551 58.6195 0.167457 54.8314 1.05208ZM83.4668 13.9755C103.156 18.6746 120.557 36.2649 125.438 56.4023C127.426 64.6011 127.017 77.4026 124.502 85.7006C118.612 105.136 102.098 120.876 82.7476 125.498C76.0609 127.095 62.9195 127.093 56.2509 125.493C35.821 120.59 18.4779 103.269 13.5694 82.8653C11.9654 76.1957 11.9654 63.0719 13.5694 56.4023C17.9395 38.2383 32.6215 21.818 49.9248 15.7438C60.6645 11.9747 72.4735 11.3519 83.4668 13.9755ZM64.8368 27.7041C62.9867 30.0527 62.8751 31.3815 62.8751 51.0539V71.9134L74.509 83.5326C87.0769 96.0845 89.0907 97.1119 92.9923 92.9647C96.6602 89.0643 95.7584 87.0909 85.5865 76.7675L76.1234 67.1633V48.6789C76.1234 31.4099 75.9947 30.03 74.1617 27.7041C72.8615 26.053 71.2906 25.2138 69.4992 25.2138C67.7079 25.2138 66.137 26.053 64.8368 27.7041Z"
    />
</svg>