<svg width="104" height="93" viewBox="0 0 104 93" xmlns="http://www.w3.org/2000/svg">
    <path fill-rule="evenodd" clip-rule="evenodd"
        d="M15.5843 0.120347C8.31782 1.34857 2.42045 6.77237 0.474364 14.0169C-0.107078 16.1813 -0.164957 20.683 0.361459 22.7993C1.19358 26.1452 2.6858 28.9256 4.95981 31.3677C7.32389 33.9063 10.1999 35.6611 13.7026 36.702C15.0654 37.1069 15.7199 37.1688 18.5394 37.16C21.9904 37.1493 23.238 36.9208 25.7264 35.8445L26.7931 35.3829L28.0773 36.2792C35.1033 41.1826 42.4801 46.4177 42.4801 46.5003C42.4801 46.5828 35.1033 51.8179 28.0773 56.7213L26.7931 57.6176L25.7264 57.156C23.238 56.0797 21.9904 55.8512 18.5394 55.8405C15.7199 55.8317 15.0654 55.8936 13.7026 56.2986C7.90615 58.0209 3.38341 62.0658 1.25166 67.4345C0.263839 69.9221 0.0113301 71.37 0.0231505 74.4749C0.0357861 77.8263 0.415874 79.5737 1.73609 82.3504C4.11546 87.3557 8.24792 90.8691 13.5818 92.4221C15.728 93.047 19.8244 93.1921 22.1194 92.7244C28.0736 91.5111 32.8994 87.6619 35.464 82.0801C37.6351 77.3548 37.6331 71.3856 35.4587 66.6531C35.067 65.8005 34.7862 65.0381 34.8349 64.9588C35.0161 64.6643 47.433 56.0321 47.605 56.0811C47.7035 56.1094 55.903 61.8468 65.8262 68.831C75.7492 75.8152 84.4391 81.8022 85.1367 82.1352C87.7199 83.3688 91.0071 83.8512 93.8192 83.4094C95.7744 83.1022 98.52 82.0545 100.06 81.0283C101.309 80.1957 103.63 78.0046 103.991 77.3166C104.17 76.977 101.771 75.2322 82.6191 61.7685C70.7539 53.4273 61.0461 46.5566 61.0461 46.5003C61.0461 46.4439 70.7539 39.5732 82.6191 31.232C102.385 17.3369 104.174 16.0319 103.979 15.6564C103.862 15.431 103.207 14.6932 102.522 14.0169C97.8408 9.38948 90.8726 8.12622 85.1367 10.8653C84.4391 11.1983 75.7492 17.1853 65.8262 24.1695C55.903 31.1538 47.7035 36.8911 47.605 36.9194C47.433 36.9684 35.0161 28.3362 34.8349 28.0417C34.7862 27.9624 35.067 27.2 35.4587 26.3474C37.6331 21.6149 37.6351 15.6458 35.464 10.9204C32.9261 5.39679 28.0971 1.5117 22.2673 0.30377C20.813 0.00250467 16.9145 -0.10468 15.5843 0.120347ZM21.9682 9.60672C26.1897 11.2233 28.7735 15.7523 28.0239 20.2215C27.4107 23.8773 24.7594 26.8905 21.2151 27.9597C19.9112 28.353 17.2127 28.361 15.9717 27.9751C13.5816 27.232 11.3522 25.4896 10.2468 23.5006C7.18367 17.9895 9.9093 11.1624 15.89 9.36612C17.5514 8.86708 20.3233 8.97693 21.9682 9.60672ZM74.5737 44.0975C74.5173 44.2459 74.4965 45.7002 74.5277 47.3295L74.5845 50.2917L79.1242 50.3468L83.664 50.4019L83.6078 47.1702L83.5517 43.9385L79.1142 43.8831C75.595 43.8395 74.6554 43.8838 74.5737 44.0975ZM90.1112 43.9688C90.0344 44.0461 89.9714 45.5233 89.9714 47.2518V50.3942H94.562H99.1528L99.0966 47.1663L99.0405 43.9385L94.6458 43.8833C92.2285 43.853 90.1881 43.8915 90.1112 43.9688ZM21.5726 65.142C22.9052 65.5843 24.2191 66.4362 25.4195 67.6364C29.4423 71.6584 28.9573 78.5112 24.404 81.986C19.5421 85.6963 12.5436 84.0437 9.95414 78.5737C8.1291 74.7186 8.85096 70.4953 11.8509 67.4786C14.3473 64.9682 18.2341 64.0341 21.5726 65.142Z"
    />
</svg>