<svg width="100" height="95" viewBox="0 0 100 95" xmlns="http://www.w3.org/2000/svg">
    <path
        d="M89.1582 0.303469C86.791 1.14927 85.1587 2.6096 84.1148 4.81541C83.5558 5.99652 83.4966 6.2992 83.4966 7.97887C83.4966 9.00044 83.5406 10.0899 83.5943 10.3998C83.6904 10.9544 83.5862 11.0262 76.8088 15.065L69.9257 19.1669L69.2005 18.5295C68.2333 17.6794 66.6639 16.9816 65.1258 16.7179C62.092 16.1978 58.8499 17.639 56.9325 20.3604L56.5431 20.9129L50.4342 17.9164L44.3251 14.9197L44.404 14.3332C44.5534 13.2213 44.1618 11.4211 43.4628 10.005C41.0157 5.04849 34.4443 3.94421 30.3671 7.80408C28.3956 9.67067 27.4352 12.5194 27.9266 15.0429C28.0598 15.728 28.1809 16.4735 28.1956 16.6999C28.2167 17.0252 26.578 18.3419 20.366 22.9901L12.5096 28.8685L11.7448 28.4986C7.70273 26.5438 2.81844 28.3758 0.801627 32.6032C0.145175 33.9791 0.0969291 34.2077 0.0969291 35.9378C0.0969291 38.0456 0.40397 39.088 1.53093 40.805C3.69365 44.1004 8.35801 45.2917 12.0147 43.4826C13.735 42.6313 15.0227 41.2967 15.8985 39.4571C16.4663 38.264 16.5013 38.0605 16.4692 36.1333C16.4505 35.0042 16.4065 33.8315 16.3716 33.5274C16.3118 33.0072 16.7763 32.6247 24.2151 27.0674L32.1218 21.16L33.3949 21.6259C34.4916 22.0273 34.9246 22.0803 36.5233 22.0088C38.5616 21.9177 39.9452 21.4369 41.1839 20.3891L41.8405 19.8338L48.8301 23.3279L55.8196 26.822L56.0523 27.6162C56.6193 29.551 58.3892 31.4821 60.5031 32.4722C61.5295 32.9532 62.1324 33.0969 63.4037 33.1636C68.0343 33.407 71.706 30.2046 72.1873 25.5032L72.3181 24.2244L79.7075 19.8164C83.7716 17.392 87.1771 15.4085 87.2752 15.4085C87.3732 15.4085 87.933 15.6283 88.5191 15.8969C91.4776 17.2528 95.279 16.4406 97.632 13.9503C101.561 9.79153 100.376 3.26652 95.231 0.736344C94.0259 0.143735 93.6761 0.0651342 92.0083 0.0125404C90.5889 -0.0322327 89.901 0.0379589 89.1582 0.303469ZM85.2824 33.3964C84.9753 33.4913 84.5488 33.7279 84.3345 33.922C83.3521 34.812 83.399 33.309 83.399 63.9127C83.399 92.2269 83.4027 92.4996 83.7927 93.1315C84.5474 94.3541 84.8195 94.3973 91.7294 94.3965C97.5919 94.3959 97.9867 94.3734 98.5865 94.0072C98.9367 93.7935 99.3976 93.3321 99.6111 92.9816C99.9937 92.3536 99.9994 91.9379 100 63.8936C100.001 36.5133 99.9871 35.4173 99.6369 34.7615C99.4367 34.3869 98.9754 33.9044 98.6115 33.6893C97.9923 33.3233 97.5618 33.296 91.8952 33.261C88.5651 33.2406 85.5892 33.3014 85.2824 33.3964ZM29.0813 39.3144C28.7163 39.5584 28.2639 40.0644 28.0763 40.4386C27.7563 41.076 27.7346 42.7325 27.7346 66.6339C27.7346 90.5353 27.7563 92.1919 28.0763 92.8293C28.2639 93.2035 28.7163 93.7095 29.0813 93.9535C29.7374 94.3922 29.8171 94.3973 36.1127 94.3965C42.0837 94.3959 42.5192 94.3721 43.1056 94.0141C43.4495 93.8043 43.889 93.3427 44.0822 92.9884C44.4154 92.3776 44.4335 91.0153 44.4335 66.6339C44.4335 42.2525 44.4154 40.8902 44.0822 40.2794C43.889 39.9251 43.4495 39.4635 43.1056 39.2537C42.5192 38.8958 42.0837 38.8719 36.1127 38.8713C29.8171 38.8705 29.7374 38.8756 29.0813 39.3144ZM56.8945 50.3982C56.5505 50.608 56.1111 51.0696 55.9179 51.4239C55.586 52.0321 55.5665 53.1889 55.5665 72.2061C55.5665 91.2234 55.586 92.3802 55.9179 92.9884C56.1111 93.3427 56.5505 93.8043 56.8945 94.0141C57.4808 94.3721 57.9164 94.3959 63.8873 94.3965C70.1829 94.3973 70.2626 94.3922 70.9187 93.9535C72.3558 92.9923 72.2654 94.4545 72.2654 72.2061C72.2654 49.9578 72.3558 51.42 70.9187 50.4588C70.2626 50.0201 70.1829 50.015 63.8873 50.0158C57.9164 50.0164 57.4808 50.0402 56.8945 50.3982ZM1.33367 61.4936C1.04694 61.6715 0.629553 62.1431 0.405918 62.5414C0.00396029 63.2571 -0.000728643 63.4367 5.26165e-05 77.805C0.00063856 91.9681 0.0107963 92.3608 0.388926 92.9816C0.602405 93.3321 1.06335 93.7935 1.41355 94.0072C2.01336 94.3734 2.40812 94.3959 8.27068 94.3965C15.1805 94.3973 15.4526 94.3541 16.2073 93.1315C16.5929 92.5069 16.6011 92.1908 16.6011 77.7944C16.6011 61.5715 16.6583 62.3284 15.3708 61.5427C14.7837 61.1841 14.3534 61.1612 8.30018 61.1653C2.64738 61.1692 1.7907 61.2097 1.33367 61.4936Z"
    />
</svg>