<svg width="33" height="32" viewBox="0 0 33 32" xmlns="http://www.w3.org/2000/svg">
    <path d="M6.25 4.5262V26.5H25.5208V4.5262H6.25ZM3 2H29V28.7777L3 29V2Z" />
    <path d="M9.334 26.667C9.334 29.244 7.245 31.334 4.667 31.334C2.089 31.334 2.71588e-06 29.245 2.71588e-06 26.667C2.71588e-06 24.09 2.089 22 4.667 22C7.245 22 9.334 24.089 9.334 26.667Z" />
    <path d="M9.334 4.667C9.334 7.244 7.245 9.334 4.667 9.334C2.089 9.334 0 7.245 0 4.667C0 2.09 2.089 0 4.667 0C7.245 0 9.334 2.089 9.334 4.667Z" />
    <path d="M31.334 4.667C31.334 7.244 29.245 9.334 26.667 9.334C24.089 9.334 22 7.245 22 4.667C22 2.09 24.089 0 26.667 0C29.245 0 31.334 2.089 31.334 4.667Z" />
    <path d="M31.5 26.5C31.5 29.077 29.411 31.167 26.833 31.167C24.255 31.167 22.166 29.078 22.166 26.5C22.166 23.923 24.255 21.833 26.833 21.833C29.411 21.833 31.5 23.922 31.5 26.5Z" />
</svg>