<svg width="32" height="32" viewBox="0 0 32 32" xmlns="http://www.w3.org/2000/svg">
<path d="M30.3333 28.6667H23.3333V13.3027C23.348 12.5975 23.6388 11.9263 24.1432 11.4334C24.6477 10.9404 25.3254 10.6651 26.0307 10.6667C26.7296 10.6674 27.3996 10.9453 27.8938 11.4395C28.388 11.9337 28.666 12.6038 28.6667 13.3027C28.6667 13.3133 28.6693 13.3227 28.67 13.3333H28.6667V13.792C28.2685 13.9801 27.9319 14.2772 27.6959 14.6489C27.4599 15.0206 27.3342 15.4517 27.3333 15.892C27.3333 17.0587 29.2447 19.5153 29.608 19.9713C29.615 19.9803 29.6239 19.9876 29.6342 19.9926C29.6444 19.9976 29.6556 20.0002 29.667 20.0002C29.6784 20.0002 29.6896 19.9976 29.6999 19.9926C29.7101 19.9876 29.719 19.9803 29.726 19.9713C30.0887 19.5153 32 17.0587 32 15.8927C31.9992 15.4524 31.8734 15.0213 31.6374 14.6496C31.4014 14.2779 31.0648 13.9807 30.6667 13.7927V13.3333H30.6633C30.6633 13.3227 30.6667 13.3133 30.6667 13.3027C30.6653 12.0736 30.1764 10.8952 29.3073 10.0261C28.4381 9.15697 27.2598 8.66808 26.0307 8.66667C24.7951 8.66552 23.6089 9.15165 22.7295 10.0196C21.8501 10.8875 21.3484 12.0672 21.3333 13.3027V16.6667H19.6667C19.5553 16.6665 19.4439 16.6732 19.3333 16.6867C18.4828 16.7697 17.6874 17.1455 17.0831 17.7498C16.4788 18.3541 16.1031 19.1494 16.02 20C16.0065 20.1106 15.9998 20.2219 16 20.3333V21.1253C15.6019 21.3134 15.2652 21.6105 15.0292 21.9823C14.7932 22.354 14.6675 22.785 14.6667 23.2253C14.6667 24.392 16.578 26.8487 16.9413 27.3047C16.9483 27.3137 16.9573 27.3209 16.9675 27.326C16.9777 27.331 16.9889 27.3336 17.0003 27.3336C17.0117 27.3336 17.023 27.331 17.0332 27.326C17.0434 27.3209 17.0524 27.3137 17.0593 27.3047C17.422 26.8487 19.3333 24.392 19.3333 23.226C19.3325 22.7857 19.2068 22.3546 18.9708 21.9829C18.7348 21.6112 18.3981 21.3141 18 21.126V20.3333C18 19.8913 18.1756 19.4674 18.4882 19.1548C18.8007 18.8423 19.2246 18.6667 19.6667 18.6667H21.3333V28.6667H1.66667C1.22464 28.6667 0.800716 28.8423 0.488155 29.1548C0.175595 29.4674 0 29.8913 0 30.3333C0 30.7754 0.175595 31.1993 0.488155 31.5118C0.800716 31.8244 1.22464 32 1.66667 32H30.3333C30.7754 32 31.1993 31.8244 31.5118 31.5118C31.8244 31.1993 32 30.7754 32 30.3333C32 29.8913 31.8244 29.4674 31.5118 29.1548C31.1993 28.8423 30.7754 28.6667 30.3333 28.6667V28.6667ZM8.33333 4C8.59855 4 8.8529 3.89464 9.04044 3.70711C9.22798 3.51957 9.33333 3.26522 9.33333 3V1C9.33333 0.734784 9.22798 0.48043 9.04044 0.292893C8.8529 0.105357 8.59855 0 8.33333 0C8.06812 0 7.81376 0.105357 7.62623 0.292893C7.43869 0.48043 7.33333 0.734784 7.33333 1V3C7.33333 3.26522 7.43869 3.51957 7.62623 3.70711C7.81376 3.89464 8.06812 4 8.33333 4V4ZM7.33333 13.6667V15.6667C7.33333 15.9319 7.43869 16.1862 7.62623 16.3738C7.81376 16.5613 8.06812 16.6667 8.33333 16.6667C8.59855 16.6667 8.8529 16.5613 9.04044 16.3738C9.22798 16.1862 9.33333 15.9319 9.33333 15.6667V13.6667C9.33333 13.4015 9.22798 13.1471 9.04044 12.9596C8.8529 12.772 8.59855 12.6667 8.33333 12.6667C8.06812 12.6667 7.81376 12.772 7.62623 12.9596C7.43869 13.1471 7.33333 13.4015 7.33333 13.6667V13.6667ZM12.812 5.26933L14.2253 3.85467C14.3236 3.76312 14.4024 3.65272 14.457 3.53005C14.5117 3.40739 14.5411 3.27497 14.5435 3.1407C14.5458 3.00643 14.5211 2.87305 14.4708 2.74854C14.4205 2.62402 14.3457 2.51091 14.2507 2.41595C14.1558 2.32099 14.0426 2.24613 13.9181 2.19584C13.7936 2.14554 13.6602 2.12084 13.526 2.12321C13.3917 2.12558 13.2593 2.15497 13.1366 2.20963C13.014 2.26428 12.9036 2.34308 12.812 2.44133L11.3973 3.85467C11.2097 4.04226 11.1043 4.2967 11.1043 4.562C11.1043 4.8273 11.2097 5.08174 11.3973 5.26933C11.5849 5.45693 11.8394 5.56232 12.1047 5.56232C12.37 5.56232 12.6244 5.45693 12.812 5.26933V5.26933ZM3.85467 11.3973L2.44133 12.812C2.26469 13.0016 2.16853 13.2523 2.1731 13.5114C2.17767 13.7704 2.28262 14.0176 2.46584 14.2008C2.64906 14.384 2.89624 14.489 3.1553 14.4936C3.41437 14.4981 3.6651 14.402 3.85467 14.2253L5.26933 12.812C5.45693 12.6244 5.56232 12.37 5.56232 12.1047C5.56232 11.8394 5.45693 11.5849 5.26933 11.3973C5.08174 11.2097 4.8273 11.1043 4.562 11.1043C4.2967 11.1043 4.04226 11.2097 3.85467 11.3973ZM12.6667 8.33333C12.6667 8.59855 12.772 8.8529 12.9596 9.04044C13.1471 9.22798 13.4015 9.33333 13.6667 9.33333H15.6667C15.9319 9.33333 16.1862 9.22798 16.3738 9.04044C16.5613 8.8529 16.6667 8.59855 16.6667 8.33333C16.6667 8.06812 16.5613 7.81376 16.3738 7.62623C16.1862 7.43869 15.9319 7.33333 15.6667 7.33333H13.6667C13.4015 7.33333 13.1471 7.43869 12.9596 7.62623C12.772 7.81376 12.6667 8.06812 12.6667 8.33333V8.33333ZM1 9.33333H3C3.26522 9.33333 3.51957 9.22798 3.70711 9.04044C3.89464 8.8529 4 8.59855 4 8.33333C4 8.06812 3.89464 7.81376 3.70711 7.62623C3.51957 7.43869 3.26522 7.33333 3 7.33333H1C0.734784 7.33333 0.48043 7.43869 0.292893 7.62623C0.105357 7.81376 2.98023e-08 8.06812 2.98023e-08 8.33333C2.98023e-08 8.59855 0.105357 8.8529 0.292893 9.04044C0.48043 9.22798 0.734784 9.33333 1 9.33333V9.33333ZM11.3973 11.3973C11.3044 11.4902 11.2307 11.6005 11.1804 11.7218C11.1301 11.8432 11.1042 11.9733 11.1042 12.1047C11.1042 12.236 11.1301 12.3661 11.1804 12.4875C11.2307 12.6089 11.3044 12.7191 11.3973 12.812L12.812 14.2253C13.0016 14.402 13.2523 14.4981 13.5114 14.4936C13.7704 14.489 14.0176 14.384 14.2008 14.2008C14.384 14.0176 14.489 13.7704 14.4936 13.5114C14.4981 13.2523 14.402 13.0016 14.2253 12.812L12.812 11.3973C12.7191 11.3044 12.6089 11.2307 12.4875 11.1804C12.3661 11.1301 12.236 11.1042 12.1047 11.1042C11.9733 11.1042 11.8432 11.1301 11.7218 11.1804C11.6005 11.2307 11.4902 11.3044 11.3973 11.3973ZM3.85467 5.26933C4.04226 5.45693 4.2967 5.56232 4.562 5.56232C4.8273 5.56232 5.08174 5.45693 5.26933 5.26933C5.45693 5.08174 5.56232 4.8273 5.56232 4.562C5.56232 4.2967 5.45693 4.04226 5.26933 3.85467L3.85467 2.44133C3.6651 2.26469 3.41437 2.16853 3.1553 2.1731C2.89624 2.17767 2.64906 2.28262 2.46584 2.46584C2.28262 2.64906 2.17767 2.89624 2.1731 3.1553C2.16853 3.41437 2.26469 3.6651 2.44133 3.85467L3.85467 5.26933Z"/>
<path d="M8.33334 11.3333C9.9902 11.3333 11.3333 9.9902 11.3333 8.33334C11.3333 6.67649 9.9902 5.33334 8.33334 5.33334C6.67649 5.33334 5.33334 6.67649 5.33334 8.33334C5.33334 9.9902 6.67649 11.3333 8.33334 11.3333Z"/>
</svg>
