<svg width="682" height="682" viewBox="0 0 682 682" fill="none" xmlns="http://www.w3.org/2000/svg">
<mask id="path-1-outside-1" maskUnits="userSpaceOnUse" x="12.6464" y="10.9797" width="657" height="659" fill="black">
<rect fill="white" x="12.6464" y="10.9797" width="657" height="659"/>
<path d="M650.9 95.4965C641.663 66.4468 629.144 45.6468 628.614 44.7727C626.561 41.3893 622.335 39.6293 618.506 40.5073C617.515 40.7336 593.874 46.2517 566.604 59.8712C529.788 78.2517 504.071 102.79 492.223 130.821C482.362 154.166 480.945 182.704 487.942 214.232C473.039 197.588 456.274 183.028 437.999 170.771C432.419 159.746 417.663 132.605 394.596 104.238C386.998 94.8995 372.383 106.618 380.06 116.051C395.603 135.169 407.302 153.971 414.619 166.888L329.301 150.256L248.239 39.6878C256.11 39.7971 264.009 40.558 271.868 42.0995C296.785 46.9775 321.398 59.6683 345.035 79.8126C354.296 87.7073 366.323 73.3385 357.183 65.5531C331.072 43.3014 303.58 29.2215 275.466 23.7151C232.551 15.3171 182.499 26.3415 130.706 55.6097C92.1026 77.4244 66.288 101.385 65.2109 102.392C61.7572 105.619 61.207 111.481 64.0987 115.251C67.8841 123.017 82.2294 151.032 106.108 181.194C120.185 198.977 135.029 214.197 150.385 226.704C146.023 230.361 141.777 234.185 137.667 238.209C115.72 259.676 98.9162 284.999 87.8841 312.683C78.1319 337.143 72.887 363.457 72.5943 390.579C72.1104 434.93 84.9611 477.705 109.765 514.287C133.995 550.017 167.868 577.451 207.72 593.619C218.873 598.134 225.925 580.788 214.764 576.261C200.325 570.404 186.76 562.899 174.249 553.974C175.849 545.1 179.56 513.163 158.346 480.101C155.377 475.477 164.255 457.315 169.554 446.466C175.025 435.286 180.672 423.727 183.31 412.843C186.112 401.28 182.959 391.574 174.198 384.765C167.767 379.766 159.349 377.178 151.931 374.895C147.111 373.412 141.648 371.734 139.697 370.107C135.677 366.739 129.113 354.294 123.837 344.3C117.984 333.213 112.411 322.661 106.721 316.164C119.525 285.756 140.091 258.849 165.847 238.263C189.375 254.291 216.227 265.35 244.77 267.59C211.669 293.237 200.961 325.99 216.266 357.452C234.14 394.189 270.928 388.32 303.384 383.149C309 382.252 314.811 381.327 320.376 380.632C322.463 380.371 323.092 380.94 323.513 381.311C330.62 387.633 330.409 417.826 330.257 439.875C330.05 470.372 329.855 499.18 341.215 513.97C347.01 521.51 355.17 525.366 364.735 525.366C370.467 525.366 376.696 523.984 383.228 521.182C411.478 509.085 440.844 472.675 436.364 443.867C432.45 418.681 429.859 402.041 435.966 388.628C441.613 376.214 455.263 364.722 482.147 350.056C485.367 364.554 486.99 379.637 486.822 395.11C486.249 447.926 465.137 497.358 427.38 534.294C385.183 575.574 325.878 595.961 267.213 589.494C255.26 588.199 253.195 606.798 265.164 608.117C329.379 615.188 394.303 592.866 440.477 547.687C481.816 507.247 504.926 453.135 505.554 395.309C506.389 318.638 467.049 250.712 407.162 211.582C419.537 202.759 428.754 195.13 433.866 190.7C455.7 206.365 475.068 225.662 491.181 248.144C529.862 302.127 545.203 367.933 534.385 433.455C512.044 568.71 383.837 660.585 248.559 638.236C183.033 627.414 125.648 591.73 86.967 537.748C48.2821 483.769 32.9416 417.955 43.7631 352.437C45.7065 340.648 27.2363 337.553 25.2851 349.385C13.6441 419.844 30.1475 490.614 71.7358 548.663C113.332 606.704 175.049 645.081 245.507 656.722C260.243 659.153 274.994 660.355 289.644 660.355C345.02 660.355 398.889 643.161 444.793 610.267C502.85 568.671 541.23 506.966 552.863 436.507C561.39 384.878 554.791 333.081 534.296 286.244C543.755 283.454 559.853 278.037 577.484 269.233C614.292 250.853 640.013 226.314 651.856 198.283C663.712 170.244 663.38 134.7 650.9 95.4965V95.4965ZM107.267 353.042C114.237 366.255 120.828 378.743 127.677 384.472C132.528 388.527 139.279 390.603 146.425 392.8C164.731 398.427 166.858 401.19 165.102 408.429C162.947 417.331 157.749 427.961 152.727 438.236C143.053 458.029 133.917 476.714 142.577 490.216C154.858 509.354 156.961 528.195 156.75 539.914C100.961 489.608 78.245 410.15 99.0255 337.932C101.781 342.653 104.676 348.14 107.267 353.042V353.042ZM560.438 168.976L533.819 104.468C546.772 92.3551 561.8 83.239 574.6 76.8195C585.503 71.3483 595.876 67.2585 604.196 64.359L560.438 168.976ZM621.464 71.6214C625.183 79.6136 629.496 89.92 633.179 101.569C637.218 114.353 640.926 130.197 641.663 146.724L579.283 172.46L621.464 71.6214ZM509.476 138.115C512.239 131.582 515.81 125.526 519.935 119.934L550.237 193.358L523.045 258.38C519.224 250.275 514.725 239.629 510.908 227.535C503.248 203.321 496.785 168.144 509.476 138.115ZM569.484 252.285C558.99 257.553 548.977 261.541 540.82 264.417L569.039 196.956L640.867 167.317C639.825 175.364 637.839 183.34 634.604 190.989C621.917 221.018 592.188 240.901 569.484 252.285ZM231.74 246.954C228.43 246.306 225.164 245.514 221.944 244.613L325.609 168.624L410.967 185.26C379.872 209.76 304.2 261.151 231.74 246.954V246.954ZM137 188.351C114.83 164.456 98.5806 138.907 89.2499 122.548L197.874 143.727L137 188.351ZM156.185 63.3834L201.632 125.374L92.3055 104.062C106.069 93.1941 128.789 76.878 156.185 63.3834ZM228.731 130.657L173.632 55.5005C190.128 48.7219 207.833 43.3873 225.984 41.0146L302.206 144.976L228.731 130.657ZM222.901 148.605L300.586 163.746L200.883 236.827C182.081 228.144 165.16 215.66 150.354 201.783L222.901 148.605ZM477.058 331.512C443.291 349.502 426.756 363.633 418.912 380.87C410.487 399.379 413.574 419.247 417.847 446.743C420.372 462.958 401.101 493.151 375.853 503.965C366.51 507.965 359.857 507.492 356.067 502.556C348.625 492.87 348.828 463.555 348.988 440.004C349.211 407.418 349.406 379.278 335.962 367.317C331.127 363.016 324.941 361.198 318.069 362.041C312.181 362.774 306.206 363.727 300.434 364.648C266.003 370.134 244.337 372.332 233.113 349.256C214.928 311.883 251.74 284.199 268.411 274.033C271.806 271.965 274.955 269.526 277.882 266.81C318.175 261.994 356.247 244.706 390.175 223.052C430.854 247.356 462.081 285.818 477.058 331.512V331.512Z"/>
</mask>
<path d="M650.9 95.4965C641.663 66.4468 629.144 45.6468 628.614 44.7727C626.561 41.3893 622.335 39.6293 618.506 40.5073C617.515 40.7336 593.874 46.2517 566.604 59.8712C529.788 78.2517 504.071 102.79 492.223 130.821C482.362 154.166 480.945 182.704 487.942 214.232C473.039 197.588 456.274 183.028 437.999 170.771C432.419 159.746 417.663 132.605 394.596 104.238C386.998 94.8995 372.383 106.618 380.06 116.051C395.603 135.169 407.302 153.971 414.619 166.888L329.301 150.256L248.239 39.6878C256.11 39.7971 264.009 40.558 271.868 42.0995C296.785 46.9775 321.398 59.6683 345.035 79.8126C354.296 87.7073 366.323 73.3385 357.183 65.5531C331.072 43.3014 303.58 29.2215 275.466 23.7151C232.551 15.3171 182.499 26.3415 130.706 55.6097C92.1026 77.4244 66.288 101.385 65.2109 102.392C61.7572 105.619 61.207 111.481 64.0987 115.251C67.8841 123.017 82.2294 151.032 106.108 181.194C120.185 198.977 135.029 214.197 150.385 226.704C146.023 230.361 141.777 234.185 137.667 238.209C115.72 259.676 98.9162 284.999 87.8841 312.683C78.1319 337.143 72.887 363.457 72.5943 390.579C72.1104 434.93 84.9611 477.705 109.765 514.287C133.995 550.017 167.868 577.451 207.72 593.619C218.873 598.134 225.925 580.788 214.764 576.261C200.325 570.404 186.76 562.899 174.249 553.974C175.849 545.1 179.56 513.163 158.346 480.101C155.377 475.477 164.255 457.315 169.554 446.466C175.025 435.286 180.672 423.727 183.31 412.843C186.112 401.28 182.959 391.574 174.198 384.765C167.767 379.766 159.349 377.178 151.931 374.895C147.111 373.412 141.648 371.734 139.697 370.107C135.677 366.739 129.113 354.294 123.837 344.3C117.984 333.213 112.411 322.661 106.721 316.164C119.525 285.756 140.091 258.849 165.847 238.263C189.375 254.291 216.227 265.35 244.77 267.59C211.669 293.237 200.961 325.99 216.266 357.452C234.14 394.189 270.928 388.32 303.384 383.149C309 382.252 314.811 381.327 320.376 380.632C322.463 380.371 323.092 380.94 323.513 381.311C330.62 387.633 330.409 417.826 330.257 439.875C330.05 470.372 329.855 499.18 341.215 513.97C347.01 521.51 355.17 525.366 364.735 525.366C370.467 525.366 376.696 523.984 383.228 521.182C411.478 509.085 440.844 472.675 436.364 443.867C432.45 418.681 429.859 402.041 435.966 388.628C441.613 376.214 455.263 364.722 482.147 350.056C485.367 364.554 486.99 379.637 486.822 395.11C486.249 447.926 465.137 497.358 427.38 534.294C385.183 575.574 325.878 595.961 267.213 589.494C255.26 588.199 253.195 606.798 265.164 608.117C329.379 615.188 394.303 592.866 440.477 547.687C481.816 507.247 504.926 453.135 505.554 395.309C506.389 318.638 467.049 250.712 407.162 211.582C419.537 202.759 428.754 195.13 433.866 190.7C455.7 206.365 475.068 225.662 491.181 248.144C529.862 302.127 545.203 367.933 534.385 433.455C512.044 568.71 383.837 660.585 248.559 638.236C183.033 627.414 125.648 591.73 86.967 537.748C48.2821 483.769 32.9416 417.955 43.7631 352.437C45.7065 340.648 27.2363 337.553 25.2851 349.385C13.6441 419.844 30.1475 490.614 71.7358 548.663C113.332 606.704 175.049 645.081 245.507 656.722C260.243 659.153 274.994 660.355 289.644 660.355C345.02 660.355 398.889 643.161 444.793 610.267C502.85 568.671 541.23 506.966 552.863 436.507C561.39 384.878 554.791 333.081 534.296 286.244C543.755 283.454 559.853 278.037 577.484 269.233C614.292 250.853 640.013 226.314 651.856 198.283C663.712 170.244 663.38 134.7 650.9 95.4965V95.4965ZM107.267 353.042C114.237 366.255 120.828 378.743 127.677 384.472C132.528 388.527 139.279 390.603 146.425 392.8C164.731 398.427 166.858 401.19 165.102 408.429C162.947 417.331 157.749 427.961 152.727 438.236C143.053 458.029 133.917 476.714 142.577 490.216C154.858 509.354 156.961 528.195 156.75 539.914C100.961 489.608 78.245 410.15 99.0255 337.932C101.781 342.653 104.676 348.14 107.267 353.042V353.042ZM560.438 168.976L533.819 104.468C546.772 92.3551 561.8 83.239 574.6 76.8195C585.503 71.3483 595.876 67.2585 604.196 64.359L560.438 168.976ZM621.464 71.6214C625.183 79.6136 629.496 89.92 633.179 101.569C637.218 114.353 640.926 130.197 641.663 146.724L579.283 172.46L621.464 71.6214ZM509.476 138.115C512.239 131.582 515.81 125.526 519.935 119.934L550.237 193.358L523.045 258.38C519.224 250.275 514.725 239.629 510.908 227.535C503.248 203.321 496.785 168.144 509.476 138.115ZM569.484 252.285C558.99 257.553 548.977 261.541 540.82 264.417L569.039 196.956L640.867 167.317C639.825 175.364 637.839 183.34 634.604 190.989C621.917 221.018 592.188 240.901 569.484 252.285ZM231.74 246.954C228.43 246.306 225.164 245.514 221.944 244.613L325.609 168.624L410.967 185.26C379.872 209.76 304.2 261.151 231.74 246.954V246.954ZM137 188.351C114.83 164.456 98.5806 138.907 89.2499 122.548L197.874 143.727L137 188.351ZM156.185 63.3834L201.632 125.374L92.3055 104.062C106.069 93.1941 128.789 76.878 156.185 63.3834ZM228.731 130.657L173.632 55.5005C190.128 48.7219 207.833 43.3873 225.984 41.0146L302.206 144.976L228.731 130.657ZM222.901 148.605L300.586 163.746L200.883 236.827C182.081 228.144 165.16 215.66 150.354 201.783L222.901 148.605ZM477.058 331.512C443.291 349.502 426.756 363.633 418.912 380.87C410.487 399.379 413.574 419.247 417.847 446.743C420.372 462.958 401.101 493.151 375.853 503.965C366.51 507.965 359.857 507.492 356.067 502.556C348.625 492.87 348.828 463.555 348.988 440.004C349.211 407.418 349.406 379.278 335.962 367.317C331.127 363.016 324.941 361.198 318.069 362.041C312.181 362.774 306.206 363.727 300.434 364.648C266.003 370.134 244.337 372.332 233.113 349.256C214.928 311.883 251.74 284.199 268.411 274.033C271.806 271.965 274.955 269.526 277.882 266.81C318.175 261.994 356.247 244.706 390.175 223.052C430.854 247.356 462.081 285.818 477.058 331.512V331.512Z" fill="black"/>
<path d="M650.9 95.4965C641.663 66.4468 629.144 45.6468 628.614 44.7727C626.561 41.3893 622.335 39.6293 618.506 40.5073C617.515 40.7336 593.874 46.2517 566.604 59.8712C529.788 78.2517 504.071 102.79 492.223 130.821C482.362 154.166 480.945 182.704 487.942 214.232C473.039 197.588 456.274 183.028 437.999 170.771C432.419 159.746 417.663 132.605 394.596 104.238C386.998 94.8995 372.383 106.618 380.06 116.051C395.603 135.169 407.302 153.971 414.619 166.888L329.301 150.256L248.239 39.6878C256.11 39.7971 264.009 40.558 271.868 42.0995C296.785 46.9775 321.398 59.6683 345.035 79.8126C354.296 87.7073 366.323 73.3385 357.183 65.5531C331.072 43.3014 303.58 29.2215 275.466 23.7151C232.551 15.3171 182.499 26.3415 130.706 55.6097C92.1026 77.4244 66.288 101.385 65.2109 102.392C61.7572 105.619 61.207 111.481 64.0987 115.251C67.8841 123.017 82.2294 151.032 106.108 181.194C120.185 198.977 135.029 214.197 150.385 226.704C146.023 230.361 141.777 234.185 137.667 238.209C115.72 259.676 98.9162 284.999 87.8841 312.683C78.1319 337.143 72.887 363.457 72.5943 390.579C72.1104 434.93 84.9611 477.705 109.765 514.287C133.995 550.017 167.868 577.451 207.72 593.619C218.873 598.134 225.925 580.788 214.764 576.261C200.325 570.404 186.76 562.899 174.249 553.974C175.849 545.1 179.56 513.163 158.346 480.101C155.377 475.477 164.255 457.315 169.554 446.466C175.025 435.286 180.672 423.727 183.31 412.843C186.112 401.28 182.959 391.574 174.198 384.765C167.767 379.766 159.349 377.178 151.931 374.895C147.111 373.412 141.648 371.734 139.697 370.107C135.677 366.739 129.113 354.294 123.837 344.3C117.984 333.213 112.411 322.661 106.721 316.164C119.525 285.756 140.091 258.849 165.847 238.263C189.375 254.291 216.227 265.35 244.77 267.59C211.669 293.237 200.961 325.99 216.266 357.452C234.14 394.189 270.928 388.32 303.384 383.149C309 382.252 314.811 381.327 320.376 380.632C322.463 380.371 323.092 380.94 323.513 381.311C330.62 387.633 330.409 417.826 330.257 439.875C330.05 470.372 329.855 499.18 341.215 513.97C347.01 521.51 355.17 525.366 364.735 525.366C370.467 525.366 376.696 523.984 383.228 521.182C411.478 509.085 440.844 472.675 436.364 443.867C432.45 418.681 429.859 402.041 435.966 388.628C441.613 376.214 455.263 364.722 482.147 350.056C485.367 364.554 486.99 379.637 486.822 395.11C486.249 447.926 465.137 497.358 427.38 534.294C385.183 575.574 325.878 595.961 267.213 589.494C255.26 588.199 253.195 606.798 265.164 608.117C329.379 615.188 394.303 592.866 440.477 547.687C481.816 507.247 504.926 453.135 505.554 395.309C506.389 318.638 467.049 250.712 407.162 211.582C419.537 202.759 428.754 195.13 433.866 190.7C455.7 206.365 475.068 225.662 491.181 248.144C529.862 302.127 545.203 367.933 534.385 433.455C512.044 568.71 383.837 660.585 248.559 638.236C183.033 627.414 125.648 591.73 86.967 537.748C48.2821 483.769 32.9416 417.955 43.7631 352.437C45.7065 340.648 27.2363 337.553 25.2851 349.385C13.6441 419.844 30.1475 490.614 71.7358 548.663C113.332 606.704 175.049 645.081 245.507 656.722C260.243 659.153 274.994 660.355 289.644 660.355C345.02 660.355 398.889 643.161 444.793 610.267C502.85 568.671 541.23 506.966 552.863 436.507C561.39 384.878 554.791 333.081 534.296 286.244C543.755 283.454 559.853 278.037 577.484 269.233C614.292 250.853 640.013 226.314 651.856 198.283C663.712 170.244 663.38 134.7 650.9 95.4965V95.4965ZM107.267 353.042C114.237 366.255 120.828 378.743 127.677 384.472C132.528 388.527 139.279 390.603 146.425 392.8C164.731 398.427 166.858 401.19 165.102 408.429C162.947 417.331 157.749 427.961 152.727 438.236C143.053 458.029 133.917 476.714 142.577 490.216C154.858 509.354 156.961 528.195 156.75 539.914C100.961 489.608 78.245 410.15 99.0255 337.932C101.781 342.653 104.676 348.14 107.267 353.042V353.042ZM560.438 168.976L533.819 104.468C546.772 92.3551 561.8 83.239 574.6 76.8195C585.503 71.3483 595.876 67.2585 604.196 64.359L560.438 168.976ZM621.464 71.6214C625.183 79.6136 629.496 89.92 633.179 101.569C637.218 114.353 640.926 130.197 641.663 146.724L579.283 172.46L621.464 71.6214ZM509.476 138.115C512.239 131.582 515.81 125.526 519.935 119.934L550.237 193.358L523.045 258.38C519.224 250.275 514.725 239.629 510.908 227.535C503.248 203.321 496.785 168.144 509.476 138.115ZM569.484 252.285C558.99 257.553 548.977 261.541 540.82 264.417L569.039 196.956L640.867 167.317C639.825 175.364 637.839 183.34 634.604 190.989C621.917 221.018 592.188 240.901 569.484 252.285ZM231.74 246.954C228.43 246.306 225.164 245.514 221.944 244.613L325.609 168.624L410.967 185.26C379.872 209.76 304.2 261.151 231.74 246.954V246.954ZM137 188.351C114.83 164.456 98.5806 138.907 89.2499 122.548L197.874 143.727L137 188.351ZM156.185 63.3834L201.632 125.374L92.3055 104.062C106.069 93.1941 128.789 76.878 156.185 63.3834ZM228.731 130.657L173.632 55.5005C190.128 48.7219 207.833 43.3873 225.984 41.0146L302.206 144.976L228.731 130.657ZM222.901 148.605L300.586 163.746L200.883 236.827C182.081 228.144 165.16 215.66 150.354 201.783L222.901 148.605ZM477.058 331.512C443.291 349.502 426.756 363.633 418.912 380.87C410.487 399.379 413.574 419.247 417.847 446.743C420.372 462.958 401.101 493.151 375.853 503.965C366.51 507.965 359.857 507.492 356.067 502.556C348.625 492.87 348.828 463.555 348.988 440.004C349.211 407.418 349.406 379.278 335.962 367.317C331.127 363.016 324.941 361.198 318.069 362.041C312.181 362.774 306.206 363.727 300.434 364.648C266.003 370.134 244.337 372.332 233.113 349.256C214.928 311.883 251.74 284.199 268.411 274.033C271.806 271.965 274.955 269.526 277.882 266.81C318.175 261.994 356.247 244.706 390.175 223.052C430.854 247.356 462.081 285.818 477.058 331.512V331.512Z" stroke="black" stroke-width="18" mask="url(#path-1-outside-1)"/>
</svg>
