<svg width="513" height="513" viewBox="0 0 513 513" xmlns="http://www.w3.org/2000/svg">
    <path d="M401.545 0.587891C361.59 4.78486 329.526 16.1225 304.502 34.8982C272.631 58.8127 258.357 100.331 269.993 135.267C271.548 139.936 273.207 143.757 273.677 143.757C274.148 143.757 277.347 140.011 280.785 135.434C294.398 117.309 317.801 95.4718 337.756 82.2719C362.983 65.585 372.918 62.0969 384.383 65.9051C400.511 71.2597 407.734 91.2759 398.776 105.787C396.318 109.768 393.66 112.12 387.541 115.725C366.355 128.209 354.677 136.868 341.807 149.639C326.706 164.624 315.497 178.873 317.726 180.25C320.859 182.186 336.585 183.772 346.612 183.163C360.065 182.347 368.612 180.109 381.078 174.138C389.964 169.883 392.579 167.925 402.109 158.397C423.52 136.99 432.852 117.32 445.065 67.8564C452.032 39.6407 455.795 26.8511 461.113 13.3141C463.194 8.02065 464.539 3.35759 464.103 2.95271C461.757 0.772609 416.185 -0.949994 401.545 0.587891ZM48.1438 37.0933C40.9318 37.8344 39.2916 38.4991 39.8877 40.4387C40.1971 41.446 42.2208 47.1025 44.3842 53.0092C46.5487 58.9158 51.3867 75.8809 55.1366 90.7078C65.1382 130.257 71.5553 146.088 84.4174 162.943C91.5649 172.31 103.299 182.498 111.298 186.281C127.29 193.844 154.226 193.975 174.126 186.585C180.213 184.325 180.3 184.235 178.422 182.14C170.766 173.59 141.609 152.215 126.714 144.229C108.651 134.545 104.789 113.935 118.465 100.204C124.817 93.8254 130.751 91.7097 140.333 92.4024C145.513 92.7772 148.465 93.8877 156.744 98.5798C174.462 108.619 199.974 126.775 206.482 133.976C207.607 135.221 208.936 136.24 209.436 136.24C211.168 136.24 210.362 119.472 208.229 111.134C204.789 97.6873 198.37 86.6354 187.815 75.9883C179.182 67.2797 177.699 66.2809 162.006 58.5969C138.076 46.8791 119.64 41.2087 95.0839 38.0126C83.731 36.5349 58.3978 36.0387 48.1438 37.0933ZM359.997 89.6521C314.411 116.643 280.794 156.569 262.447 205.509C258.74 215.397 253.517 234.199 251.784 243.902L251.064 247.93H260.539H270.014L272.977 235.311C285.612 181.484 320.727 134.314 369.32 105.895C383.659 97.509 384.788 96.4834 384.788 91.8515C384.788 86.5022 380.985 82.5426 375.846 82.5426C373.036 82.5426 368.78 84.452 359.997 89.6521ZM132.848 111.019C129.169 113.018 127.376 118.001 128.832 122.176C129.671 124.585 132.663 126.92 141.935 132.409C179.204 154.47 210.855 185.496 230.514 219.243C233.194 223.843 235.741 227.826 236.174 228.093C236.608 228.361 237.3 226.784 237.711 224.588C238.123 222.392 239.651 216.827 241.106 212.221L243.752 203.848L236.99 194.475C212.288 160.242 177.187 129.111 144.582 112.518C137.625 108.979 136.8 108.873 132.848 111.019ZM3.8483 266.793C-0.197019 268.988 -0.741623 272.305 0.7794 285.459C3.69684 310.695 11.3761 338.573 21.7676 361.653C53.9594 433.156 118.215 486.773 194.231 505.56C213.539 510.331 226.603 512.103 247.939 512.844C298.788 514.609 348.755 501.336 391.845 474.616C402.436 468.049 416.584 457.634 416.584 456.406C416.584 455.895 413.429 448.371 409.573 439.685C405.716 430.999 402.032 421.425 401.385 418.407C399.862 411.306 400.722 402.596 403.742 394.523C405.932 388.671 408.355 385.856 430.121 363.866C446.84 346.976 454.745 338.206 456.259 334.87C458.281 330.412 458.431 327.874 458.453 297.6L458.476 265.113H394.075H329.674L329.026 269.14C320.641 321.299 292.314 385.539 253.785 439.778C238.413 461.414 231.327 469.304 223.805 473.15C209.273 480.581 190.395 472.935 185.13 457.486C183.734 453.39 183.488 443.588 183.485 391.915C183.482 333.589 183.398 331.023 181.388 327.728C178.167 322.446 175.242 321.17 163.617 319.979C147.369 318.316 136.436 314.291 123.746 305.302C112.318 297.206 101.9 283.543 96.9927 270.214L95.1151 265.113L50.9517 265.156C13.9852 265.192 6.30922 265.459 3.8483 266.793ZM114.742 265.685C114.742 267.922 120.966 277.689 125.695 282.871C136.903 295.158 149.09 300.777 168.488 302.602C180.802 303.761 187.821 306.872 193.753 313.8C201.238 322.542 201.082 321.044 201.716 390.467L202.287 452.996L204.709 455.416C206.405 457.111 208.404 457.837 211.378 457.837C216.451 457.837 219.185 455.517 229.042 442.85C260.509 402.416 290.51 344.82 303.386 300.121C307.246 286.718 311.315 269.588 311.315 266.735C311.315 265.3 299.985 265.113 213.029 265.113C158.971 265.113 114.742 265.371 114.742 265.685ZM476.729 294.915C476.724 311.305 476.214 327.843 475.593 331.663C473.618 343.837 470.991 347.478 446.089 372.567C430.117 388.658 422.45 397.172 420.945 400.49C417.25 408.633 417.951 413.952 424.781 429.561C428.107 437.166 431.452 443.387 432.214 443.387C433.751 443.387 448.841 427.325 458.07 415.866C487.168 379.737 507.266 331.126 512.3 284.703C514.319 266.086 513.27 265.113 491.188 265.113H476.737L476.729 294.915Z" />
</svg>