<svg width="235" height="231" viewBox="0 0 235 231" fill="none" xmlns="http://www.w3.org/2000/svg">
<path d="M20.4698 158.291C20.867 158.689 21.0605 160.932 21.0605 165.144C21.0605 180.556 25.9921 192.497 36.4397 202.38C44.7785 210.269 56.4444 215.046 69.0528 215.736C75.0895 216.067 75.6305 216.216 75.9913 217.658C76.5376 219.839 75.5423 220.358 70.8022 220.358C58.651 220.358 45.194 215.663 35.8392 208.161C27.4107 201.401 20.9109 191.135 18.1101 180.159C16.0851 172.222 15.7302 160.152 17.4702 158.408C18.3316 157.544 19.6729 157.492 20.4698 158.291Z" fill="#FF0000"/>
<path fill-rule="evenodd" clip-rule="evenodd" d="M92.8068 11.0452C87.3012 5.37972 83.1522 1.51707 82.0969 1.07352C79.8966 0.149425 76.1187 0.114396 74.0824 1.00001C73.2111 1.37892 69.9531 4.26666 66.8422 7.41737L61.1865 13.146L73.0787 25.0655L84.9705 36.9855L93.3822 28.6395L101.793 20.293L92.8068 11.0452ZM81.3531 40.2768L69.5755 28.4643L57.798 16.6514L55.5495 18.5445C51.339 22.0894 46.6347 27.3705 45.601 29.7131C44.4497 32.3211 44.5526 35.6815 45.8585 38.1513C46.2606 38.9121 50.5927 43.5296 55.485 48.4121L64.3801 57.2894L72.8666 48.7831L81.3531 40.2768ZM124.404 44.8188C123.85 42.7822 122.646 41.3533 114.67 33.2615L105.568 24.0279L99.3701 29.8912C95.961 33.1159 92.1226 36.8315 90.8403 38.1484L88.5086 40.5422L100.314 52.367L112.118 64.1913L117.569 58.7705C120.568 55.7886 123.319 52.7864 123.682 52.0986C124.812 49.9637 125.078 47.2892 124.404 44.8188ZM195.552 47.933C192.871 42.3031 187.023 38.0142 181.139 37.3619C178.149 37.0309 173.75 37.4275 172.473 38.1434C171.861 38.4873 174.218 41.0953 183.958 50.8523L196.213 63.1285L196.799 60.9527C197.768 57.3575 197.196 51.3867 195.552 47.933ZM115.153 103.196C109.855 99.7608 103.207 97.2692 96.8637 96.3407C92.2658 95.6682 84.3897 96.6057 78.4051 98.5382C69.1749 101.519 58.1844 109.209 59.2343 111.951C59.3963 112.374 61.8933 114.458 64.7832 116.581C72.4059 122.181 81.0494 129.482 87.4016 135.687L92.9525 141.109L90.6011 143.523C89.308 144.851 86.9803 147.048 85.4292 148.405L82.6083 150.872L81.235 149.892C78.7605 148.126 74.9694 147.187 71.3594 147.446C64.0685 147.969 58.7947 152.292 56.7195 159.448C54.596 166.769 58.4596 174.889 65.7864 178.504C69.2344 180.205 75.4183 180.132 79.2198 178.346C82.5054 176.802 85.5292 173.842 87.1117 170.622C88.7419 167.305 88.7597 159.955 87.1456 156.717L86.0416 154.502L91.0559 149.459C95.2197 145.27 96.1928 144.517 96.7953 145.013C99.9121 147.582 113.27 163.607 118.989 171.637C121.422 175.054 122.315 175.954 123.271 175.954C126.414 175.954 134.348 163.616 136.491 155.398C136.904 153.814 137.482 150.48 137.777 147.988C139.004 137.604 135.449 124.792 128.97 116.255C125.709 111.957 119.251 105.854 115.153 103.196ZM203 122.024C194.785 113.434 192.746 111.673 190.011 110.804C188.303 110.261 185.32 110.63 183.321 111.632C181.619 112.485 171.19 122.599 171.19 123.397C171.19 123.67 176.434 129.154 182.844 135.583L194.497 147.271L202.949 139.041L211.4 130.81L203 122.024ZM190.954 151.12L178.986 139.117L167.018 127.114L161.708 132.415C155.944 138.17 154.449 140.544 154.465 143.917C154.484 147.678 155.839 149.571 165.138 158.832L173.955 167.614L182.454 159.367L190.954 151.12ZM233.491 153.752C233.002 152.802 228.706 148.085 223.944 143.27L215.286 134.515L213.543 136.105C212.584 136.98 208.767 140.682 205.061 144.331L198.323 150.965L209.678 162.719C215.923 169.184 221.285 174.473 221.593 174.473C222.47 174.473 232.518 164.065 233.5 162.139C234.642 159.9 234.638 155.977 233.491 153.752ZM217.908 178.667L206.294 166.68L194.68 154.693L186.75 162.463C182.388 166.737 178.492 170.524 178.093 170.88C177.47 171.433 178.63 172.8 186.215 180.452C195.545 189.864 197.426 191.219 201.184 191.237C204.55 191.254 206.921 189.753 212.638 183.984L217.908 178.667Z" fill="#14162B"/>
<path d="M165.602 40.034C167.482 40.9724 171.272 44.5632 181.23 54.8363C189.519 63.3881 194.658 69.0752 195.138 70.2277C196.26 72.9191 196.119 77.177 194.821 79.7914C194.1 81.2429 188.357 87.378 177.541 98.2521L161.341 114.538L167.25 120.446C170.5 123.696 173.159 126.741 173.159 127.213C173.159 128.489 170.986 129.769 169.87 129.151C169.378 128.878 166.542 126.197 163.568 123.194L158.16 117.732L149.939 125.961C141.851 134.057 141.714 134.167 141.411 132.747C140.582 128.862 137.517 121.119 135.405 117.573C132.738 113.099 125.338 105.03 120.59 101.419C116.97 98.667 110.081 95.0293 106.216 93.8299C104.727 93.3676 103.189 92.8861 102.798 92.7598C102.33 92.6088 104.775 89.8306 109.93 84.6561L117.775 76.7823L113.237 72.2343L108.699 67.6859L102.644 73.6863C99.3135 76.9865 95.9718 79.9216 95.2177 80.2093C93.4511 80.8822 89.4434 80.8802 87.6664 80.2053C86.1986 79.6478 68.3145 62.1354 68.3145 61.2552C68.3145 60.9715 72.0805 56.9692 76.6828 52.3621L85.0517 43.985L95.9437 54.8344C101.935 60.8013 106.677 65.3966 106.484 65.0453C106.006 64.1814 107.507 61.9834 108.573 61.9834C109.045 61.9834 111.956 64.5208 115.041 67.6222L120.651 73.2605L137.184 56.9524C147.812 46.4687 154.42 40.3177 155.685 39.7301C158.579 38.3867 162.548 38.5085 165.602 40.034Z" fill="#14162B"/>
<path d="M38.3914 156.342C39.0106 156.83 39.2247 158.3 39.4147 163.372C39.7558 172.463 41.5082 177.7 46.3837 184.201C51.8962 191.552 61.9017 196.476 73.2786 197.437C77.8051 197.819 78.6513 198.204 78.6513 199.882C78.6513 201.901 77.5501 202.277 72.6057 201.946C50.3703 200.458 34.8616 184.559 34.7627 163.149C34.7386 157.891 34.8124 157.436 35.8288 156.612C37.1254 155.559 37.3656 155.534 38.3914 156.342Z" fill="#FF0000"/>
<path fill-rule="evenodd" clip-rule="evenodd" d="M16.3343 209.891C16.1283 209.581 15.5655 209.326 15.1657 209.362C14.895 209.387 14.8033 209.422 14.5481 209.6C14.2522 209.806 14.2232 209.86 12.2147 213.922L10.1809 218.035L6.06419 216.008C1.99884 214.006 1.94299 213.981 1.58299 213.998C1.0549 214.022 0.739594 214.231 0.502023 214.712C0.264528 215.194 0.290993 215.571 0.592825 216.006C0.798584 216.302 0.85247 216.331 4.91346 218.341L9.0258 220.377L7.00081 224.495C5.00114 228.562 4.97607 228.617 4.99291 228.978C5.01759 229.506 5.22611 229.821 5.70768 230.059C6.18929 230.297 6.56639 230.271 7.00041 229.969C7.2963 229.763 7.32536 229.709 9.33397 225.647L11.3679 221.533L15.4469 223.544C18.2503 224.926 19.6017 225.559 19.7686 225.571C20.2713 225.605 20.8106 225.319 21.0463 224.894C21.2886 224.457 21.1798 223.765 20.8138 223.414C20.7135 223.317 20.1278 222.993 19.5122 222.693C18.8967 222.393 17.0731 221.48 15.4598 220.665L12.5264 219.184L14.5491 215.07C16.4957 211.111 16.5712 210.943 16.5575 210.614C16.5414 210.231 16.5261 210.181 16.3343 209.891Z" fill="#FF0000"/>
</svg>
