<svg width="92" height="130" viewBox="0 0 92 130" xmlns="http://www.w3.org/2000/svg">
    <path
        d="M22.794 0.213751C16.1959 1.32924 10.7388 6.21422 8.70376 12.8265L8.21 14.4305L8.15172 50.0237L8.09323 85.617L6.85831 86.9145C0.520618 93.5728 -1.64588 103.547 1.29018 112.548C4.13935 121.283 11.6272 127.844 20.8739 129.709C22.2938 129.995 23.4361 130.047 26.5308 129.965C29.8844 129.875 30.6808 129.785 32.4262 129.292C37.1067 127.972 40.9645 125.625 44.4458 121.977C46.2923 120.043 47.4531 118.333 48.7839 115.586C50.8866 111.246 51.7131 106.739 51.255 102.113C50.6558 96.0606 48.3102 90.9104 44.1437 86.4981L43.333 85.6394L43.2736 50.2489L43.2143 14.8582L42.7506 13.2275C41.4262 8.56988 38.5438 4.75548 34.6012 2.44345C31.1462 0.417344 26.6322 -0.435099 22.794 0.213751ZM28.4189 8.52582C30.1525 9.12335 30.8915 9.5547 32.0718 10.6574C33.321 11.8246 34.0163 12.8661 34.6463 14.5147L35.1046 15.7136L35.2113 52.6166L35.318 89.5195L36.8802 90.8666C40.7137 94.1718 42.7515 98.1671 43.2164 103.289C43.7087 108.711 40.8781 115.036 36.4987 118.3C32.6665 121.156 27.9286 122.487 23.6327 121.914C17.1036 121.044 11.7519 116.923 9.29954 110.876C7.2385 105.795 7.90709 99.3692 10.9781 94.7415C11.8795 93.3829 15.5937 89.602 16.0266 89.602C16.1314 89.602 16.2125 73.6188 16.2125 52.9641C16.2125 13.189 16.1476 15.5026 17.3292 13.1473C19.2799 9.25893 24.3797 7.1336 28.4189 8.52582ZM69.649 11.4412C69.1587 11.7356 68.5343 12.3362 68.2615 12.7758C67.7735 13.562 67.7643 13.6865 67.7009 20.3651L67.6364 27.1551H61.0215C54.8063 27.1551 54.3554 27.1812 53.5613 27.5871C51.2885 28.7488 50.7824 31.8964 52.545 33.9077C53.6333 35.1496 54.4957 35.2818 61.5069 35.2818H67.6586L67.6599 41.5372C67.6606 45.4412 67.7496 48.1123 67.8967 48.6431C68.3294 50.204 70.1567 51.5297 71.8815 51.5338C72.5535 51.5355 73.8469 50.9681 74.4615 50.4021C74.7428 50.1431 75.1503 49.5462 75.367 49.0757C75.7222 48.3047 75.7615 47.5834 75.7658 41.7647L75.7705 35.3094L82.4414 35.242C89.9177 35.1667 89.8703 35.1759 91.2015 33.5258C92.6933 31.677 92.0119 28.6829 89.8477 27.5768C89.079 27.184 88.5701 27.1551 82.3966 27.1551H75.7705V20.6256C75.7705 13.7639 75.6992 13.1698 74.7484 12.1165C73.5877 10.8308 71.1937 10.5136 69.649 11.4412ZM23.7815 19.4147C22.8551 19.9981 22.0283 21.052 21.7721 21.9757C21.6246 22.5082 21.5512 34.6124 21.5506 58.5954L21.5493 94.4199L20.4602 94.9378C18.2433 95.9924 15.9519 98.9351 15.2284 101.657C14.7951 103.288 14.8525 105.981 15.3555 107.613C16.7291 112.068 21.0559 115.265 25.7119 115.265C31.6009 115.265 36.4921 110.275 36.4921 104.267C36.4921 100.693 34.0752 96.6389 30.9485 94.9693L29.6611 94.2819V58.1438C29.6611 22.4834 29.6556 21.9945 29.2361 21.1709C28.537 19.7981 27.5006 19.1583 25.8421 19.0759C24.7357 19.0208 24.2909 19.0939 23.7815 19.4147Z"
    />
</svg>