<svg width="100" height="81" viewBox="0 0 100 81" xmlns="http://www.w3.org/2000/svg">
    <path
        d="M3.24629 0.255942C2.2572 0.567494 0.570219 2.31315 0.266922 3.33904C-0.088974 4.54295 -0.088974 75.9989 0.266922 77.2028C0.593999 78.3091 2.26345 79.9774 3.37043 80.3042C4.57717 80.6605 95.4237 80.6605 96.6305 80.3042C97.7375 79.9774 99.4069 78.3091 99.734 77.2028C100.085 76.0152 100.09 4.53933 99.7394 3.36884C99.6076 2.92941 99.1078 2.13411 98.6286 1.60144C97.041 -0.163354 101.746 -0.00989349 49.9142 0.0132665C17.0198 0.027968 3.75111 0.0970448 3.24629 0.255942ZM32.2661 8.04837V12.8817H17.7562H3.24629V8.54278C3.24629 4.20421 3.24629 4.20361 3.74104 3.7094L4.23558 3.21498H18.251H32.2661V8.04837ZM64.5104 8.04837V12.8817H50.0004H35.4905V8.04837V3.21498H50.0004H64.5104V8.04837ZM96.2599 3.7094C96.7546 4.20361 96.7546 4.20421 96.7546 8.54278V12.8817H82.2447H67.7348V8.04837V3.21498H81.7499H95.7653L96.2599 3.7094ZM12.9196 8.04837V9.65949H17.7562H22.5928V8.04837V6.43724H17.7562H12.9196V8.04837ZM45.1638 8.04837V9.65949H50.0004H54.8371V8.04837V6.43724H50.0004H45.1638V8.04837ZM77.4081 8.04837V9.65949H82.2447H87.0813V8.04837V6.43724H82.2447H77.4081V8.04837ZM32.2661 32.2153V48.3266H17.7562H3.24629V32.2153V16.104H17.7562H32.2661V32.2153ZM64.5104 32.2153V48.3266H50.0004H35.4905V32.2153V16.104H50.0004H64.5104V32.2153ZM96.7546 32.2153V48.3266H82.2447H67.7348V32.2153V16.104H82.2447H96.7546V32.2153ZM15.8913 19.5321C13.7926 20.0619 11.7229 21.6483 10.7785 23.451C10.3467 24.2752 10.0156 24.6293 9.43054 24.8929C8.357 25.3767 7.13595 26.8277 6.772 28.0521C6.11623 30.259 6.58256 32.152 8.17382 33.7422C9.85173 35.419 10.1591 35.4698 18.1953 35.3973L24.9104 35.3368L25.918 34.8018C28.3918 33.4883 29.5403 30.8098 28.7678 28.1548C28.3831 26.8319 27.202 25.3978 26.0819 24.8929C25.4968 24.6293 25.1657 24.2752 24.7339 23.451C23.5166 21.1273 20.9601 19.5462 18.2094 19.4153C17.3505 19.3744 16.3074 19.427 15.8913 19.5321ZM48.3882 21.0381C48.3882 22.1717 48.3117 22.7499 48.1615 22.7499C48.0368 22.7499 47.3961 22.9916 46.7377 23.2868L45.5405 23.8237L43.5853 21.8771C42.5097 20.8065 41.5373 19.9304 41.4245 19.9304C41.1669 19.9304 39.3195 21.7893 39.3195 22.0483C39.3195 22.1534 40.1962 23.1185 41.2675 24.1933L43.2155 26.1472L42.6782 27.3436C42.3827 28.0016 42.1409 28.6418 42.1409 28.7665C42.1409 28.9165 41.5623 28.993 40.4279 28.993H38.715V30.6042V32.2153H40.4279C41.5623 32.2153 42.1409 32.2918 42.1409 32.4418C42.1409 32.5665 42.3827 33.2067 42.6782 33.8647L43.2155 35.0611L41.2201 37.0626L39.2248 39.0642L40.3798 40.2184L41.5347 41.3725L43.5377 39.3786L45.5405 37.3846L46.7377 37.9215C47.3961 38.2167 48.0368 38.4584 48.1615 38.4584C48.3117 38.4584 48.3882 39.0366 48.3882 40.1702V41.8821H50.0004H51.6127V40.1702C51.6127 39.0366 51.6892 38.4584 51.8394 38.4584C51.9641 38.4584 52.6048 38.2167 53.2632 37.9215L54.4604 37.3846L56.4632 39.3786L58.4662 41.3725L59.6211 40.2184L60.7761 39.0642L58.7808 37.0626L56.7854 35.0611L57.3227 33.8647C57.6182 33.2067 57.86 32.5665 57.86 32.4418C57.86 32.2918 58.4386 32.2153 59.573 32.2153H61.2859V30.6042V28.993H59.573C58.4386 28.993 57.86 28.9165 57.86 28.7665C57.86 28.6418 57.6182 28.0016 57.3227 27.3436L56.7854 26.1472L58.7334 24.1933C59.8047 23.1185 60.6814 22.1467 60.6814 22.034C60.6814 21.7766 58.8213 19.9304 58.5621 19.9304C58.4569 19.9304 57.4912 20.8065 56.4156 21.8771L54.4604 23.8237L53.2632 23.2868C52.6048 22.9916 51.9641 22.7499 51.8394 22.7499C51.6892 22.7499 51.6127 22.1717 51.6127 21.0381V19.3263H50.0004H48.3882V21.0381ZM75.8966 19.5011C74.0367 19.9894 72.4025 21.3313 71.5718 23.052C71.1865 23.8503 71.084 24.3927 71.0767 25.6701C71.065 27.7255 71.5962 28.9942 73.0295 30.3341C73.6661 30.929 73.9499 31.3197 73.7854 31.3745C73.2236 31.5618 72.0327 32.8303 71.5928 33.7108C70.9522 34.9929 70.83 36.5017 71.2502 37.9461C71.5158 38.8592 71.8248 39.3496 72.6591 40.1833C74.3408 41.8639 74.6447 41.9143 82.6838 41.8418L89.3989 41.7814L90.4065 41.2463C92.8803 39.9328 94.0288 37.2543 93.2563 34.5993C92.8716 33.2764 91.6904 31.8423 90.5704 31.3374C89.9829 31.0728 89.6542 30.7196 89.2151 29.8812C88.3405 28.2122 86.2138 26.531 84.4375 26.1045C83.9768 25.9939 83.8918 25.8433 83.7692 24.9211C83.6018 23.6586 82.6121 21.7168 81.7794 21.0165C80.2228 19.7077 77.6416 19.0427 75.8966 19.5011ZM19.1955 22.7823C20.7007 23.233 21.9457 24.6249 22.4973 26.4738C22.7174 27.2115 22.8089 27.2897 23.6152 27.4272C24.1897 27.5253 24.7048 27.7883 25.1049 28.1883C25.6216 28.7046 25.7165 28.9544 25.7165 29.7986C25.7165 30.6585 25.6248 30.8895 25.0577 31.4562L24.3989 32.1146H17.7562H11.1135L10.4547 31.4562C9.8876 30.8895 9.7959 30.6585 9.7959 29.7986C9.7959 28.9544 9.89082 28.7046 10.4075 28.1883C10.8076 27.7883 11.3227 27.5253 11.8972 27.4272C12.7035 27.2897 12.795 27.2115 13.0151 26.4738C13.396 25.1974 13.8661 24.4349 14.7093 23.7277C16.0396 22.6116 17.5571 22.2917 19.1955 22.7823ZM79.174 23.0866C79.964 23.6761 80.4277 24.3862 80.5617 25.2117C80.6736 25.9001 80.6413 25.9619 80.1031 26.0914C79.1587 26.3186 77.9762 26.9693 76.9375 27.833L75.9629 28.6432L75.4464 28.2577C73.5426 26.8373 73.9023 23.8374 76.0981 22.8216C76.9012 22.45 78.5062 22.5884 79.174 23.0866ZM51.4885 26.0157C52.5955 26.3425 54.265 28.0108 54.592 29.1171C55.1503 31.0053 54.7567 32.5107 53.3325 33.934C51.2936 35.9714 48.7073 35.9714 46.6684 33.934C44.6296 31.8965 44.6296 29.314 46.6684 27.2721C48.0821 25.8564 49.6049 25.4594 51.4885 26.0157ZM83.684 29.2268C85.1892 29.6776 86.4342 31.0694 86.9858 32.9183C87.2059 33.656 87.2974 33.7342 88.1037 33.8717C88.6782 33.9698 89.1933 34.2328 89.5934 34.6328C90.1101 35.1491 90.205 35.3989 90.205 36.2431C90.205 37.103 90.1133 37.334 89.5462 37.9008L88.8874 38.5591H82.2447H75.602L74.9432 37.9008C74.3761 37.334 74.2844 37.103 74.2844 36.2431C74.2844 35.3989 74.3793 35.1491 74.896 34.6328C75.2961 34.2328 75.8112 33.9698 76.3857 33.8717C77.192 33.7342 77.2835 33.656 77.5036 32.9183C77.8845 31.6419 78.3546 30.8795 79.1978 30.1722C80.5281 29.0561 82.0456 28.7363 83.684 29.2268ZM9.69514 41.8821V45.1043H11.3074H12.9196V41.8821V38.6598H11.3074H9.69514V41.8821ZM16.144 41.8821V45.1043H17.7562H19.3684V41.8821V38.6598H17.7562H16.144V41.8821ZM22.5928 41.8821V45.1043H24.2051H25.8173V41.8821V38.6598H24.2051H22.5928V41.8821ZM32.2661 64.4378V77.3269H18.251H4.23558L3.74104 76.8325L3.24629 76.3382V63.9434V51.5488H17.7562H32.2661V64.4378ZM64.5104 64.4378V77.3269H50.0004H35.4905V64.4378V51.5488H50.0004H64.5104V64.4378ZM96.7546 63.9434V76.3382L96.2599 76.8325L95.7653 77.3269H81.7499H67.7348V64.4378V51.5488H82.2447H96.7546V63.9434ZM26.312 55.2655C25.3122 56.2644 26.0206 57.9933 27.4295 57.9933C28.258 57.9933 29.0417 57.2101 29.0417 56.3822C29.0417 55.5543 28.258 54.7711 27.4295 54.7711C27.0369 54.7711 26.6238 54.9537 26.312 55.2655ZM58.5563 55.2655C58.2443 55.577 58.0615 55.9899 58.0615 56.3822C58.0615 56.7745 58.2443 57.1874 58.5563 57.4989C58.868 57.8107 59.2811 57.9933 59.6737 57.9933C60.0663 57.9933 60.4794 57.8107 60.7912 57.4989C61.1032 57.1874 61.2859 56.7745 61.2859 56.3822C61.2859 55.9899 61.1032 55.577 60.7912 55.2655C60.4794 54.9537 60.0663 54.7711 59.6737 54.7711C59.2811 54.7711 58.868 54.9537 58.5563 55.2655ZM90.8005 55.2655C90.4885 55.577 90.3058 55.9899 90.3058 56.3822C90.3058 56.7745 90.4885 57.1874 90.8005 57.4989C91.1123 57.8107 91.5254 57.9933 91.918 57.9933C92.3105 57.9933 92.7237 57.8107 93.0354 57.4989C93.3474 57.1874 93.5302 56.7745 93.5302 56.3822C93.5302 55.9899 93.3474 55.577 93.0354 55.2655C92.7237 54.9537 92.3105 54.7711 91.918 54.7711C91.5254 54.7711 91.1123 54.9537 90.8005 55.2655ZM9.69514 58.2566C8.70605 58.5681 7.01907 60.3138 6.71577 61.3396C6.58095 61.7956 6.47072 62.6791 6.47072 63.3032V64.4378H8.08293H9.69514V63.3211C9.69514 62.4038 9.78361 62.1158 10.1899 61.71C11.2435 60.6571 12.9196 61.4214 12.9196 62.9548C12.9196 63.6548 12.7025 63.9237 9.69514 66.9492L6.47072 70.1928V72.1487V74.1046H11.3074H16.144V72.4935V70.8824H13.2825H10.421L12.8535 68.4153C14.1914 67.0583 15.4413 65.6436 15.6311 65.271C16.1111 64.3291 16.252 62.6223 15.9408 61.5122C15.5815 60.2292 14.1898 58.7248 12.982 58.3135C11.917 57.9508 10.731 57.9303 9.69514 58.2566ZM19.3684 59.5867V61.2156H20.9806H22.5928V67.6601V74.1046H24.2125H25.8322L25.7743 67.0704C25.7189 60.3275 25.6994 60.0131 25.301 59.4804C24.3995 58.2745 23.9511 58.0995 21.5711 58.026L19.3684 57.9577V59.5867ZM38.715 59.5867V61.2156H40.3272H41.9394V62.8267V64.4378H40.3272H38.715V66.049V67.6601H40.3272H41.9394V69.2712V70.8824H40.3272H38.715V72.5112V74.1403L40.9176 74.072C43.2977 73.9985 43.7459 73.8237 44.6475 72.6177C45.0211 72.1181 45.0608 71.7941 45.0415 69.408C45.0149 66.1344 45.0149 65.9636 45.0415 62.69C45.0608 60.3039 45.0211 59.9799 44.6475 59.4802C43.7459 58.2743 43.2977 58.0995 40.9176 58.026L38.715 57.9577V59.5867ZM48.3882 59.5867V61.2156H50.0004H51.6127V67.6601V74.1046H53.2323H54.852L54.7942 67.0704C54.7387 60.3275 54.7192 60.0131 54.3208 59.4804C53.4193 58.2745 52.971 58.0995 50.5909 58.026L48.3882 57.9577V59.5867ZM74.1836 58.2566C73.1945 58.5681 71.5076 60.3138 71.2043 61.3396C71.0694 61.7956 70.9592 62.6791 70.9592 63.3032V64.4378H72.5714H74.1836V63.3211C74.1836 62.4038 74.2721 62.1158 74.6784 61.71C75.732 60.6571 77.4081 61.4214 77.4081 62.9548C77.4081 63.6548 77.191 63.9237 74.1836 66.9492L70.9592 70.1928V72.1487V74.1046H75.7958H80.6325V72.4935V70.8824H77.771H74.9095L77.342 68.4153C78.6799 67.0583 79.9298 65.6436 80.1196 65.271C80.5996 64.3291 80.7405 62.6223 80.4293 61.5122C80.07 60.2292 78.6783 58.7248 77.4705 58.3135C76.4055 57.9508 75.2195 57.9303 74.1836 58.2566ZM83.8569 59.5867V61.2156H85.4691H87.0813V62.8267V64.4378H85.4691H83.8569V66.049V67.6601H85.4691H87.0813V69.2712V70.8824H85.4691H83.8569V72.5112V74.1403L86.0596 74.072C88.4396 73.9985 88.8878 73.8237 89.7894 72.6177C90.1631 72.1181 90.2028 71.7941 90.1834 69.408C90.1715 67.9481 90.1619 66.4367 90.1619 66.049C90.1619 65.6613 90.1715 64.1499 90.1834 62.69C90.2028 60.3039 90.1631 59.9799 89.7894 59.4802C88.8878 58.2743 88.4396 58.0995 86.0596 58.026L83.8569 57.9577V59.5867Z"
    />
    <path
        d="M19.1955 22.7823C20.7007 23.233 21.9457 24.6249 22.4973 26.4738C22.7174 27.2115 22.8089 27.2897 23.6152 27.4272C24.1897 27.5253 24.7048 27.7883 25.1049 28.1883C25.6216 28.7046 25.7165 28.9544 25.7165 29.7986C25.7165 30.6585 25.6248 30.8895 25.0577 31.4562L24.3989 32.1146H17.7562H11.1135L10.4547 31.4562C9.8876 30.8895 9.7959 30.6585 9.7959 29.7986C9.7959 28.9544 9.89082 28.7046 10.4075 28.1883C10.8076 27.7883 11.3227 27.5253 11.8972 27.4272C12.7035 27.2897 12.795 27.2115 13.0151 26.4738C13.396 25.1974 13.8661 24.4349 14.7093 23.7277C16.0396 22.6116 17.5571 22.2917 19.1955 22.7823Z"
    />
    <path
        d="M51.4885 26.0157C52.5955 26.3425 54.265 28.0108 54.592 29.1171C55.1503 31.0053 54.7567 32.5107 53.3325 33.934C51.2936 35.9714 48.7073 35.9714 46.6684 33.934C44.6296 31.8965 44.6296 29.314 46.6684 27.2721C48.0821 25.8564 49.6049 25.4594 51.4885 26.0157Z"
    />
    <path
        d="M83.684 29.2268C85.1892 29.6776 86.4342 31.0694 86.9858 32.9183C87.2059 33.656 87.2974 33.7342 88.1037 33.8717C88.6782 33.9698 89.1933 34.2328 89.5934 34.6328C90.1101 35.1491 90.205 35.3989 90.205 36.2431C90.205 37.103 90.1133 37.334 89.5462 37.9008L88.8874 38.5591H82.2447H75.602L74.9432 37.9008C74.3761 37.334 74.2844 37.103 74.2844 36.2431C74.2844 35.3989 74.3793 35.1491 74.896 34.6328C75.2961 34.2328 75.8112 33.9698 76.3857 33.8717C77.192 33.7342 77.2835 33.656 77.5036 32.9183C77.8845 31.6419 78.3546 30.8795 79.1978 30.1722C80.5281 29.0561 82.0456 28.7363 83.684 29.2268Z"
    />
</svg>