<svg width="116" height="116" viewBox="0 0 116 116" xmlns="http://www.w3.org/2000/svg">
    <path
        d="M54.7563 0.470835C51.6317 1.63263 49.4552 4.03629 48.6187 7.24946C48.381 8.16243 48.3359 10.3307 48.3326 21.0617L48.3283 33.7909L35.4754 41.0429C3.39538 59.1433 2.87923 59.4398 2.00999 60.278C1.52525 60.7451 0.899693 61.6345 0.572794 62.3213C0.0558899 63.407 -0.00544848 63.7179 0.000348923 65.2211C0.00614633 66.7088 0.0749674 67.0504 0.592059 68.1546C1.36891 69.8131 2.47229 70.976 3.96802 71.7126C4.98668 72.2143 5.44318 72.3221 6.79603 72.3801L8.40939 72.4493L20.2847 68.8715C26.8162 66.9036 35.7509 64.2039 40.1397 62.8721C44.5284 61.5402 48.1682 60.4505 48.228 60.4505C48.2877 60.4505 48.3367 68.6006 48.3367 78.5619V96.6734L40.7827 102.043C36.628 104.996 32.9285 107.745 32.5616 108.151C30.4579 110.481 31.2832 114.178 34.2172 115.568C35.8846 116.358 36.0013 116.331 47.4564 112.557L57.9503 109.1L68.3828 112.557C79.8514 116.358 79.9786 116.387 81.7185 115.574C84.1925 114.419 85.2658 111.443 84.0542 109.097C83.5071 108.037 82.6209 107.327 76.1081 102.727C72.7139 100.33 69.4108 97.9822 68.7679 97.51L67.5991 96.6513V78.5509C67.5991 68.5957 67.6471 60.4505 67.7058 60.4505C67.7647 60.4505 76.784 63.1542 87.749 66.4589L107.685 72.4673L109.195 72.3878C115.061 72.0781 118.037 65.4574 114.435 60.733C113.709 59.7815 112.407 58.9792 103.038 53.7126C98.4095 51.1106 91.3824 47.1546 87.4224 44.9212C77.9377 39.5717 72.845 36.704 70.2172 35.2326C69.0344 34.5703 67.9615 33.9436 67.8328 33.84C67.6499 33.6925 67.5985 30.875 67.5968 20.9061C67.5949 10.457 67.5465 7.97947 67.3273 7.15592C66.4975 4.03704 64.2294 1.58904 61.1252 0.461854C59.4193 -0.157582 56.4355 -0.153279 54.7563 0.470835Z"
    />
</svg>