<svg width="174" height="233" viewBox="0 0 174 233" xmlns="http://www.w3.org/2000/svg">
    <path fill-rule="evenodd" clip-rule="evenodd"
        d="M76.3345 0.482149C57.0524 2.97807 39.2733 11.7361 25.5183 25.5133C11.6069 39.4468 2.96605 57.3914 0.614837 77.2299C-0.62288 87.6777 -0.013089 96.9504 2.63689 107.976C10.3842 140.206 35.6413 180.302 73.933 221.158C83.8084 231.695 85.2506 233 87.0229 233C88.7425 233 91.4424 230.487 101.946 219.108C144.141 173.397 168.999 130.934 173.346 97.1358C176.653 71.4223 167.282 44.4887 148.418 25.4928C135.468 12.4516 119.543 4.23377 100.817 0.92759C95.0549 -0.0899084 82.5145 -0.318094 76.3345 0.482149ZM96.7365 48.443C111.491 52.5021 121.844 63.0182 125.792 77.9541C127.033 82.654 126.964 92.1758 125.652 97.0452C122.987 106.938 116.986 115.408 108.937 120.639C83.079 137.444 49.2118 120.386 47.2237 89.5565C46.4951 78.2634 50.7011 67.2672 58.8977 59.0325C64.8705 53.0322 71.6625 49.4122 79.9615 47.8063C84.2151 46.9828 92.5835 47.3007 96.7365 48.443Z"
    />
</svg>