<svg width="272" height="224" viewBox="0 0 272 224" xmlns="http://www.w3.org/2000/svg">
    <path
        d="M262.05 1.16969C266.088 2.96769 270.281 8.0747 270.999 12.0717C271.318 13.8437 271.448 59.9227 271.289 114.47C271.002 212.853 270.983 213.669 268.938 216.408C263.849 223.223 263.552 223.293 239.5 223.293C215.448 223.293 215.15 223.223 210.062 216.408C208.011 213.661 208 213.104 208 111.793C208 10.4817 208.011 9.92468 210.062 7.17768C215.08 0.456683 215.637 0.315683 238.32 0.0526833C254.001 -0.129317 259.737 0.140688 262.05 1.16969ZM91.673 20.0877C93.143 20.7507 114.819 39.4357 139.841 61.6097C186.348 102.824 188.5 105.043 188.5 111.793C188.5 118.543 186.348 120.762 139.841 161.976C114.819 184.15 93.143 202.835 91.673 203.498C81.47 208.097 69.5 200.627 69.5 189.66C69.5 185.948 74.577 161.806 77.088 153.581C77.573 151.992 75.165 151.848 43.627 151.581C11.101 151.305 9.52497 151.205 6.88297 149.231C5.36597 148.097 3.19598 145.927 2.06198 144.408C0.0869812 141.763 -3.05176e-05 140.385 -3.05176e-05 111.793C-3.05176e-05 83.2007 0.0869812 81.8227 2.06198 79.1777C3.19598 77.6587 5.36597 75.4887 6.88297 74.3547C9.52497 72.3807 11.101 72.2807 43.627 72.0047C75.165 71.7377 77.573 71.5937 77.088 70.0047C74.577 61.7797 69.5 37.6377 69.5 33.9257C69.5 22.9587 81.47 15.4887 91.673 20.0877Z"
    />
</svg>