<svg width="272" height="224" viewBox="0 0 272 224" xmlns="http://www.w3.org/2000/svg">
    <path
        d="M9.30685 1.16969C5.26885 2.96769 1.07586 8.0747 0.357861 12.0717C0.0388611 13.8437 -0.0911474 59.9227 0.0678526 114.47C0.354853 212.853 0.37385 213.669 2.41885 216.408C7.50785 223.223 7.80485 223.293 31.8569 223.293C55.9089 223.293 56.2068 223.223 61.2948 216.408C63.3458 213.661 63.3569 213.104 63.3569 111.793C63.3569 10.4817 63.3458 9.92468 61.2948 7.17768C56.2768 0.456683 55.7198 0.315683 33.0368 0.0526833C17.3558 -0.129317 11.6199 0.140688 9.30685 1.16969ZM179.684 20.0877C178.214 20.7507 156.538 39.4357 131.516 61.6097C85.0089 102.824 82.8569 105.043 82.8569 111.793C82.8569 118.543 85.0089 120.762 131.516 161.976C156.538 184.15 178.214 202.835 179.684 203.498C189.887 208.097 201.857 200.627 201.857 189.66C201.857 185.948 196.78 161.806 194.269 153.581C193.784 151.992 196.192 151.848 227.73 151.581C260.256 151.305 261.832 151.205 264.474 149.231C265.991 148.097 268.161 145.927 269.295 144.408C271.27 141.763 271.357 140.385 271.357 111.793C271.357 83.2007 271.27 81.8227 269.295 79.1777C268.161 77.6587 265.991 75.4887 264.474 74.3547C261.832 72.3807 260.256 72.2807 227.73 72.0047C196.192 71.7377 193.784 71.5937 194.269 70.0047C196.78 61.7797 201.857 37.6377 201.857 33.9257C201.857 22.9587 189.887 15.4887 179.684 20.0877Z"
    />
</svg>