<svg width="194" height="151" viewBox="0 0 194 151" xmlns="http://www.w3.org/2000/svg">
    <path
        d="M87.9006 0.136804C69.4817 1.79755 54.7098 5.68046 39.8935 12.7555C27.3819 18.73 15.6055 26.8386 5.99515 36.096C1.62066 40.3095 0.384676 42.2514 0.056343 45.4242C-0.692074 52.6619 6.13847 58.8577 13.2321 57.3756C15.902 56.8176 17.3575 55.9255 20.6037 52.8567C41.6746 32.9391 68.3868 22.2308 96.9999 22.2308C125.613 22.2308 152.325 32.9391 173.396 52.8567C176.676 55.9573 178.11 56.8293 180.84 57.3843C189.619 59.1695 196.878 49.6903 192.867 41.6779C191.821 39.5874 185.482 33.3764 179.736 28.8114C160.493 13.5234 138.769 4.31894 114.061 0.983824C108.772 0.269966 92.3297 -0.262306 87.9006 0.136804ZM88.9743 37.007C70.3412 38.5448 51.9235 45.8986 37.0962 57.7209C28.2888 64.7434 25.8457 68.2336 26.1964 73.2938C26.4856 77.4718 28.4958 80.4827 32.2432 82.3511C34.1802 83.3169 35.0075 83.5072 37.2516 83.5042C40.8314 83.4993 42.8397 82.5202 46.9537 78.7746C56.5789 70.0109 66.8251 64.4063 78.7247 61.3965C85.4472 59.6964 89.507 59.2107 96.9999 59.2107C116.186 59.2107 132.611 65.6316 147.046 78.7746C151.16 82.5202 153.168 83.4993 156.748 83.5042C162.811 83.5125 167.388 79.285 167.803 73.2938C168.154 68.2336 165.711 64.7434 156.904 57.7209C137.692 42.4027 113.388 34.9917 88.9743 37.007ZM93.7772 73.5385C87.5381 73.963 80.7516 75.4581 75.1737 77.6367C66.0945 81.1829 55.1477 89.369 53.0127 94.2086C51.7703 97.0255 51.9083 100.404 53.3885 103.405C55.2239 107.125 58.3643 109.232 62.4954 109.516C65.9811 109.756 68.3853 108.77 71.9507 105.638C75.3997 102.607 77.935 100.905 81.5447 99.1943C90.8996 94.7613 103.1 94.7613 112.455 99.1943C116.065 100.905 118.6 102.607 122.049 105.638C125.615 108.77 128.019 109.756 131.504 109.516C137.407 109.111 141.786 104.419 141.786 98.4994C141.786 94.9849 140.658 92.7019 137.322 89.4621C129.067 81.4455 117.086 75.6911 105.341 74.1018C101.878 73.6335 96.3451 73.3638 93.7772 73.5385ZM94.7167 113.413C81.5262 114.931 74.0985 129.128 80.2026 141.155C82.1677 145.027 86.9778 149.024 91.2491 150.334C94.0965 151.208 99.8787 151.225 102.619 150.367C105.678 149.41 108.39 147.701 110.726 145.257C116.552 139.163 117.62 130.738 113.559 122.932C110.163 116.407 102.472 112.522 94.7167 113.413Z"
    />
</svg>