<?xml version="1.0" encoding="iso-8859-1"?>
<!-- Generator: Adobe Illustrator 19.0.0, SVG Export Plug-In . SVG Version: 6.00 Build 0)  -->
<svg version="1.1" id="Layer_1" xmlns="http://www.w3.org/2000/svg" xmlns:xlink="http://www.w3.org/1999/xlink" x="0px" y="0px"
	 viewBox="0 0 512 512" style="enable-background:new 0 0 512 512;" xml:space="preserve">
<g>
	<g>
		<path d="M502.966,394.098c-4.989,0-9.034,4.045-9.034,9.034c0,50.066-40.731,90.798-90.798,90.798
			c-4.989,0-9.034,4.045-9.034,9.034s4.045,9.034,9.034,9.034c60.028,0,108.866-48.836,108.866-108.866
			C512,398.143,507.955,394.098,502.966,394.098z"/>
	</g>
</g>
<g>
	<g>
		<path d="M469.688,394.098c-4.989,0-9.034,4.045-9.034,9.034c0,31.718-25.804,57.521-57.521,57.521
			c-4.989,0-9.034,4.045-9.034,9.034s4.045,9.034,9.034,9.034c41.68,0,75.588-33.909,75.588-75.588
			C478.722,398.143,474.677,394.098,469.688,394.098z"/>
	</g>
</g>
<g>
	<g>
		<path d="M436.412,394.098c-4.989,0-9.034,4.045-9.034,9.034c0,13.369-10.875,24.244-24.244,24.244
			c-4.989,0-9.034,4.045-9.034,9.034s4.045,9.034,9.034,9.034c23.331,0,42.311-18.98,42.311-42.311
			C445.445,398.143,441.401,394.098,436.412,394.098z"/>
	</g>
</g>
<g>
	<g>
		<path d="M369.317,207.156c1.763,1.763,4.076,2.646,6.387,2.646c2.311,0,4.624-0.882,6.387-2.646l120.27-120.27
			c1.695-1.693,2.646-3.992,2.646-6.387c0-2.396-0.952-4.694-2.646-6.387L430.898,2.648c-3.528-3.528-9.248-3.528-12.775,0
			l-120.27,120.27c-1.695,1.694-2.646,3.992-2.646,6.387s0.952,4.694,2.646,6.387l29.344,29.344l-23.78,23.78l-45.68-45.68
			c-17.635-17.635-45.225-19.378-64.837-5.246l-20.957-20.957c-1.694-1.695-3.992-2.646-6.387-2.646
			c-2.396,0-4.694,0.952-6.387,2.646l-42.233,42.233c-3.528,3.528-3.528,9.248,0,12.775l20.953,20.953
			c-6.137,8.489-9.459,18.654-9.459,29.333c0,13.413,5.223,26.023,14.708,35.507l45.68,45.68l-23.781,23.781l-29.344-29.344
			c-3.528-3.528-9.248-3.528-12.775,0L2.646,418.124c-3.528,3.528-3.528,9.248,0,12.775l71.464,71.464
			c1.763,1.763,4.076,2.646,6.387,2.646s4.624-0.882,6.387-2.646l120.27-120.27c3.528-3.528,3.528-9.248,0-12.775l-29.344-29.344
			l23.781-23.781l59.619,59.619c1.763,1.763,4.076,2.646,6.387,2.646c2.311,0,4.624-0.882,6.387-2.646l23.411-23.411l14.91,14.91
			c-9.923,30.117-2.951,64.631,20.961,88.541c1.763,1.763,4.076,2.646,6.387,2.646c2.311,0,4.624-0.882,6.387-2.646l48.517-48.517
			l3.397,3.393c1.763,1.765,4.076,2.646,6.387,2.646c2.311,0,4.624-0.882,6.387-2.646c3.528-3.528,3.528-9.248,0-12.775
			l-3.395-3.396l48.517-48.517c3.528-3.528,3.528-9.248,0-12.775c-23.909-23.909-58.419-30.881-88.534-20.962l-14.913-14.913
			l23.406-23.406c1.695-1.694,2.646-3.992,2.646-6.387c0-2.396-0.952-4.694-2.646-6.387l-59.619-59.619l23.78-23.78L369.317,207.156
			z M80.497,483.199l-58.688-58.688l67.466-67.466l58.688,58.688L80.497,483.199z M187.991,375.705l-27.253,27.253L102.05,344.27
			l27.253-27.253L187.991,375.705z M136.098,165.554l29.458-29.458l14.103,14.103l-29.458,29.458L136.098,165.554z M146.496,222.229
			c0-8.587,3.344-16.659,9.416-22.731l43.587-43.587c6.267-6.267,14.5-9.401,22.731-9.401c6.215,0,12.43,1.789,17.8,5.362
			l-88.163,88.163C148.373,234.804,146.496,228.661,146.496,222.229z M310.174,339.625l29.458-29.458l10.168,10.168
			c-5.891,3.552-11.455,7.852-16.533,12.93c-5.077,5.077-9.375,10.638-12.927,16.527L310.174,339.625z M394.56,325.977
			c14.726,0,29.453,4.699,41.71,14.095l-96.197,96.197c-20.608-26.881-18.618-65.64,5.969-90.227
			C359.419,332.665,376.99,325.977,394.56,325.977z M356.649,267.596l-89.051,89.051l-11.893-11.893l89.051-89.051L356.649,267.596z
			 M331.981,242.928l-89.051,89.051l-78.728-78.728l89.051-89.049L331.981,242.928z M424.513,21.808L483.2,80.496l-67.464,67.464
			l-58.689-58.688L424.513,21.808z M317.018,129.303l27.255-27.255l58.688,58.688l-27.255,27.255L317.018,129.303z"/>
	</g>
</g>
<g>
</g>
<g>
</g>
<g>
</g>
<g>
</g>
<g>
</g>
<g>
</g>
<g>
</g>
<g>
</g>
<g>
</g>
<g>
</g>
<g>
</g>
<g>
</g>
<g>
</g>
<g>
</g>
<g>
</g>
</svg>
