<svg width="32" height="32" viewBox="0 0 32 32" fill="none" xmlns="http://www.w3.org/2000/svg">
<path d="M17.4199 16.1423L16.0056 17.5566L14.5914 16.1423L16.0056 14.7281L12.4701 11.1926C13.5953 10.0674 15.1215 9.43524 16.7128 9.43524C18.3041 9.43524 19.8302 10.0674 20.9554 11.1926C22.0806 12.3178 22.7128 13.8439 22.7128 15.4352C22.7128 17.0265 22.0806 18.5527 20.9554 19.6779L17.4199 16.1423ZM6.76306 15.385L8.76346 15.3843C8.76343 16.4349 8.97035 17.4753 9.37238 18.4459C9.77442 19.4166 10.3637 20.2985 11.1066 21.0414C11.8495 21.7843 12.7314 22.3736 13.7021 22.7756C14.6727 23.1777 15.7131 23.3846 16.7637 23.3845L16.763 25.3849C11.2405 25.3849 6.76306 20.9075 6.76306 15.385ZM10.7632 15.3843L12.7636 15.385C12.7636 15.9103 12.867 16.4305 13.068 16.9158C13.269 17.4011 13.5637 17.8421 13.9351 18.2136C14.3066 18.585 14.7476 18.8797 15.2329 19.0807C15.7182 19.2817 16.2384 19.3852 16.7637 19.3851V21.3848C15.9757 21.3849 15.1953 21.2297 14.4673 20.9282C13.7392 20.6267 13.0777 20.1847 12.5205 19.6275C11.9633 19.0703 11.5213 18.4087 11.2198 17.6807C10.9183 16.9527 10.7631 16.1723 10.7632 15.3843ZM23.7838 18.2637L28.0265 22.5063L25.198 25.3347L20.9554 21.0921L23.7838 18.2637ZM9.64169 4.12153L13.8843 8.36417L11.0559 11.1926L6.81326 6.94996L9.64169 4.12153Z" fill="#14162B"/>
<path d="M10 25C10 26.1046 9.10457 27 8 27C6.89543 27 6 26.1046 6 25C6 23.8954 6.89543 23 8 23C9.10457 23 10 23.8954 10 25Z" fill="#69E286"/>
</svg>
