<svg width="148" height="155" viewBox="0 0 148 155" xmlns="http://www.w3.org/2000/svg">
    <path
        d="M37.1639 38.7561L0 77.5116L37.1619 116.255L74.3231 155L111.162 116.592C131.422 95.4678 148 77.8755 148 77.4973C148 77.119 131.424 59.5275 111.164 38.4052L74.3277 0L37.1639 38.7561ZM85.5252 38.7486C85.3157 40.1572 83.3702 55.5966 81.2027 73.0591C79.0353 90.5216 77.1212 105.211 76.949 105.702C76.7414 106.295 75.7035 106.524 73.8641 106.385L71.0916 106.175L67.0415 73.7419C64.8145 55.9039 62.8454 40.1572 62.6673 38.7486L62.3425 36.1882H74.1247H85.907L85.5252 38.7486ZM78.7524 112.696C81.2545 115.524 81.2119 118.907 78.6391 121.59C75.4174 124.949 70.442 124.211 68.3878 120.069C67.0808 117.433 67.5922 114.081 69.5947 112.156C72.4896 109.373 75.9943 109.58 78.7524 112.696Z"
    />
</svg>