<svg width="348" height="174" viewBox="0 0 348 174" fill="none" xmlns="http://www.w3.org/2000/svg">
<g filter="url(#filter0_d)">
<circle cx="87" cy="87" r="84" fill="white"/>
</g>
<path d="M109.692 99.4296C109.863 98.8294 112.092 96.2574 112.521 95.9145C112.821 95.6573 113.121 95.4001 113.421 95.1428C113.764 94.8856 114.064 94.6285 114.322 94.457C114.836 94.114 115.265 93.814 115.608 93.471C115.822 93.2996 115.993 93.1281 116.208 92.9138C117.108 91.9707 117.622 90.9419 118.651 89.0557C119.551 87.4267 120.366 86.4408 120.323 84.1259H120.28C119.937 84.2117 119.68 84.2974 119.38 84.3831H119.337L119.251 84.426C118.565 84.6404 117.837 84.769 117.022 84.9404C116.851 84.9833 116.636 85.0262 116.379 85.069C114.793 85.3691 113.936 85.5406 113.507 85.5834C113.293 85.4548 113.164 85.3262 113.036 85.1976C112.993 85.069 112.907 84.9404 112.693 84.8118C112.521 84.6404 112.307 84.5118 111.707 84.426L111.621 84.3831C112.435 83.6544 112.135 84.0402 112.307 83.4829C110.978 81.4253 109.22 80.9109 108.835 80.6537C107.506 79.7963 109.135 78.5532 106.262 76.7956C105.834 74.3522 106.305 73.6663 104.548 72.466C103.819 72.5946 103.39 73.1948 102.876 73.5806C102.747 73.6234 102.619 73.6663 102.447 73.6663C100.69 73.452 99.318 73.5806 97.4747 73.5806C95.9743 73.5806 95.0741 73.5377 94.5168 73.5377C93.5738 73.5806 93.7881 73.9235 93.7452 75.3381L93.4023 75.5096L92.845 75.7668V76.0669L92.8021 79.8821C92.5878 80.0107 92.3735 80.0964 92.1591 80.225C91.9877 80.3107 91.8591 80.3536 91.6876 80.568C91.4732 80.7823 91.2589 81.1681 91.0874 81.7254C90.9588 82.1112 90.8731 82.4112 90.8731 82.6685C90.8302 82.8399 90.8302 82.9685 90.7874 83.14C90.8302 83.1829 90.916 83.2686 91.0017 83.3543C91.1303 83.6973 91.3018 83.9973 91.5161 84.4689C91.7305 84.8547 91.8591 85.1976 91.9877 85.4977C92.202 86.1836 92.3735 86.8266 92.3735 87.2553C92.4592 87.2981 92.6307 87.3839 92.7593 87.4696C92.8879 87.5553 93.0165 87.6839 93.2308 87.8125C94.2168 88.5841 93.6166 88.3698 94.4311 89.0128C94.5168 89.1414 94.5597 89.1414 94.6026 89.1414C94.774 89.27 94.9884 89.4844 95.1598 89.6987C95.2027 89.8273 95.2456 89.913 95.3742 90.0845C95.6314 90.4274 95.6742 90.3846 95.76 90.4274C96.0601 90.8133 96.3173 91.1562 96.5745 91.4991C96.7459 91.9707 96.6602 91.9707 98.4178 91.8421H98.7178C98.975 92.2707 99.1894 92.4422 99.3608 92.6137C99.4466 92.6994 99.5752 92.828 99.6609 92.9566C99.7038 93.0852 99.7466 93.2567 99.7895 93.5139V94.4141C99.7895 94.4998 99.7895 94.5856 99.7895 94.6713C98.9322 95.8716 98.7178 95.6144 98.5035 97.7149C99.5752 97.7578 100.261 97.5863 100.861 97.5006C101.161 97.4577 101.461 97.4577 101.761 97.4148C102.233 97.4148 102.833 97.5434 103.39 97.7578C103.648 97.8864 103.948 98.015 104.248 98.1864C104.891 98.5294 105.92 99.0009 106.391 99.5153C106.52 99.6439 106.605 99.7725 106.691 99.9011C106.777 100.073 106.905 100.287 107.12 100.501C107.334 100.801 107.634 100.973 108.234 101.101C108.32 101.016 108.406 100.93 108.492 100.844C108.663 100.63 108.792 100.458 108.835 100.287C108.963 100.03 109.049 99.7725 109.22 99.6011C109.349 99.5582 109.478 99.5153 109.692 99.4296ZM60.6945 70.8371H51.3494C50.9636 70.8371 50.6207 71.1371 50.6207 71.5658C50.6207 71.9516 50.9207 72.2946 51.3494 72.2946H59.9229L60.0515 72.0802C60.1801 71.4801 60.3087 71.3086 60.6945 70.8371ZM87.5723 120.563H81.9996C81.6138 120.563 81.2708 120.863 81.2708 121.292C81.2708 121.678 81.5709 122.021 81.9996 122.021H88.2153C87.9581 121.635 87.7438 121.163 87.5723 120.563ZM85.6004 108.132H76.2125C75.8267 108.132 75.4837 108.432 75.4837 108.86C75.4837 109.246 75.7838 109.589 76.2125 109.589H85.1717L85.6004 108.132ZM81.528 95.7001H72.7402C72.3544 95.7001 72.0115 96.0002 72.0115 96.4289C72.0115 96.8147 72.3115 97.1576 72.7402 97.1576H81.228C81.3566 96.6861 81.3566 96.3431 81.528 95.7001ZM56.7936 83.2257H47.4485C47.0627 83.2257 46.7197 83.5258 46.7197 83.9545C46.7197 84.3403 47.0198 84.6832 47.4485 84.6832H57.3937L57.308 84.5118C57.0936 83.9545 56.9222 83.8687 56.7936 83.2257Z" fill="#E4B462"/>
<path d="M117.065 109.032H116.422C116.336 109.803 116.422 109.675 115.093 110.018C112.221 110.704 113.721 112.89 113.721 114.219C113.721 114.733 112.478 115.248 112.778 117.22C112.993 118.72 113.379 119.663 114.193 119.834H114.665C115.007 119.792 115.436 119.62 115.951 119.32C116.422 119.02 116.508 118.677 116.722 118.205C117.065 117.391 117.365 116.191 117.665 115.205L119.08 110.961C119.208 110.018 118.565 109.889 119.68 110.146C119.68 109.375 119.551 108.903 119.38 108.175C119.166 107.231 118.908 107.017 118.823 106.46C117.665 106.76 118.694 106.717 117.794 107.703C117.065 108.303 117.151 107.574 117.065 109.032ZM159.289 83.2257L160.49 86.9123H164.391L161.218 89.1843L162.419 92.8709L159.289 90.556L156.16 92.8709L157.36 89.1843L154.188 86.9123H158.089L159.289 83.2257ZM65.1956 64.5784H55.5076C55.1218 64.5784 54.7788 64.8785 54.7788 65.3072C54.7788 65.693 55.0789 66.0359 55.5076 66.0359H63.9524H72.0544C72.4402 66.0359 72.7831 66.336 72.7831 66.7647C72.7831 67.1933 72.483 67.4934 72.0544 67.4934H63.0522L60.6517 70.9657C60.3087 71.4372 60.1372 71.6087 60.0086 72.1659L59.9229 72.3374H68.0248C68.4106 72.3374 68.7536 72.6375 68.7536 73.0662C68.7536 73.452 68.4535 73.7949 68.0248 73.7949H58.937H58.8512L56.7936 77.1814H46.634C46.2482 77.1814 45.9053 77.4815 45.9053 77.9102C45.9053 78.296 46.2054 78.6389 46.634 78.6389H57.1365H66.4388C66.8246 78.6389 67.1675 78.939 67.1675 79.3677C67.1675 79.7535 66.8674 80.0964 66.4388 80.0964H57.6509L56.7507 83.3972C56.9222 84.1259 57.0937 84.2117 57.308 84.7261L57.3937 84.8975H66.4816C66.8674 84.8975 67.2104 85.1976 67.2104 85.6263C67.2104 86.0121 66.9103 86.355 66.4816 86.355H58.4226V86.3979C58.6369 87.0409 59.3228 87.8554 59.88 88.6699L60.6088 89.7844L60.6517 89.8273H52.7641C52.3783 89.8273 52.0353 90.1274 52.0353 90.556C52.0353 90.9418 52.3354 91.2848 52.7641 91.2848H61.6376L61.7233 91.3276L62.152 91.3705C62.8808 91.4991 63.2666 91.8421 64.5955 92.5708C66.9532 93.8997 66.4816 93.5139 69.3966 93.3853C71.9258 93.2567 72.0544 92.9566 74.0263 92.0564C76.2982 90.9847 75.8696 90.7275 78.0129 91.9278C79.0418 92.4851 81.0565 93.7711 81.9567 94.0712C81.6995 94.757 81.6995 95.2714 81.5709 95.9573C81.3566 96.6861 81.3566 97.029 81.228 97.4577H90.5302C90.916 97.4577 91.2589 97.7577 91.2589 98.1864C91.2589 98.5722 90.9589 98.9152 90.5302 98.9152H82.3854C82.4283 98.9152 82.4711 98.958 82.514 98.958C83.0713 100.201 84.1001 100.33 84.5716 102.302V102.259H76.2125C75.8267 102.259 75.4838 102.559 75.4838 102.988C75.4838 103.373 75.7838 103.716 76.2125 103.716H84.9574H94.3025C94.6883 103.716 95.0313 104.016 95.0313 104.445C95.0313 104.831 94.7312 105.174 94.3025 105.174H85.429L85.4719 105.26C85.7291 107.231 86.7579 106.888 85.6005 108.646L85.1718 110.061H93.831C94.2168 110.061 94.5597 110.361 94.5597 110.789C94.5597 111.175 94.2597 111.518 93.831 111.518H84.9574V111.261L84.9146 111.518L85.2146 114.905H76.9841C76.5983 114.905 76.2554 115.205 76.2554 115.633C76.2554 116.019 76.5554 116.362 76.9841 116.362H85.8148H95.3742C95.76 116.362 96.103 116.662 96.103 117.091C96.103 117.477 95.8029 117.82 95.3742 117.82H87.1437L87.5724 121.206C87.7438 121.806 87.9582 122.235 88.2154 122.621H97.2175C97.6033 122.621 97.9463 122.921 97.9463 123.35C97.9463 123.735 97.6462 124.078 97.2175 124.078H89.3299C89.3728 125.021 90.4016 126.393 90.6588 127.465H81.871C81.4852 127.465 81.1422 127.765 81.1422 128.194C81.1422 128.579 81.4423 128.922 81.871 128.922H91.1303C91.2161 129.008 91.259 129.094 91.3876 129.222C92.6736 129.908 91.6876 129.951 94.5597 129.351C98.2035 128.622 97.4747 129.051 100.047 127.122C101.29 126.222 103.047 124.378 103.605 122.792C104.076 121.506 103.905 121.035 104.719 120.049C105.319 119.277 106.134 118.848 106.22 117.777C106.734 112.89 105.705 114.819 110.249 110.018C111.278 108.903 110.978 108.775 110.721 107.017C110.378 104.917 109.906 102.302 109.692 100.158C109.563 100.33 109.435 100.587 109.306 100.844C109.22 100.93 109.135 101.016 109.049 101.101H109.006C108.963 101.101 108.963 101.101 108.92 101.101H108.877H108.835H108.792H108.749H108.706H108.663H108.62H108.577H108.534H108.492L108.449 101.059C108.277 100.844 108.149 100.63 108.02 100.458V100.416L107.977 100.373L107.934 100.33L107.891 100.287L107.849 100.244L107.806 100.201L107.763 100.158L107.72 100.115L107.677 100.073L107.634 100.03L107.591 99.9869L107.549 99.944L107.506 99.9011L107.463 99.8582L107.42 99.8154L107.377 99.7725L107.334 99.7296L107.291 99.6868L107.248 99.6439L107.206 99.6011L107.163 99.5582L107.12 99.5153L107.077 99.4724L107.034 99.4296L106.991 99.3867H106.948H106.906L106.863 99.3438H106.82L106.777 99.301H106.734H106.691H106.648H106.605H106.563H106.52H106.477H106.434H106.391H106.348H106.305H106.263H106.22H106.177H106.134H106.091H106.048H106.005H105.962H105.92H105.877H105.834H105.791H105.748H105.705H105.662H105.62H105.577H105.534H105.491H105.448H105.405H105.362H105.319H105.277H105.234L105.148 99.2581C104.934 99.1724 104.762 99.0438 104.591 99.0009C103.991 98.7866 103.433 98.6151 102.962 98.658C102.662 98.658 102.362 98.7008 102.062 98.7437C101.461 98.8294 100.776 99.0009 99.7038 98.958C99.9182 96.8575 100.132 97.1147 100.99 95.9145C100.99 95.8287 100.99 95.743 100.99 95.6573V94.757C100.99 94.4998 100.947 94.3284 100.861 94.1998C100.733 94.0712 100.647 93.9426 100.561 93.8568C100.39 93.7282 100.218 93.5139 99.9182 93.0852H99.6181C97.8605 93.2138 97.9891 93.2138 97.7748 92.7423L97.6891 92.6565L97.6462 92.6137L97.6033 92.5708L97.5604 92.4851L97.5176 92.4422L97.4747 92.3993C97.389 92.3565 97.3461 92.3993 97.0889 92.0564C96.9603 91.8849 96.9174 91.7563 96.8746 91.6706C96.8746 91.6706 96.8317 91.6706 96.7031 91.542L96.6602 91.4991L96.6174 91.4562H96.5745H96.5316L96.4888 91.4134L96.4459 91.3705L96.403 91.3276L96.3602 91.2848V91.2419H96.3173L96.2744 91.199L96.2316 91.1562L96.1887 91.1133L96.1458 91.0704L96.103 91.0276L96.0601 90.9847C95.8886 90.899 95.76 90.8132 95.6743 90.7704C95.6743 90.3846 95.5028 89.6987 95.2885 89.0128V88.9699V88.9271L95.2456 88.8413L95.2027 88.7985C95.117 88.7127 95.0741 88.627 94.9884 88.5841C95.0313 88.4127 95.0313 88.2412 95.0741 88.1126V88.0697V88.0269C95.2456 87.4696 95.46 87.1266 95.6743 86.8694L95.7172 86.8266L95.76 86.7837C95.9744 86.6551 96.1887 86.5694 96.403 86.4408L96.4459 82.6256V82.3255L97.0032 82.0683L97.3461 81.8968C97.389 80.4822 97.1746 80.1393 98.1177 80.0964C98.6321 80.0535 99.5323 80.1393 101.076 80.1393C102.962 80.1393 104.333 80.0107 106.048 80.225H106.091H106.134C106.648 79.8392 107.034 79.2819 107.763 79.1104L104.591 71.823C100.69 71.7801 102.833 72.5089 98.4607 71.9087C96.8317 71.6944 94.0882 71.1371 92.5878 71.2229L92.4592 72.7661C90.8731 73.8806 91.1732 73.4948 87.0579 71.9087C83.7143 70.6227 84.5288 70.5798 82.6855 68.3936C81.9139 67.4934 80.7993 67.8363 79.4276 67.8363C78.3559 67.8363 76.684 67.7077 75.741 67.9649C74.9265 68.2221 73.9834 69.0366 73.1261 69.2081C71.8829 69.4653 70.3825 69.1652 69.268 69.3796C69.268 69.4224 69.2251 69.4653 69.2251 69.5082L68.5392 70.9228C65.3671 64.4498 65.2813 64.4927 65.1956 64.5784ZM61.2089 90.5989C61.2518 90.5989 61.2518 90.5989 61.2089 90.5989V90.5989ZM34.5026 73.5377C34.4597 71.0514 34.4168 65.9502 33.3023 64.1069L32.102 67.3648C31.3304 70.3655 30.9446 76.5384 33.731 78.0388L33.2165 87.4696C32.1449 85.1976 31.459 80.0107 28.9298 78.596C28.7583 82.5827 29.187 86.7408 31.2875 90.0416C32.4021 91.7563 32.2735 91.1133 33.7738 92.185C34.031 93.8568 34.2025 95.3143 34.5026 96.9433C34.7598 98.2722 35.3599 100.158 35.4457 101.316C34.2882 98.8723 31.2018 94.4141 28.9727 93.6425C29.4014 97.7149 32.4021 104.959 36.8603 105.56C38.3178 109.289 39.861 111.947 40.7183 114.133C39.0894 112.418 35.66 108.646 32.3592 108.132C33.1308 111.09 37.8462 118.12 42.8188 117.562C43.5904 118.377 44.5764 119.92 45.2623 120.82C46.1196 121.892 47.2342 123.007 47.9629 124.078C44.6621 123.007 43.2475 120.949 38.7464 121.163C39.9039 123.735 44.1906 126.736 47.1056 127.593C49.6347 128.322 49.7633 127.636 51.5638 127.379C52.6355 128.236 53.7071 129.051 54.9074 129.908C56.1077 130.723 57.308 131.409 58.5512 132.223C55.6362 132.095 50.7922 130.38 48.3059 132.266C49.7633 133.895 55.0789 135.824 57.9939 135.824C60.4802 135.824 60.866 135.352 62.2377 134.152C63.9524 134.495 68.9679 136.981 70.6397 136.81C67.8534 137.196 61.9377 137.41 60.2659 139.982C61.8091 140.882 66.4816 141.182 68.4964 140.968C69.8253 140.797 71.0684 140.497 72.0972 139.982C73.8119 139.168 73.5547 138.868 74.5407 137.624C77.2413 137.839 84.3573 139.339 86.1577 140.625L79.299 145.212C78.4845 145.898 78.9132 145.512 79.0846 146.112L79.8134 145.769C81.3995 144.612 85.7719 141.311 87.2723 141.225C88.0868 141.182 91.1732 143.154 91.8162 143.583C92.5878 144.097 93.1022 144.483 93.831 144.998C94.3883 145.383 95.2456 146.284 95.8029 146.112C96.0601 145.426 95.2027 145.083 94.474 144.569L90.5731 141.997C90.1444 141.74 89.9729 141.654 89.5014 141.44L88.4726 140.668C90.4873 139.511 97.4318 137.882 100.218 137.667C101.333 139.768 103.219 140.625 106.22 141.011C108.234 141.268 112.864 140.968 114.493 140.068C112.864 137.582 106.906 137.239 104.119 136.939C106.048 136.81 110.506 134.924 112.35 134.238C113.379 134.795 113.421 135.567 115.393 135.824C118.823 136.338 124.181 134.581 126.453 132.352C124.181 130.594 118.823 132.137 116.208 132.309C117.237 131.537 118.651 130.808 119.766 130.08C120.966 129.265 122.123 128.194 123.281 127.465C124.996 127.851 124.953 128.408 127.268 127.808C129.754 127.165 131.726 125.793 133.526 124.121C134.384 123.35 135.584 122.535 135.97 121.292C134.126 121.249 132.454 121.678 130.911 122.278C129.497 122.835 128.082 123.778 126.882 124.207C127.31 123.35 128.725 121.978 129.454 121.035C130.097 120.177 131.383 118.634 131.769 117.691C135.327 117.948 136.741 116.234 138.499 114.519C139.57 113.447 141.928 110.146 142.357 108.303C139.656 108.732 137.641 110.661 135.884 112.29C135.327 112.804 134.684 113.619 134.083 114.047C134.641 112.761 135.455 111.347 136.055 110.018C137.341 107.103 137.041 105.988 138.756 105.431C140.856 104.745 142.1 102.988 143.171 101.101C144.072 99.5153 145.786 95.7001 145.743 93.6425C144.414 94.3712 143.128 95.7001 142.185 96.8575C141.285 97.9721 140.213 100.201 139.356 101.101C139.485 99.8154 140.042 98.1864 140.299 96.7718C140.599 95.1857 140.728 93.7711 141.071 92.1421C142.443 91.3276 142.443 91.5849 143.3 90.4274C145.658 87.1266 146.043 82.6684 145.872 78.5532C144.8 79.3677 143.814 81.2967 143.171 82.797C142.786 83.6973 141.5 87.2553 141.5 87.984C141.371 86.5694 141.457 84.7261 141.414 83.2257C141.371 81.4682 141.199 80.0535 141.071 78.3817C141.8 77.2243 142.143 77.5244 142.7 75.8525C143.857 72.5089 143.257 66.979 141.585 64.1926L140.514 68.7365C140.342 70.537 140.514 72.5089 140.299 74.2236C140.085 72.5946 139.099 70.7084 138.885 69.1652C138.542 66.636 138.499 65.9502 137.427 63.8925C136.184 61.4491 133.183 57.934 130.568 57.2481C131.297 59.2629 136.655 67.2791 138.113 69.0366C138.799 69.8511 139.613 72.5089 139.742 73.8806C138.413 71.7801 136.613 68.9938 133.312 68.8652C133.998 70.9228 137.341 76.1955 139.313 77.6101C139.956 78.0816 140.299 77.953 140.642 78.5532C141.157 80.225 141.242 85.8406 140.856 87.7697C141.414 85.6692 138.242 80.5251 136.141 79.9678C136.484 83.8687 138.07 89.9988 140.556 91.9707C140.642 93.7711 139.528 99.6439 138.799 100.887C138.67 98.4008 138.284 93.2138 135.67 92.1421C135.241 95.0142 135.412 102.002 136.655 104.231C137.641 106.031 137.684 105.388 136.098 108.946C135.327 110.661 134.684 111.904 133.826 113.404C134.126 110.661 134.855 105.817 132.497 103.974C131.64 106.374 130.783 111.047 130.783 113.876C130.783 117.648 132.583 116.062 130.183 119.277C129.368 120.349 127.653 122.749 126.582 123.307C127.182 120.82 128.253 119.277 127.782 116.319C127.653 115.633 127.525 114.948 127.096 114.39C127.096 114.347 127.053 114.305 127.01 114.305C126.024 115.676 124.953 118.248 124.31 119.877C123.281 122.321 122.681 123.95 123.067 126.993C122.338 127.293 120.795 128.708 119.894 129.265C118.951 129.908 117.537 130.937 116.379 131.323C116.808 130.551 117.237 130.251 117.708 129.522C119.166 127.465 119.937 124.979 119.551 122.278C118.694 122.449 115.693 126.307 115.136 126.993C113.764 128.794 112.307 130.594 112.178 133.552C109.863 134.281 107.334 135.695 104.591 135.953C105.791 134.795 106.991 134.281 108.149 132.78C109.135 131.494 109.949 129.823 109.992 127.765C107.506 128.622 103.605 131.88 101.804 133.723C100.604 134.924 100.776 135.438 100.004 136.81C99.0608 137.196 94.9027 137.796 93.4881 138.139C92.3306 138.439 87.6581 140.111 87.4009 140.154C87.0579 140.196 82.4283 138.482 81.3137 138.225C79.0418 137.624 76.8984 137.324 74.4978 136.896C73.469 134.324 72.6116 133.295 70.3397 131.537C68.9679 130.466 66.1815 128.408 64.5526 127.722C64.4668 129.694 65.4528 131.494 66.353 132.695C66.8674 133.423 67.339 133.895 68.0248 134.495C68.6679 135.052 69.3966 135.481 69.9967 135.995C67.639 135.781 64.3811 134.366 62.3235 133.509C62.3235 130.723 60.7803 128.751 59.4514 127.036C58.7226 126.093 55.8934 122.578 55.036 122.192C54.4359 127.25 56.4935 128.108 58.294 131.323C56.4507 130.808 52.9355 127.851 51.5638 126.865C52.1639 123.392 49.8919 118.034 48.0487 114.948L47.4485 114.219C46.9341 115.762 46.5483 117.091 46.8055 119.063C47.0627 120.949 47.7057 121.849 48.1344 123.435C47.3628 123.049 43.2904 118.205 43.1618 117.305C43.1189 117.048 44.7479 114.99 42.9903 107.017C42.776 106.16 42.6474 104.617 42.0044 103.888C39.9896 107.832 40.2897 108.432 40.8041 113.233C40.2039 112.461 37.5461 106.974 37.3318 105.817C37.2461 105.345 38.4464 103.545 38.7464 102.002C39.3894 98.7866 39.1322 95.2714 39.0036 91.9707C36.0458 94.4141 36.3459 96.9861 35.8315 101.359C35.7457 99.8154 33.5595 93.0423 34.1168 91.9278C35.7457 90.4703 36.303 89.0128 37.0317 86.5265C37.5033 84.8975 38.4464 81.4682 38.4892 79.7963C36.0029 80.9966 33.6881 84.9833 33.6024 87.7697C33.388 84.9833 33.4738 80.868 33.9882 78.2102C36.6888 77.4386 40.3325 71.3943 41.3185 68.8223C39.6038 68.8651 38.3606 69.7654 37.4175 70.4941C36.0029 71.6515 35.9172 72.5517 34.8884 73.6234C35.317 69.7225 37.2461 68.3079 39.218 65.1357C40.2897 63.3781 43.5904 58.7485 44.062 57.1195C39.9467 58.2769 36.2173 64.1497 35.8315 68.3507C35.7029 69.6368 35.5314 69.9797 35.1884 71.0085C35.1456 71.8659 35.0598 72.8518 34.5026 73.5377ZM167.048 91.8849C165.162 113.704 156.246 131.752 141.071 145.598C137.727 148.641 133.955 151.385 129.754 154.128C125.939 156.658 121.095 158.972 116.422 160.859C106.648 164.759 94.2597 166.989 82.1711 166.088C60.1372 164.459 42.6045 155.286 28.3297 140.025C14.4835 125.279 6.12438 102.645 7.88194 80.8251C8.82502 68.7794 11.74 59.1771 16.5411 49.7892C19.8848 43.2733 26.0148 34.6141 31.2446 29.6844C34.3311 26.7265 35.8743 25.4834 39.3037 22.7399C44.4907 18.5817 52.2068 14.5522 58.5512 11.9802C85.6005 1.13473 116.851 6.87896 138.842 25.3548C140.599 26.8123 145.186 31.1419 146.601 32.7708C152.645 39.8011 157.703 47.0457 161.819 57.5053C165.762 67.4505 168.077 79.7963 167.048 91.8849ZM7.23893 91.4991C9.21083 113.962 17.6128 131.194 33.3023 145.855C45.7338 157.472 67.8534 168.746 92.5878 166.774C109.135 165.445 124.181 159.873 136.398 150.313C138.627 148.556 142.571 145.212 144.5 143.197C147.329 140.239 148.83 138.653 151.488 135.181C168.635 112.676 172.493 83.783 162.162 56.6908C161.218 54.2045 160.147 51.9754 159.075 49.8321C155.26 42.3731 150.073 35.2143 144.2 29.4272C141.628 26.898 139.099 24.7118 136.184 22.4398C121.48 10.9942 101.847 4.94993 82.5569 6.15021C57.9939 7.69344 39.1322 19.9535 28.1582 32.2136C22.1568 38.9009 16.7555 46.617 12.7259 56.9052C8.82502 66.8075 6.16724 79.2819 7.23893 91.4991ZM24.0429 90.256C23.3999 80.4393 25.2432 71.0943 28.3725 62.9923C30.8588 56.5622 34.4597 50.6894 38.7036 45.5882C40.8898 42.9733 42.0472 41.9445 44.5335 39.4581C48.0487 35.9859 54.393 31.8706 58.6369 29.6844C74.3692 21.5396 94.0025 20.5536 110.635 27.1981C151.745 43.5734 164.348 95.6144 134.384 129.222C125.639 138.996 110.721 148.641 91.3876 149.842C72.9975 150.999 57.2223 144.483 44.4907 133.338C39.1322 128.622 34.1168 121.635 30.7731 115.248C27.0865 108.089 24.6859 99.5582 24.0429 90.256ZM81.9996 22.4827C72.6974 23.3829 64.2525 25.9549 57.2223 29.813C34.5883 42.2017 21.8138 65.3072 23.6143 91.8421C24.6002 106.46 31.3733 120.306 40.9755 130.423C45.1337 134.838 49.0346 138.01 54.2644 141.268C65.4957 148.213 79.1704 151.385 93.1022 150.313C126.067 147.784 154.746 117.691 151.359 80.9966C149.73 63.2495 142.1 49.3605 129.968 38.3436C119.466 28.8699 101.976 20.6394 81.9996 22.4827ZM59.88 54.5475L63.6952 54.6332V35.7716H59.88V54.5475ZM108.106 39.0723C113.036 38.9437 115.136 40.1869 115.093 45.2881C115.05 49.9178 112.821 51.5467 108.063 51.2895L108.106 39.0723ZM104.248 54.5903C112.521 55.4905 119.08 53.6901 119.08 45.2881C119.08 36.4574 112.735 35.0857 104.291 35.8144L104.248 54.5903ZM93.0594 38.9866L95.2885 46.7456L90.7874 46.7027L93.0594 38.9866ZM84.443 54.5046L88.4297 54.6332L89.8015 50.175H96.2744L97.5176 54.5903L101.59 54.6332L95.3313 35.7716L90.6588 35.7287L84.443 54.5046ZM81.9139 53.7758L81.9996 44.045H74.9694L74.9265 47.3886L78.2273 47.4315L78.313 51.3324C75.9124 51.7182 73.8548 51.6753 72.6545 50.175C70.4683 47.3886 70.2539 38.1721 77.7129 38.9866C79.0417 39.1152 79.7705 39.6725 80.7564 39.8011L81.9996 36.8004C79.2132 34.6999 67.3818 33.8854 67.4247 45.1166C67.4247 49.2748 68.6679 52.2755 71.2399 53.8616C73.5976 55.2762 79.2561 55.1476 81.9139 53.7758ZM15.3409 83.1828L16.5411 86.8694H20.4421L17.2699 89.1414L18.4702 92.828L15.3409 90.5132L12.2115 92.828L13.4118 89.1414L10.2396 86.9123H14.1406L15.3409 83.1828ZM12.8546 75.1238L18.3416 75.8954L18.1701 77.0957L12.6831 76.3241L12.8546 75.1238ZM13.0689 73.8378L13.2832 72.7661L16.5411 71.4372C16.7555 71.3515 16.9698 71.2657 17.1842 71.18C17.3985 71.0943 17.57 71.0514 17.6557 71.0514C17.2699 71.0085 16.8841 70.9657 16.5411 70.8799C16.1553 70.7942 15.8124 70.7513 15.4266 70.6656L13.7976 70.3655L14.012 69.251L19.4561 70.3226L19.2418 71.3943L16.2411 72.6375C16.1125 72.6803 15.9839 72.7232 15.8553 72.8089C15.7267 72.8518 15.5981 72.8947 15.4695 72.9376C15.3409 72.9804 15.2123 73.0233 15.1265 73.0662C15.0408 73.109 14.9551 73.109 14.8693 73.109C15.2551 73.1519 15.6409 73.1948 16.0267 73.2805C16.4125 73.3662 16.7555 73.4091 17.1413 73.4948L18.8131 73.7949L18.5988 74.9095L13.0689 73.8378ZM15.5552 64.1497L16.4554 64.4069L16.0267 65.9073L20.4421 67.2362L20.0991 68.3936L15.6838 67.0647L15.2551 68.5222L14.3549 68.265L15.5552 64.1497ZM15.7695 63.421L16.9698 60.0345L17.87 60.3346L17.0556 62.6065L18.2558 63.0352L18.9846 60.9776L19.8419 61.2776L19.1132 63.3353L20.5278 63.8497L21.3423 61.5777L22.2425 61.8778L21.0422 65.3072L15.7695 63.421ZM17.3985 59.0914L18.213 57.1624C18.3416 56.8623 18.4702 56.648 18.6416 56.4336C18.8131 56.2622 19.0275 56.0907 19.1989 56.0049C19.4133 55.9192 19.6276 55.8763 19.8419 55.8763C20.0563 55.8763 20.2706 55.9192 20.5278 56.0049C20.7421 56.0907 20.9136 56.1764 21.0422 56.305C21.1708 56.4336 21.2994 56.5622 21.3423 56.7337C21.428 56.8623 21.4709 57.0338 21.5138 57.1624C21.5566 57.291 21.5566 57.4624 21.5566 57.591L24.1715 57.2052L23.6571 58.4913L21.3423 58.7056L21.0851 59.3057L22.9712 60.0773L22.4997 61.1919L17.3985 59.0914ZM20.2706 58.9628L20.4421 58.5341C20.5707 58.234 20.6135 57.9768 20.5707 57.7196C20.5278 57.4624 20.3563 57.291 20.0991 57.2052C19.8419 57.1195 19.6276 57.1195 19.4561 57.2052C19.2418 57.291 19.1132 57.5053 18.9846 57.7625L18.7702 58.3198L20.2706 58.9628ZM20.7421 51.7611C20.9136 51.461 21.0851 51.2038 21.2566 50.9895C21.428 50.7751 21.5995 50.6037 21.8138 50.4751L22.414 51.0752C22.2425 51.2038 22.071 51.3753 21.9424 51.5467C21.8138 51.7182 21.6852 51.8897 21.5995 52.0612C21.4709 52.2755 21.428 52.4898 21.3852 52.7042C21.3423 52.9185 21.3852 53.1328 21.428 53.3472C21.5138 53.5615 21.6424 53.7758 21.8138 53.9902C21.9853 54.2045 22.2425 54.376 22.5426 54.5475C23.0999 54.8475 23.6143 54.9333 24.0429 54.8475C24.4716 54.7618 24.8145 54.4617 25.0717 53.9902C25.2004 53.733 25.2861 53.5186 25.329 53.3472L24.1715 52.747L23.7429 53.5615L22.9284 53.1328L23.9143 51.2895L26.4006 52.6184C26.4006 52.8756 26.3149 53.1328 26.2292 53.4329C26.1434 53.733 26.0148 54.0759 25.8434 54.4189C25.629 54.7618 25.4147 55.1047 25.1575 55.3619C24.9003 55.6191 24.5573 55.7906 24.2573 55.9192C23.9143 56.0478 23.5714 56.0907 23.1856 56.0478C22.7998 56.005 22.414 55.8763 21.9853 55.662C21.5566 55.4477 21.2566 55.1905 20.9993 54.8904C20.7421 54.5903 20.5707 54.2474 20.4849 53.9473C20.3992 53.6044 20.3563 53.2614 20.4421 52.8756C20.4421 52.4898 20.5278 52.1469 20.7421 51.7611ZM23.6571 46.7885C23.8715 46.4455 24.1287 46.1883 24.4287 45.974C24.7288 45.7597 25.0289 45.6311 25.3718 45.5453C25.7148 45.4596 26.0577 45.5024 26.4435 45.5882C26.8293 45.6739 27.2151 45.8454 27.5581 46.1026C27.9439 46.3598 28.2439 46.617 28.4583 46.9599C28.6726 47.26 28.8012 47.6029 28.8869 47.9459C28.9727 48.2888 28.9727 48.6318 28.8869 48.9747C28.8012 49.3176 28.6726 49.6606 28.4583 50.0035C28.2439 50.3465 27.9867 50.6037 27.6867 50.818C27.3866 51.0323 27.0865 51.1609 26.7436 51.2467C26.4006 51.3324 26.0577 51.2895 25.6719 51.2038C25.2861 51.1181 24.9431 50.9466 24.5573 50.6894C24.1715 50.4322 23.8715 50.175 23.6571 49.8321C23.4428 49.532 23.3142 49.189 23.2285 48.8461C23.1427 48.5032 23.1427 48.1602 23.2285 47.8173C23.3142 47.4743 23.4428 47.1314 23.6571 46.7885ZM25.2432 49.6606C25.5004 49.832 25.7576 49.9607 26.0148 50.0464C26.272 50.1321 26.4864 50.1321 26.7007 50.1321C26.915 50.0893 27.0865 50.0464 27.258 49.9178C27.4295 49.7892 27.5581 49.6606 27.6867 49.4891C27.8153 49.3176 27.8581 49.1462 27.901 48.9318C27.9439 48.7604 27.901 48.546 27.8581 48.3317C27.8153 48.1174 27.6867 47.9459 27.5152 47.7315C27.3437 47.5172 27.1294 47.3457 26.8722 47.1743C26.5721 47.0028 26.3149 46.8742 26.0577 46.7885C25.8005 46.7027 25.5862 46.7027 25.3718 46.7027C25.1575 46.7456 24.986 46.7885 24.8145 46.9171C24.6431 47.0028 24.5145 47.1743 24.3859 47.3457C24.2573 47.5172 24.2144 47.6887 24.1715 47.903C24.1287 48.0745 24.1715 48.2888 24.2144 48.5032C24.2573 48.7175 24.3859 48.889 24.5573 49.1033C24.7288 49.2748 24.9431 49.4462 25.2432 49.6606ZM26.1863 43.2733L29.0155 44.2164C29.1013 44.2593 29.2299 44.3022 29.3585 44.345C29.4871 44.3879 29.6157 44.4308 29.7443 44.4736C29.8729 44.5165 30.0015 44.5594 30.173 44.6451C30.3016 44.688 30.4302 44.7308 30.5159 44.7737V44.7308C30.3444 44.5594 30.2158 44.345 30.0015 44.0878C29.7872 43.8306 29.6586 43.6163 29.53 43.4019L27.8153 40.9585L28.544 39.9726L31.8448 44.8594L31.0732 45.9311L25.4147 44.2593L26.1863 43.2733ZM29.2299 39.2867L31.6305 36.586L32.3163 37.229L30.7302 39.0295L31.6733 39.8868L33.1308 38.2579L33.8167 38.858L32.3592 40.487L33.4738 41.4729L35.1027 39.6725L35.7886 40.3155L33.3452 43.0161L29.2299 39.2867ZM32.3163 35.8573L33.7738 34.3569C33.9882 34.1426 34.2025 33.9711 34.4597 33.8854C34.674 33.7997 34.9312 33.7139 35.1456 33.7139C35.3599 33.7139 35.5743 33.7568 35.7886 33.8425C36.0029 33.9283 36.1744 34.0569 36.3459 34.2283C36.5173 34.3998 36.6031 34.5284 36.6888 34.6999C36.7745 34.8713 36.8174 35.0428 36.8174 35.2143C36.8174 35.3858 36.8174 35.5144 36.8174 35.6858C36.7745 35.8144 36.7745 35.9859 36.6888 36.0716L39.2608 36.6718L38.2749 37.6577L36.0887 36.9718L35.6171 37.4434L37.0746 38.858L36.2173 39.7154L32.3163 35.8573ZM34.9741 36.8004L35.317 36.4574C35.5314 36.2431 35.66 35.9859 35.7457 35.7716C35.8315 35.5572 35.7029 35.3 35.4885 35.0857C35.317 34.9142 35.1027 34.8285 34.8884 34.8285C34.674 34.8285 34.4597 34.9571 34.2454 35.1714L33.8167 35.6001L34.9741 36.8004ZM36.0887 32.0421L36.946 31.3134L40.2897 32.2993C40.504 32.385 40.7183 32.4279 40.9327 32.5136C41.147 32.5994 41.2756 32.6422 41.4042 32.6851C41.147 32.4279 40.8898 32.1278 40.6326 31.8278C40.3754 31.5277 40.1611 31.2276 39.9039 30.9275L38.8322 29.6415L39.6895 28.9128L43.2475 33.1566L42.3902 33.8854L39.3037 32.9852C39.1751 32.9423 39.0465 32.8994 38.875 32.8566C38.7464 32.8137 38.6178 32.7708 38.4892 32.728C38.3606 32.6851 38.232 32.6422 38.1463 32.5994C38.0606 32.5565 37.9748 32.5136 37.8891 32.4708C38.1892 32.7708 38.4464 33.028 38.6607 33.3281C38.875 33.6282 39.1322 33.8854 39.3894 34.1855L40.4611 35.4715L39.6038 36.2002L36.0887 32.0421ZM41.0613 27.7554L42.3044 26.898L44.4049 28.527C44.4907 28.6127 44.5764 28.6984 44.705 28.7413C44.7907 28.827 44.9193 28.9128 45.0051 28.9985C45.0908 29.0842 45.2194 29.17 45.3051 29.2557C45.3909 29.3415 45.4766 29.4272 45.5623 29.5129H45.6052C45.5623 29.4272 45.5195 29.3415 45.4766 29.2129C45.4337 29.0842 45.3909 28.9556 45.348 28.827C45.3051 28.6984 45.2623 28.5698 45.2194 28.4412C45.1765 28.3126 45.1337 28.184 45.0908 28.0983L44.2763 25.5691L45.5195 24.7118L48.9917 29.0414L48.0487 29.6844C47.6628 29.2129 47.277 28.6984 46.9341 28.2269C46.5483 27.7554 46.2054 27.241 45.8196 26.7265L45.3909 26.1264H45.348C45.4766 26.4265 45.6052 26.7694 45.7338 27.1123C45.8624 27.4553 45.9482 27.7554 46.0339 28.0126L46.8055 30.4989L46.0339 31.0133L43.9763 29.4272C43.719 29.2129 43.4618 28.9985 43.1618 28.7413C42.9046 28.4841 42.6474 28.2698 42.4759 28.0983C42.6045 28.2698 42.7331 28.4412 42.8617 28.6556C42.9903 28.8699 43.1189 29.0414 43.2475 29.2557C43.3761 29.4701 43.5047 29.6415 43.5905 29.813C43.7191 29.9845 43.8048 30.1559 43.8905 30.3274L44.7907 31.8278L43.8905 32.4708L41.0613 27.7554ZM46.8912 23.7687L49.9777 21.8825L50.4492 22.697L48.3916 23.983L49.0775 25.0547L50.9636 23.8544L51.4352 24.626L49.5919 25.7835L50.3635 27.0695L52.4211 25.7835L52.8927 26.5979L49.8062 28.527L46.8912 23.7687ZM51.0922 21.2395L52.0782 20.768L55.0789 22.5684C55.2932 22.697 55.4647 22.8256 55.679 22.9542C55.8505 23.0828 55.9791 23.1686 56.0649 23.2543C55.8505 22.9113 55.679 22.6113 55.5076 22.2683C55.3361 21.9254 55.1646 21.5825 54.9932 21.2395L54.2644 19.7392L55.2504 19.2248L57.6938 24.1974L56.7079 24.6689L53.9643 22.9971C53.8357 22.9113 53.7071 22.8685 53.6214 22.7827C53.4928 22.697 53.3642 22.6113 53.2785 22.5255C53.1499 22.4398 53.0641 22.3969 52.9784 22.3112C52.8927 22.2255 52.8069 22.1826 52.7641 22.1397C52.9784 22.4827 53.1499 22.8256 53.3213 23.1686C53.4928 23.5115 53.6643 23.8544 53.8357 24.1974L54.5645 25.6977L53.5357 26.2121L51.0922 21.2395ZM59.9229 17.1243L60.3087 17.9816L58.8512 18.6246L60.6945 22.8256L59.58 23.2972L57.7367 19.0962L56.3221 19.6963L55.9362 18.839L59.9229 17.1243ZM62.795 19.7392L64.1239 19.2248L63.6095 18.6246C63.438 18.4531 63.3094 18.2388 63.138 18.0673C63.0094 17.8959 62.8379 17.6815 62.7093 17.4672C62.7093 17.6815 62.7522 17.9387 62.7522 18.1959C62.7522 18.4531 62.7522 18.7103 62.795 18.9247V19.7392ZM61.6805 16.5241L62.8379 16.0954L66.696 20.5536L65.4957 21.0252L64.6383 19.9964L62.795 20.6822L62.8379 22.0111L61.6376 22.4398L61.6805 16.5241ZM65.7957 15.1524L66.9532 14.8523L68.1534 19.3105L70.2968 18.7103L70.554 19.6106L67.2104 20.5108L65.7957 15.1524ZM74.2835 16.6098L75.6552 16.3955L75.2694 15.7096C75.1408 15.4953 75.0551 15.281 74.9265 15.0666C74.8407 14.8523 74.7121 14.6379 74.6264 14.4236C74.5835 14.6379 74.5835 14.8952 74.5407 15.1524C74.4978 15.4096 74.4549 15.6239 74.4121 15.8811L74.2835 16.6098ZM73.8548 13.2233L75.098 13.009L78.0129 18.1531L76.7698 18.3674L76.1268 17.1671L74.1977 17.4672L73.9834 18.7961L72.7403 19.0104L73.8548 13.2233ZM77.8843 12.6232L79.0846 12.4946L79.4704 15.7954C79.5133 16.2669 79.6419 16.567 79.8562 16.7813C80.0706 16.9957 80.3706 17.0814 80.7564 17.0385C81.1423 16.9957 81.3995 16.8242 81.5281 16.567C81.6567 16.3098 81.7424 16.0097 81.6995 15.6239L81.3137 12.2374L82.514 12.1088L82.8998 15.4096C82.9855 16.1812 82.8569 16.7813 82.514 17.21C82.1711 17.6387 81.6138 17.8959 80.885 17.9816C80.1563 18.0673 79.5562 17.9387 79.1275 17.5958C78.6559 17.2529 78.3987 16.6956 78.313 15.8811L77.8843 12.6232ZM87.8296 12.023V12.9661H86.2435L86.2863 17.5529H85.0861L85.0432 12.9661H83.5V12.023H87.8296ZM88.3868 17.5958L88.6012 12.0659L89.8015 12.1088L89.7157 14.295L91.8162 14.3807L91.902 12.1945L93.1022 12.2374L92.8879 17.7673L91.6876 17.7244L91.7734 15.3238L89.6729 15.2381L89.5871 17.6387L88.3868 17.5958ZM97.2175 12.5803C97.6033 12.6232 97.9463 12.7518 98.2892 12.9233C98.5893 13.0947 98.8465 13.3091 99.0608 13.6091C99.2751 13.8663 99.4037 14.2093 99.4895 14.5951C99.5752 14.9809 99.5752 15.3667 99.5324 15.8382C99.4895 16.2669 99.3609 16.6527 99.1465 16.9957C98.9751 17.3386 98.7179 17.5958 98.4607 17.8101C98.2035 18.0245 97.8605 18.1531 97.5176 18.2388C97.1746 18.3245 96.7888 18.3245 96.403 18.2817C96.0172 18.2388 95.6743 18.1102 95.3313 17.9387C95.0313 17.7673 94.7741 17.5529 94.5597 17.2529C94.3454 16.9957 94.2168 16.6527 94.1311 16.2669C94.0453 15.8811 94.0453 15.4953 94.0882 15.0238C94.1311 14.5951 94.2597 14.2093 94.474 13.8663C94.6455 13.5234 94.9027 13.2662 95.1599 13.0519C95.4171 12.8375 95.76 12.7089 96.103 12.6232C96.4459 12.5375 96.8317 12.5374 97.2175 12.5803ZM95.3313 15.2381C95.2885 15.581 95.2885 15.8382 95.3313 16.0954C95.3742 16.3526 95.46 16.567 95.5457 16.7384C95.6743 16.9099 95.8029 17.0385 95.9744 17.1671C96.1458 17.2529 96.3173 17.3386 96.5316 17.3815C96.746 17.4243 96.9174 17.3815 97.1318 17.3386C97.3461 17.2957 97.4747 17.1671 97.6462 17.0385C97.8177 16.9099 97.9463 16.6956 98.032 16.4812C98.1606 16.2669 98.2035 15.9668 98.2463 15.6668C98.2892 15.3238 98.2892 15.0238 98.2463 14.7666C98.2035 14.5093 98.1177 14.295 98.032 14.1235C97.9034 13.9521 97.7748 13.8235 97.6033 13.6949C97.4319 13.6091 97.2604 13.5234 97.046 13.4805C96.8317 13.4377 96.6602 13.4805 96.4459 13.5234C96.2744 13.5663 96.103 13.6949 95.9315 13.8235C95.76 13.9521 95.6314 14.1664 95.5457 14.3807C95.46 14.5951 95.3742 14.8952 95.3313 15.2381ZM100.904 13.2662L102.962 13.652C103.262 13.6949 103.519 13.8235 103.733 13.9521C103.948 14.0807 104.119 14.2521 104.248 14.4236C104.376 14.5951 104.462 14.8094 104.505 15.0238C104.548 15.2381 104.548 15.4524 104.505 15.7096C104.462 15.924 104.376 16.1383 104.291 16.2669C104.205 16.4384 104.076 16.567 103.948 16.6527C103.819 16.7384 103.69 16.8242 103.562 16.9099C103.433 16.9528 103.305 16.9957 103.176 17.0385L104.076 19.5248L102.705 19.2676L102.062 17.0385L101.419 16.9099L101.033 18.9247L99.8753 18.7103L100.904 13.2662ZM101.59 16.0097L102.062 16.0954C102.362 16.1383 102.619 16.1383 102.876 16.0526C103.09 15.9668 103.219 15.7525 103.305 15.4953C103.348 15.2381 103.305 15.0238 103.176 14.8523C103.047 14.6808 102.833 14.5522 102.533 14.5093L101.933 14.3807L101.59 16.0097ZM107.077 14.6379L105.748 19.9964L104.591 19.6963L105.92 14.295L107.077 14.6379ZM111.964 16.0526L111.707 16.9528L110.206 16.4812L108.877 20.8966L107.72 20.5536L109.049 16.1383L107.591 15.7096L107.849 14.8094L111.964 16.0526ZM113.893 16.7813L114.15 19.2248L116.079 17.6815L117.279 18.1959L114.236 20.4679L113.379 22.5684L112.264 22.0969L113.121 19.9964L112.607 16.2669L113.893 16.7813ZM122.552 20.5965C122.895 20.768 123.195 21.0252 123.409 21.2824C123.667 21.5396 123.795 21.8397 123.924 22.1826C124.01 22.5255 124.052 22.8685 124.01 23.2543C123.967 23.6401 123.838 24.0259 123.624 24.4546C123.409 24.8404 123.152 25.1833 122.895 25.3977C122.595 25.6549 122.295 25.8263 121.952 25.9121C121.609 25.9978 121.266 26.0407 120.923 25.9978C120.58 25.9549 120.194 25.8263 119.851 25.6549C119.509 25.4834 119.208 25.2262 118.994 24.969C118.737 24.7118 118.608 24.4117 118.48 24.0688C118.394 23.7258 118.351 23.3829 118.394 22.9971C118.437 22.6113 118.565 22.2255 118.78 21.8397C118.994 21.4539 119.251 21.1109 119.509 20.8966C119.809 20.6394 120.109 20.4679 120.452 20.3822C120.795 20.2964 121.138 20.2536 121.48 20.2964C121.823 20.2964 122.166 20.3822 122.552 20.5965ZM119.851 22.4398C119.68 22.7399 119.594 22.9971 119.551 23.2543C119.509 23.5115 119.509 23.7258 119.551 23.9402C119.594 24.1545 119.68 24.326 119.809 24.4974C119.937 24.6689 120.066 24.7975 120.28 24.8832C120.452 24.969 120.623 25.0119 120.837 25.0547C121.052 25.0547 121.223 25.0547 121.395 24.969C121.566 24.8832 121.781 24.7546 121.952 24.5832C122.123 24.4117 122.295 24.1545 122.466 23.8973C122.638 23.5972 122.724 23.2972 122.766 23.0828C122.809 22.8256 122.809 22.6113 122.766 22.3969C122.724 22.1826 122.638 22.0111 122.509 21.8397C122.381 21.6682 122.252 21.5825 122.038 21.4539C121.866 21.3681 121.652 21.3253 121.48 21.2824C121.266 21.2824 121.095 21.3253 120.923 21.411C120.752 21.4967 120.537 21.6253 120.366 21.7968C120.194 21.9254 120.023 22.1397 119.851 22.4398ZM126.067 22.5684L126.967 23.1686L126.925 26.6837C126.925 26.9409 126.925 27.1552 126.882 27.3696C126.882 27.5839 126.839 27.7554 126.839 27.884C127.01 27.541 127.225 27.241 127.439 26.898C127.653 26.5979 127.868 26.255 128.082 25.9549L128.982 24.5832L129.925 25.1833L126.839 29.813L125.939 29.2129V25.9978C125.939 25.8692 125.939 25.6977 125.939 25.5691C125.939 25.4405 125.939 25.2691 125.982 25.1405C125.982 25.0118 126.024 24.8832 126.024 24.7975C126.024 24.6689 126.067 24.5832 126.067 24.5403C125.853 24.8832 125.681 25.2262 125.467 25.5263C125.253 25.8263 125.038 26.1693 124.824 26.4693L123.881 27.884L122.938 27.241L126.067 22.5684ZM134.555 28.5698C134.898 28.827 135.155 29.1271 135.369 29.4272C135.584 29.7273 135.712 30.0702 135.755 30.3703C135.798 30.7132 135.798 31.0561 135.67 31.3991C135.584 31.742 135.369 32.085 135.112 32.4279C134.812 32.8137 134.469 33.1138 134.083 33.2852C133.741 33.4567 133.355 33.5425 133.012 33.5853C132.626 33.5853 132.283 33.5425 131.897 33.371C131.511 33.1995 131.168 33.028 130.868 32.728L129.54 31.6563L133.012 27.3267L134.555 28.5698ZM131.083 31.6992L131.426 31.9564C131.597 32.1278 131.811 32.2564 132.026 32.3422C132.24 32.4279 132.454 32.4708 132.712 32.4708C132.926 32.4708 133.183 32.385 133.398 32.2564C133.655 32.1278 133.869 31.9135 134.126 31.6134C134.469 31.1847 134.641 30.7561 134.555 30.3274C134.512 29.8987 134.255 29.5129 133.826 29.17L133.398 28.827L131.083 31.6992ZM137.513 31.0561L140.213 33.4567L139.613 34.1426L137.813 32.5565L136.956 33.4996L138.585 34.9571L137.984 35.643L136.355 34.1855L135.369 35.3L137.17 36.929L136.527 37.6149L133.826 35.2143L137.513 31.0561ZM141.542 34.8713L140.085 37.4863C140.042 37.572 139.956 37.6577 139.913 37.7863C139.828 37.9149 139.785 38.0435 139.699 38.1721C139.613 38.3007 139.528 38.4293 139.485 38.5579C139.399 38.6865 139.356 38.7723 139.27 38.9009C139.485 38.7723 139.699 38.6437 139.956 38.5151C140.213 38.3865 140.471 38.2579 140.685 38.1721L143.386 36.929L144.243 37.8292L138.842 40.144L137.942 39.2009L140.642 33.9711L141.542 34.8713ZM144.757 38.4293L147.072 41.2157L146.344 41.8159L144.8 39.9726L143.814 40.787L145.229 42.4589L144.5 43.059L143.086 41.3872L141.928 42.3303L143.471 44.1736L142.743 44.7737L140.385 41.9873L144.757 38.4293ZM147.63 41.9873L148.358 42.9304L144.715 45.7168L146.086 47.4743L145.315 48.0316L143.214 45.2881L147.63 41.9873ZM151.573 47.5601C151.788 47.903 151.916 48.246 152.002 48.5889C152.088 48.9318 152.045 49.2748 152.002 49.6177C151.916 49.9607 151.745 50.2607 151.53 50.5608C151.316 50.8609 150.973 51.1609 150.587 51.3753C150.202 51.5896 149.816 51.7611 149.473 51.8468C149.087 51.9326 148.744 51.8897 148.401 51.8468C148.058 51.7611 147.758 51.6325 147.458 51.4181C147.158 51.2038 146.901 50.9037 146.729 50.6037C146.515 50.2607 146.386 49.9178 146.301 49.5748C146.215 49.2319 146.258 48.889 146.301 48.546C146.386 48.2031 146.515 47.903 146.772 47.6029C146.987 47.3029 147.329 47.0457 147.715 46.7885C148.101 46.5741 148.487 46.4027 148.83 46.3169C149.216 46.2312 149.559 46.2741 149.901 46.3169C150.244 46.4027 150.545 46.5313 150.845 46.7456C151.145 46.9599 151.402 47.26 151.573 47.5601ZM148.358 47.8173C148.058 47.9888 147.844 48.1602 147.672 48.3746C147.501 48.5889 147.372 48.7604 147.329 48.9747C147.287 49.189 147.244 49.3605 147.287 49.5748C147.329 49.7892 147.372 49.9607 147.501 50.1321C147.587 50.3036 147.758 50.4322 147.887 50.5608C148.058 50.6894 148.23 50.7323 148.444 50.7751C148.658 50.818 148.873 50.7751 149.13 50.7323C149.387 50.6894 149.644 50.5608 149.901 50.3893C150.202 50.2179 150.416 50.0035 150.587 49.8321C150.759 49.6177 150.887 49.4462 150.93 49.2319C151.016 49.0176 151.016 48.8461 150.973 48.6318C150.93 48.4603 150.887 48.246 150.759 48.0745C150.63 47.903 150.502 47.7744 150.373 47.6458C150.202 47.5601 150.03 47.4743 149.816 47.4315C149.601 47.3886 149.387 47.4315 149.13 47.4743C148.916 47.5172 148.658 47.6458 148.358 47.8173ZM153.631 51.0752L154.488 52.8328C154.617 53.1328 154.746 53.39 154.788 53.6901C154.831 53.9473 154.831 54.2045 154.788 54.4189C154.746 54.6332 154.66 54.8475 154.488 55.019C154.36 55.1905 154.145 55.3619 153.931 55.4905C153.631 55.6191 153.374 55.7049 153.117 55.7049C152.859 55.7049 152.602 55.662 152.388 55.5334C152.173 55.4048 151.959 55.2762 151.788 55.0619C151.616 54.8475 151.445 54.5903 151.316 54.3331L151.016 53.7758L149.216 54.6761L148.701 53.6044L153.631 51.0752ZM151.831 53.3043L152.045 53.733C152.131 53.8616 152.173 53.9902 152.259 54.1188C152.345 54.2474 152.431 54.3331 152.559 54.376C152.645 54.4189 152.774 54.4617 152.902 54.4617C153.031 54.4617 153.159 54.4189 153.288 54.376C153.545 54.2474 153.674 54.0759 153.717 53.8187C153.76 53.6044 153.717 53.3472 153.588 53.0471L153.331 52.5327L151.831 53.3043ZM155.989 55.8763L156.589 57.291L154.574 59.0057C154.488 59.0914 154.403 59.1771 154.274 59.2629C154.188 59.3486 154.06 59.4343 153.974 59.5201C153.888 59.6058 153.76 59.6915 153.674 59.7773C153.588 59.863 153.459 59.9059 153.374 59.9916V60.0345C153.459 59.9916 153.588 59.9916 153.717 59.9487C153.845 59.9059 153.974 59.9059 154.103 59.863C154.231 59.8201 154.36 59.8201 154.488 59.8201C154.617 59.8201 154.746 59.7773 154.831 59.7773L157.446 59.4772L158.046 60.8918L153.117 63.5067L152.645 62.4779C153.202 62.2207 153.717 61.9206 154.274 61.6634C154.831 61.4062 155.389 61.1062 155.946 60.849L156.589 60.5489V60.506C156.246 60.5489 155.903 60.6346 155.56 60.6775C155.217 60.7204 154.874 60.7632 154.617 60.8061L152.045 61.0633L151.659 60.206L153.631 58.4913C153.888 58.2769 154.145 58.0626 154.445 57.8482C154.746 57.6339 155.003 57.4196 155.217 57.291V57.2481C155.003 57.3338 154.831 57.4196 154.617 57.5053C154.403 57.591 154.188 57.6768 153.974 57.7625C153.76 57.8482 153.545 57.934 153.331 58.0197C153.117 58.1054 152.945 58.1912 152.774 58.234L151.102 58.8342L150.673 57.8054L155.989 55.8763ZM158.732 62.6494L159.847 66.0788L158.947 66.3788L158.218 64.1069L157.017 64.4927L157.703 66.5503L156.803 66.8504L156.117 64.7928L154.703 65.2643L155.474 67.5791L154.574 67.8792L153.459 64.4069L158.732 62.6494ZM160.104 67.0647L160.404 68.1364L158.089 70.7513C157.918 70.9228 157.789 71.0943 157.618 71.2657C157.446 71.4372 157.318 71.5229 157.232 71.6087C157.575 71.4801 157.961 71.3515 158.304 71.2657C158.646 71.18 159.032 71.0514 159.418 70.9657L161.047 70.537L161.347 71.6087L155.989 73.0662L155.689 71.9945L157.832 69.5939C157.918 69.5082 158.003 69.3796 158.132 69.2938C158.218 69.2081 158.346 69.0795 158.432 68.9938C158.518 68.908 158.604 68.8223 158.689 68.7365C158.775 68.6508 158.818 68.6079 158.904 68.5651C158.518 68.6937 158.132 68.8223 157.789 68.908C157.446 68.9938 157.06 69.1224 156.675 69.2081L155.046 69.6368L154.746 68.5651L160.104 67.0647ZM162.204 76.8813L161.261 77.0528L161.004 75.5096L156.46 76.2383L156.246 75.038L160.79 74.3093L160.533 72.8089L161.476 72.6375L162.204 76.8813ZM15.941 100.373L16.1553 101.53L16.7126 101.187C16.8841 101.101 17.0556 100.973 17.2699 100.887C17.4414 100.801 17.6557 100.716 17.8272 100.587C17.6128 100.587 17.4414 100.544 17.227 100.501C17.0127 100.458 16.7983 100.458 16.584 100.416L15.941 100.373ZM18.7702 99.944L18.9846 100.973L14.6978 103.588L14.4835 102.516L15.4695 101.959L15.1694 100.33L14.0548 100.158L13.8405 99.0866L18.7702 99.944ZM19.3275 102.816L19.6276 103.802L16.927 104.574C16.5411 104.659 16.2839 104.831 16.1553 105.045C15.9839 105.26 15.9839 105.517 16.0696 105.817C16.1553 106.117 16.3268 106.331 16.5411 106.417C16.7983 106.503 17.0556 106.503 17.3556 106.417L20.142 105.602L20.4421 106.588L17.6986 107.36C17.0556 107.532 16.5411 107.532 16.1553 107.274C15.7695 107.06 15.4695 106.631 15.298 105.988C15.1265 105.388 15.1694 104.874 15.3837 104.445C15.5981 104.016 16.0267 103.716 16.7126 103.502L19.3275 102.816ZM21.6424 110.404L20.8707 110.661L20.4421 109.375L16.7126 110.618L16.3697 109.632L20.0991 108.389L19.6705 107.146L20.4421 106.889L21.6424 110.404ZM22.5426 112.504C22.6712 112.804 22.714 113.104 22.714 113.447C22.714 113.747 22.6712 114.047 22.5426 114.305C22.414 114.562 22.2425 114.819 21.9853 115.033C21.7281 115.248 21.428 115.419 21.0851 115.591C20.7421 115.719 20.3992 115.805 20.0563 115.805C19.7133 115.805 19.4561 115.719 19.1561 115.633C18.8988 115.505 18.6416 115.333 18.4273 115.119C18.213 114.905 18.0415 114.605 17.9129 114.305C17.7843 114.004 17.7414 113.704 17.7414 113.361C17.7414 113.061 17.7843 112.761 17.9129 112.504C18.0415 112.247 18.213 111.99 18.4702 111.775C18.7274 111.561 19.0275 111.39 19.3704 111.218C19.7133 111.089 20.0563 111.004 20.3992 111.004C20.7421 111.004 21.0422 111.047 21.2994 111.175C21.5566 111.304 21.8138 111.475 22.0282 111.69C22.2854 111.904 22.414 112.204 22.5426 112.504ZM19.7991 112.204C19.5419 112.29 19.3275 112.418 19.1561 112.547C18.9846 112.676 18.856 112.847 18.7702 112.976C18.6845 113.147 18.6416 113.276 18.6416 113.447C18.6416 113.619 18.6416 113.79 18.7274 113.962C18.7702 114.133 18.8988 114.262 18.9846 114.39C19.1132 114.519 19.2418 114.605 19.4133 114.647C19.5847 114.69 19.7562 114.733 19.9705 114.69C20.1849 114.69 20.4421 114.605 20.6993 114.519C20.9565 114.433 21.1708 114.305 21.3423 114.133C21.5138 114.004 21.6424 113.833 21.7281 113.704C21.8138 113.533 21.8567 113.404 21.8567 113.233C21.8567 113.061 21.8138 112.89 21.771 112.761C21.7281 112.59 21.5995 112.461 21.5138 112.333C21.3852 112.204 21.2566 112.118 21.0851 112.075C20.9136 112.033 20.7421 111.99 20.4849 112.033C20.3135 112.033 20.0563 112.118 19.7991 112.204ZM23.5285 115.033L24.3001 116.662C24.4287 116.919 24.4716 117.134 24.5145 117.348C24.5145 117.562 24.5145 117.777 24.4716 117.948C24.4287 118.12 24.3001 118.291 24.1715 118.42C24.0429 118.548 23.8715 118.677 23.7 118.763C23.5285 118.848 23.3571 118.891 23.2285 118.891C23.057 118.891 22.9284 118.891 22.7998 118.848C22.6712 118.806 22.5426 118.763 22.414 118.72C22.2854 118.634 22.1996 118.591 22.1139 118.506L20.8707 120.392L20.3563 119.32L21.5138 117.734L21.2566 117.262L19.7133 118.034L19.2847 117.134L23.5285 115.033ZM21.9853 116.919L22.1568 117.262C22.2854 117.52 22.414 117.691 22.5854 117.777C22.7569 117.863 22.9712 117.863 23.1856 117.777C23.3999 117.691 23.5285 117.52 23.5714 117.348C23.6143 117.177 23.5714 116.962 23.4857 116.705L23.2713 116.234L21.9853 116.919ZM25.7576 119.534L21.6424 121.806L21.128 120.906L25.2432 118.634L25.7576 119.534ZM27.7724 123.007L27.0865 123.435L26.4006 122.278L23.057 124.293L22.5426 123.435L25.8862 121.421L25.2004 120.306L25.8862 119.877L27.7724 123.007ZM27.901 123.307L29.6157 125.879L28.9727 126.307L27.8581 124.593L26.9579 125.193L27.9867 126.736L27.3437 127.165L26.3149 125.622L25.2432 126.307L26.4006 128.022L25.7576 128.451L24.0429 125.879L27.901 123.307ZM29.187 124.378L28.7155 123.693H29.83L30.4302 124.593L29.187 124.378ZM31.7162 128.794L27.901 131.58L27.3009 130.766L31.116 127.979L31.7162 128.794ZM32.1877 129.437L32.7879 130.165L31.8448 132.995C31.8019 133.166 31.7162 133.381 31.6305 133.552C31.5447 133.723 31.5019 133.852 31.459 133.938C31.6733 133.723 31.9305 133.509 32.1877 133.295C32.4449 133.08 32.7021 132.909 32.9593 132.695L34.0739 131.794L34.674 132.523L30.9874 135.481L30.3873 134.752L31.2446 132.137C31.2875 132.009 31.3304 131.923 31.3733 131.794C31.4161 131.666 31.459 131.58 31.5019 131.451C31.5447 131.366 31.5876 131.237 31.6305 131.151C31.6733 131.066 31.7162 130.98 31.7162 130.937C31.459 131.151 31.2018 131.409 30.9874 131.58C30.7302 131.794 30.473 131.966 30.2158 132.18L29.1013 133.08L28.5011 132.352L32.1877 129.437ZM37.2889 135.267L36.6888 135.824L35.7457 134.881L32.9165 137.582L32.1877 136.853L35.017 134.152L34.1168 133.209L34.7169 132.652L37.2889 135.267ZM37.5461 135.524L39.7753 137.667L39.218 138.225L37.7605 136.81L37.0317 137.582L38.3606 138.868L37.8034 139.425L36.4745 138.139L35.6171 139.039L37.1175 140.454L36.5602 141.011L34.3311 138.868L37.5461 135.524ZM40.1611 138.053L41.4899 139.253C41.7043 139.425 41.8329 139.596 41.9186 139.811C42.0044 139.982 42.0901 140.196 42.0901 140.368C42.0901 140.539 42.0901 140.754 42.0044 140.925C41.9186 141.097 41.8329 141.268 41.7043 141.44C41.5757 141.568 41.4471 141.697 41.3185 141.783C41.1899 141.868 41.0613 141.911 40.8898 141.911C40.7612 141.954 40.6326 141.954 40.504 141.911C40.3754 141.911 40.2468 141.868 40.1611 141.825L39.7753 144.012L38.875 143.24L39.3466 141.354L38.9179 141.011L37.7605 142.297L36.9889 141.611L40.1611 138.053ZM39.4752 140.368L39.7753 140.625C39.9896 140.797 40.1611 140.925 40.3754 140.925C40.5897 140.968 40.7612 140.882 40.9327 140.668C41.0613 140.497 41.147 140.325 41.1041 140.154C41.0613 139.982 40.9755 139.811 40.7612 139.596L40.3754 139.253L39.4752 140.368ZM45.0051 142.04C45.2194 142.211 45.4337 142.426 45.5623 142.597C45.6909 142.768 45.8196 142.983 45.9053 143.154L45.3051 143.54C45.2194 143.369 45.1337 143.197 45.0051 143.069C44.8765 142.94 44.7479 142.811 44.6193 142.683C44.4478 142.554 44.2763 142.468 44.1049 142.383C43.9334 142.34 43.719 142.297 43.5476 142.34C43.3332 142.383 43.1618 142.426 42.9474 142.554C42.7331 142.683 42.5616 142.854 42.3473 143.069C42.0044 143.497 41.8329 143.883 41.8329 144.269C41.8329 144.655 42.0044 144.998 42.3473 145.255C42.5616 145.426 42.7331 145.512 42.8617 145.555L43.5476 144.698L42.9474 144.226L43.419 143.626L44.7907 144.74L43.2904 146.584C43.076 146.541 42.8617 146.455 42.6474 146.326C42.3902 146.198 42.1758 146.026 41.9186 145.812C41.6614 145.598 41.4471 145.341 41.2756 145.083C41.1041 144.826 41.0184 144.526 40.9755 144.226C40.9327 143.926 40.9755 143.626 41.0613 143.283C41.147 142.983 41.3185 142.64 41.5757 142.34C41.8329 142.04 42.0901 141.783 42.3902 141.654C42.6902 141.482 42.9903 141.397 43.2904 141.397C43.5904 141.397 43.8905 141.397 44.1906 141.525C44.4478 141.654 44.7479 141.783 45.0051 142.04ZM48.3916 144.44C48.6488 144.612 48.906 144.826 49.0775 145.083C49.2489 145.341 49.3775 145.598 49.4204 145.898C49.4633 146.198 49.4633 146.498 49.3775 146.798C49.2918 147.098 49.1632 147.441 48.9489 147.741C48.7345 148.041 48.4773 148.298 48.2201 148.47C47.9629 148.641 47.6628 148.77 47.3628 148.813C47.0627 148.856 46.7626 148.856 46.4626 148.813C46.1625 148.727 45.8624 148.598 45.6052 148.427C45.348 148.256 45.0908 148.041 44.9193 147.784C44.7479 147.527 44.6193 147.27 44.5764 146.969C44.5335 146.669 44.5335 146.369 44.6193 146.069C44.705 145.769 44.8336 145.426 45.0479 145.126C45.2623 144.826 45.5195 144.569 45.7767 144.397C46.0339 144.226 46.334 144.097 46.634 144.054C46.9341 144.012 47.2342 144.012 47.5342 144.054C47.8343 144.097 48.1344 144.226 48.3916 144.44ZM45.991 145.726C45.8196 145.941 45.7338 146.198 45.6481 146.369C45.6052 146.584 45.5623 146.755 45.6052 146.969C45.6052 147.141 45.6909 147.312 45.7767 147.441C45.8624 147.57 45.991 147.698 46.1196 147.784C46.2482 147.87 46.4197 147.955 46.5912 147.955C46.7626 147.998 46.9341 147.955 47.1056 147.913C47.277 147.87 47.4485 147.784 47.62 147.612C47.7914 147.484 47.9629 147.312 48.0915 147.055C48.263 146.798 48.3487 146.584 48.4345 146.369C48.4773 146.155 48.5202 145.984 48.5202 145.769C48.5202 145.598 48.4345 145.426 48.3487 145.298C48.263 145.169 48.1344 145.04 48.0058 144.955C47.8772 144.869 47.7057 144.783 47.5342 144.783C47.3628 144.74 47.1913 144.783 47.0198 144.826C46.8484 144.869 46.6769 144.955 46.5054 145.126C46.2911 145.341 46.1196 145.512 45.991 145.726ZM50.5778 146.026L51.478 146.541L50.1063 148.984C49.9348 149.327 49.8491 149.627 49.892 149.884C49.9348 150.142 50.1063 150.356 50.3635 150.527C50.6636 150.699 50.9208 150.699 51.1351 150.613C51.3494 150.527 51.5638 150.313 51.7352 150.013L53.1499 147.484L54.0501 147.998L52.6355 150.485C52.2925 151.042 51.9067 151.385 51.478 151.513C51.0494 151.642 50.535 151.556 49.9777 151.213C49.4204 150.913 49.0775 150.527 48.9489 150.056C48.8203 149.584 48.906 149.07 49.2489 148.47L50.5778 146.026ZM55.2075 148.598L54.8217 151.085C54.8217 151.17 54.7788 151.256 54.7788 151.385C54.7788 151.513 54.736 151.599 54.736 151.728C54.6931 151.856 54.6931 151.985 54.6502 152.114C54.6074 152.242 54.6074 152.328 54.5645 152.457C54.6931 152.285 54.8217 152.156 55.036 151.942C55.2075 151.771 55.379 151.599 55.5076 151.428L57.308 149.627L58.2511 150.099L54.6502 153.571L53.6643 153.057L54.2644 148.084L55.2075 148.598ZM58.594 150.227L61.3804 151.513L61.0375 152.242L59.1942 151.385L58.7655 152.371L60.4373 153.142L60.0944 153.871L58.4226 153.1L57.9081 154.257L59.7943 155.114L59.4514 155.843L56.6221 154.557L58.594 150.227ZM61.6805 151.599L63.3952 152.156C63.6524 152.242 63.8667 152.371 64.0382 152.499C64.2096 152.628 64.3382 152.799 64.424 152.971C64.5097 153.142 64.5526 153.314 64.5526 153.528C64.5526 153.7 64.5097 153.914 64.4668 154.085C64.424 154.257 64.3382 154.428 64.2096 154.557C64.081 154.686 63.9953 154.771 63.8667 154.857C63.7381 154.943 63.6095 154.986 63.5238 155.029C63.3952 155.071 63.2666 155.071 63.1808 155.114L63.6524 157.301L62.5378 156.915L62.2377 154.986L61.7233 154.814L61.1661 156.443L60.223 156.1L61.6805 151.599ZM61.9377 154L62.3235 154.128C62.5807 154.214 62.795 154.214 63.0094 154.171C63.2237 154.128 63.3523 153.957 63.438 153.743C63.5238 153.528 63.4809 153.357 63.3952 153.185C63.3094 153.014 63.138 152.885 62.8808 152.799L62.4092 152.628L61.9377 154ZM65.4957 152.928L66.3959 153.185L67.2532 156.014C67.2961 156.229 67.339 156.4 67.3818 156.572C67.4247 156.743 67.4676 156.915 67.4676 157C67.5104 156.7 67.5962 156.357 67.6819 156.057C67.7676 155.757 67.8534 155.457 67.9391 155.114L68.3249 153.743L69.2251 154L67.8962 158.544L66.996 158.286L66.1815 155.672C66.1387 155.543 66.0958 155.457 66.0958 155.329C66.0529 155.2 66.0529 155.071 66.0101 154.986C65.9672 154.857 65.9672 154.771 65.9672 154.686C65.9672 154.6 65.9243 154.514 65.9243 154.471C65.8386 154.814 65.7529 155.114 65.6671 155.414C65.5814 155.714 65.4957 156.014 65.4099 156.357L65.0241 157.729L64.1239 157.472L65.4957 152.928ZM70.0825 154.257L73.0403 155.029L72.826 155.8L70.8541 155.286L70.5969 156.315L72.3973 156.786L72.183 157.558L70.3825 157.086L70.0825 158.329L72.0972 158.844L71.8829 159.615L68.8822 158.844L70.0825 154.257ZM73.6405 155.114L74.9265 155.329L75.2694 157.558C75.2694 157.643 75.3123 157.772 75.3123 157.858C75.3123 157.986 75.3552 158.072 75.3552 158.201C75.3552 158.329 75.398 158.415 75.398 158.544C75.398 158.672 75.398 158.758 75.398 158.844H75.4409C75.4838 158.758 75.4838 158.672 75.5266 158.587C75.5695 158.501 75.6124 158.372 75.6552 158.286C75.6981 158.158 75.741 158.072 75.7838 157.986C75.8267 157.901 75.8696 157.772 75.9124 157.686L76.8984 155.672L78.1844 155.886L77.7986 160.601L76.8555 160.473C76.8984 159.958 76.9412 159.444 76.9841 158.929C77.027 158.415 77.1127 157.901 77.1556 157.386L77.2413 156.786H77.1985C77.1127 157.043 76.9841 157.301 76.8555 157.601C76.7269 157.901 76.6412 158.115 76.5126 158.329L75.5266 160.301L74.755 160.173L74.4121 157.986C74.3692 157.686 74.3263 157.429 74.2835 157.086C74.2406 156.786 74.2406 156.529 74.2406 156.272H74.1977C74.1549 156.443 74.1549 156.615 74.112 156.829C74.0691 157.043 74.0263 157.215 73.9834 157.386C73.9405 157.558 73.8977 157.772 73.8548 157.944C73.8119 158.115 73.7691 158.286 73.7691 158.458L73.469 159.915L72.5259 159.787L73.6405 155.114ZM79.299 155.929L82.3425 156.272L82.2568 157.043L80.242 156.829L80.1134 157.901L81.9567 158.115L81.871 158.887L80.0277 158.672L79.8991 159.915L81.9567 160.13L81.871 160.901L78.7845 160.558L79.299 155.929ZM82.7283 156.315L83.6714 156.357L85.2146 158.887C85.3004 159.058 85.429 159.23 85.5147 159.401C85.6005 159.572 85.6862 159.701 85.6862 159.787C85.6862 159.444 85.6433 159.144 85.6862 158.801C85.6862 158.458 85.6862 158.158 85.7291 157.815L85.7719 156.4L86.715 156.443L86.5864 161.159L85.6433 161.116L84.1858 158.801C84.143 158.715 84.0572 158.587 84.0144 158.501C83.9715 158.372 83.8858 158.286 83.8429 158.201C83.8 158.115 83.7572 157.986 83.7143 157.944C83.6714 157.858 83.6286 157.772 83.6286 157.729C83.6286 158.072 83.6286 158.415 83.6286 158.715C83.6286 159.015 83.6286 159.358 83.5857 159.701L83.5428 161.116L82.5997 161.073L82.7283 156.315ZM90.6588 156.357L90.7017 157.172L89.3728 157.215L89.4585 161.116L88.4297 161.159L88.344 157.258L87.0579 157.301L87.0151 156.486L90.6588 156.357ZM92.0306 159.144L93.2309 159.058L92.9736 158.458C92.8879 158.286 92.8022 158.072 92.7593 157.901C92.6736 157.729 92.6307 157.515 92.545 157.301C92.5021 157.515 92.4592 157.686 92.4164 157.901C92.3735 158.115 92.3306 158.286 92.2449 158.501L92.0306 159.144ZM91.902 156.272L92.9736 156.186L95.0313 160.773L93.9596 160.859L93.5309 159.787L91.8591 159.915L91.559 161.03L90.4873 161.116L91.902 156.272ZM95.0741 155.972L96.103 155.843L96.5316 159.744L98.4178 159.53L98.5035 160.344L95.5886 160.644L95.0741 155.972ZM98.3321 155.586L101.376 155.114L101.504 155.886L99.4895 156.186L99.661 157.258L101.504 157L101.633 157.772L99.7896 158.029L99.961 159.272L102.019 158.972L102.147 159.744L99.1037 160.215L98.3321 155.586ZM103.605 154.514L105.191 154.128C105.448 154.043 105.705 154.043 105.92 154.043C106.134 154.043 106.348 154.085 106.52 154.171C106.691 154.257 106.863 154.386 106.991 154.514C107.12 154.686 107.206 154.857 107.248 155.071C107.334 155.329 107.334 155.586 107.291 155.8C107.248 156.014 107.163 156.186 107.034 156.357C106.906 156.529 106.734 156.658 106.52 156.786C106.305 156.915 106.091 157 105.834 157.043L105.319 157.172L105.748 158.844L104.762 159.101L103.605 154.514ZM105.148 156.443L105.534 156.357C105.662 156.315 105.791 156.272 105.877 156.229C105.962 156.186 106.091 156.1 106.134 156.057C106.22 155.972 106.263 155.886 106.263 155.8C106.305 155.714 106.305 155.586 106.263 155.457C106.22 155.2 106.091 155.071 105.877 154.986C105.705 154.9 105.491 154.9 105.234 154.986L104.762 155.114L105.148 156.443ZM109.22 152.885C109.52 152.757 109.863 152.714 110.163 152.757C110.464 152.757 110.764 152.842 111.021 152.971C111.278 153.1 111.535 153.271 111.75 153.528C111.964 153.785 112.135 154.085 112.264 154.471C112.393 154.814 112.435 155.157 112.435 155.5C112.435 155.843 112.35 156.1 112.221 156.4C112.092 156.658 111.921 156.915 111.664 157.086C111.449 157.301 111.149 157.429 110.849 157.558C110.549 157.686 110.206 157.729 109.906 157.729C109.606 157.729 109.306 157.643 109.049 157.515C108.792 157.386 108.534 157.215 108.363 156.958C108.149 156.7 107.977 156.4 107.849 156.014C107.72 155.672 107.677 155.329 107.677 154.986C107.677 154.643 107.763 154.343 107.891 154.085C108.02 153.828 108.192 153.571 108.449 153.4C108.62 153.142 108.92 152.971 109.22 152.885ZM108.835 155.586C108.92 155.843 109.049 156.057 109.178 156.229C109.306 156.4 109.435 156.529 109.606 156.615C109.778 156.7 109.906 156.743 110.078 156.786C110.249 156.786 110.421 156.786 110.592 156.7C110.764 156.658 110.892 156.572 111.021 156.443C111.149 156.315 111.235 156.186 111.278 156.014C111.321 155.843 111.364 155.672 111.364 155.457C111.364 155.243 111.321 154.986 111.235 154.728C111.149 154.471 111.021 154.214 110.892 154.043C110.764 153.871 110.635 153.743 110.464 153.657C110.292 153.571 110.163 153.528 109.992 153.485C109.821 153.485 109.649 153.485 109.478 153.571C109.306 153.614 109.178 153.7 109.049 153.828C108.92 153.957 108.835 154.085 108.792 154.257C108.749 154.428 108.706 154.6 108.706 154.814C108.706 155.071 108.749 155.329 108.835 155.586ZM111.964 151.985L112.907 151.599L113.936 154.214C114.064 154.557 114.279 154.814 114.493 154.943C114.707 155.071 114.965 155.071 115.265 154.943C115.565 154.814 115.736 154.643 115.822 154.386C115.865 154.128 115.865 153.871 115.736 153.571L114.665 150.87L115.608 150.485L116.679 153.1C116.936 153.7 116.937 154.214 116.765 154.643C116.594 155.071 116.208 155.414 115.608 155.629C115.05 155.843 114.536 155.886 114.064 155.714C113.636 155.543 113.25 155.157 112.993 154.514L111.964 151.985ZM116.165 150.313L117.751 149.499C118.008 149.37 118.223 149.327 118.437 149.284C118.651 149.284 118.866 149.284 119.037 149.327C119.208 149.37 119.38 149.499 119.509 149.627C119.637 149.756 119.766 149.927 119.851 150.099C119.937 150.27 119.98 150.442 119.98 150.57C119.98 150.742 119.98 150.87 119.937 150.999C119.894 151.128 119.851 151.256 119.809 151.385C119.766 151.513 119.68 151.599 119.594 151.685L121.48 152.885L120.409 153.4L118.823 152.242L118.351 152.499L119.123 154.043L118.223 154.514L116.165 150.313ZM118.051 151.813L118.394 151.642C118.651 151.513 118.823 151.385 118.908 151.213C118.994 151.042 118.994 150.828 118.908 150.613C118.823 150.399 118.651 150.27 118.48 150.227C118.308 150.185 118.094 150.227 117.88 150.313L117.408 150.527L118.051 151.813ZM121.438 147.655L122.338 147.141L124.353 150.485L125.982 149.499L126.41 150.185L123.881 151.685L121.438 147.655ZM124.181 146.026L126.71 144.312L127.139 144.955L125.424 146.112L126.024 147.012L127.568 145.984L127.996 146.627L126.453 147.655L127.182 148.684L128.896 147.527L129.325 148.17L126.753 149.884L124.181 146.026ZM130.011 141.954C130.311 141.74 130.568 141.568 130.868 141.44C131.168 141.311 131.469 141.268 131.726 141.268C132.026 141.268 132.283 141.354 132.54 141.525C132.797 141.654 133.055 141.868 133.312 142.168C133.569 142.511 133.741 142.811 133.826 143.154C133.912 143.497 133.912 143.797 133.869 144.097C133.826 144.397 133.698 144.698 133.483 144.955C133.312 145.212 133.055 145.469 132.797 145.726L131.683 146.627L128.725 142.94L130.011 141.954ZM131.983 145.426L132.24 145.212C132.412 145.083 132.54 144.912 132.669 144.783C132.797 144.612 132.883 144.44 132.883 144.226C132.926 144.012 132.926 143.84 132.84 143.583C132.797 143.369 132.626 143.111 132.454 142.854C132.154 142.468 131.811 142.297 131.469 142.254C131.083 142.211 130.74 142.34 130.397 142.64L130.011 142.94L131.983 145.426ZM132.369 140.025L134.684 138.01L135.198 138.61L133.655 139.939L134.341 140.754L135.755 139.553L136.27 140.154L134.855 141.354L135.67 142.297L137.256 140.968L137.77 141.568L135.412 143.583L132.369 140.025ZM139.013 132.866L138.37 133.595L138.199 132.48L139.013 131.58V132.866ZM135.498 137.239L137.727 138.439C137.813 138.482 137.899 138.525 137.984 138.567C138.07 138.61 138.199 138.696 138.284 138.739C138.37 138.782 138.499 138.868 138.585 138.953C138.67 139.039 138.799 139.082 138.842 139.125C138.756 138.953 138.627 138.739 138.542 138.525C138.413 138.31 138.327 138.096 138.242 137.882L137.17 135.567L137.942 134.838L139.956 139.425L139.142 140.196L134.684 137.924L135.498 137.239ZM138.027 134.795L140.085 132.523L140.685 133.038L139.313 134.581L140.128 135.31L141.371 133.938L141.971 134.452L140.728 135.824L141.671 136.681L143.043 135.138L143.643 135.652L141.585 137.967L138.027 134.795ZM140.471 132.095L141.114 131.28L144.157 133.766L145.358 132.309L146.001 132.823L144.157 135.095L140.471 132.095ZM143.686 127.894C143.9 127.636 144.114 127.422 144.372 127.251C144.629 127.079 144.886 126.993 145.186 126.95C145.486 126.908 145.786 126.95 146.086 127.036C146.386 127.122 146.729 127.293 147.029 127.508C147.329 127.722 147.544 127.979 147.715 128.279C147.887 128.537 147.972 128.837 148.015 129.137C148.058 129.437 148.015 129.737 147.93 130.037C147.844 130.337 147.715 130.594 147.501 130.894C147.287 131.151 147.072 131.366 146.815 131.537C146.558 131.709 146.301 131.794 146.001 131.837C145.701 131.88 145.4 131.837 145.1 131.752C144.8 131.666 144.457 131.494 144.157 131.28C143.857 131.066 143.6 130.808 143.471 130.508C143.3 130.251 143.214 129.951 143.171 129.651C143.128 129.351 143.171 129.051 143.214 128.751C143.343 128.451 143.514 128.151 143.686 127.894ZM144.886 130.38C145.1 130.551 145.315 130.68 145.529 130.723C145.743 130.808 145.915 130.808 146.086 130.808C146.258 130.808 146.429 130.766 146.558 130.68C146.686 130.594 146.815 130.508 146.944 130.337C147.029 130.208 147.115 130.037 147.158 129.908C147.201 129.737 147.201 129.565 147.158 129.394C147.115 129.222 147.029 129.051 146.901 128.879C146.772 128.708 146.601 128.537 146.386 128.365C146.172 128.194 145.958 128.065 145.743 127.979C145.529 127.894 145.358 127.894 145.143 127.894C144.972 127.894 144.8 127.936 144.672 128.022C144.543 128.108 144.414 128.236 144.286 128.365C144.2 128.494 144.114 128.665 144.072 128.837C144.029 129.008 144.029 129.18 144.072 129.351C144.114 129.522 144.2 129.694 144.329 129.865C144.5 130.037 144.672 130.208 144.886 130.38ZM145.315 125.793L146.172 124.378C146.301 124.164 146.472 123.95 146.644 123.778C146.815 123.607 146.987 123.521 147.201 123.435C147.372 123.35 147.587 123.35 147.758 123.35C147.972 123.392 148.144 123.435 148.358 123.564C148.573 123.693 148.744 123.864 148.873 124.078C149.001 124.25 149.044 124.464 149.087 124.678C149.087 124.893 149.087 125.107 149.001 125.321C148.916 125.536 148.83 125.793 148.701 126.007L148.401 126.479L149.859 127.379L149.301 128.236L145.315 125.793ZM147.758 126.093L147.972 125.75C148.058 125.622 148.101 125.536 148.144 125.407C148.187 125.279 148.187 125.193 148.187 125.064C148.187 124.979 148.144 124.85 148.101 124.764C148.058 124.678 147.972 124.593 147.844 124.507C147.63 124.378 147.458 124.336 147.244 124.421C147.072 124.507 146.901 124.636 146.772 124.85L146.515 125.279L147.758 126.093ZM147.458 122.406L148.273 120.949C148.401 120.692 148.573 120.52 148.744 120.349C148.916 120.177 149.087 120.092 149.258 120.006C149.43 119.92 149.644 119.92 149.816 119.92C150.03 119.92 150.202 120.006 150.416 120.092C150.63 120.22 150.845 120.392 150.93 120.563C151.059 120.735 151.102 120.949 151.145 121.163C151.188 121.378 151.145 121.592 151.102 121.806C151.059 122.021 150.93 122.278 150.802 122.492L150.545 122.964L152.045 123.821L151.53 124.721L147.458 122.406ZM149.859 122.621L150.073 122.278C150.159 122.149 150.202 122.064 150.244 121.935C150.287 121.806 150.287 121.721 150.287 121.592C150.287 121.506 150.244 121.378 150.202 121.292C150.159 121.206 150.073 121.12 149.944 121.035C149.73 120.906 149.516 120.906 149.344 120.992C149.173 121.078 149.001 121.249 148.873 121.463L148.615 121.892L149.859 122.621ZM149.344 119.02L150.716 116.276L151.402 116.619L150.459 118.42L151.402 118.891L152.259 117.262L152.945 117.605L152.088 119.234L153.202 119.792L154.145 117.948L154.874 118.291L153.459 121.035L149.344 119.02ZM151.059 115.719L151.53 114.519L153.76 114.69C153.845 114.69 153.974 114.69 154.06 114.733C154.188 114.733 154.274 114.776 154.403 114.776C154.531 114.776 154.617 114.819 154.746 114.819C154.831 114.819 154.96 114.862 155.046 114.862V114.819C154.96 114.776 154.917 114.733 154.788 114.647C154.703 114.605 154.617 114.519 154.488 114.433C154.403 114.347 154.317 114.305 154.188 114.219C154.102 114.133 154.017 114.09 153.931 114.047L152.173 112.633L152.645 111.432L157.146 112.847L156.803 113.747C156.289 113.576 155.817 113.404 155.303 113.276C154.788 113.104 154.317 112.933 153.802 112.761L153.245 112.547C153.459 112.718 153.717 112.89 153.974 113.061C154.231 113.233 154.445 113.404 154.617 113.576L156.332 114.948L156.032 115.676L153.845 115.548C153.545 115.548 153.288 115.505 152.945 115.462C152.645 115.419 152.388 115.376 152.131 115.333C152.302 115.419 152.474 115.462 152.645 115.548C152.816 115.633 152.988 115.719 153.202 115.762C153.374 115.848 153.545 115.934 153.717 115.976C153.888 116.062 154.06 116.105 154.188 116.191L155.56 116.834L155.217 117.734L151.059 115.719ZM153.117 110.404L154.145 107.489L154.874 107.746L154.188 109.675L155.217 110.018L155.817 108.26L156.546 108.517L155.946 110.275L157.146 110.704L157.832 108.775L158.561 109.032L157.532 111.947L153.117 110.404ZM154.317 107.189L154.531 106.288L157.36 105.345C157.532 105.302 157.746 105.217 157.918 105.174C158.089 105.131 158.218 105.088 158.346 105.088C158.003 105.045 157.703 104.959 157.403 104.874C157.103 104.788 156.76 104.702 156.46 104.617L155.088 104.274L155.346 103.373L159.932 104.531L159.718 105.431L157.103 106.331C156.975 106.374 156.889 106.417 156.76 106.46C156.632 106.503 156.546 106.546 156.417 106.546C156.289 106.588 156.203 106.588 156.117 106.631C156.032 106.631 155.946 106.674 155.903 106.674C156.246 106.717 156.546 106.803 156.889 106.889C157.189 106.974 157.489 107.06 157.832 107.146L159.204 107.489L158.947 108.432L154.317 107.189ZM156.16 99.4296L156.932 99.6011L156.675 100.887L160.49 101.702L160.275 102.687L156.46 101.873L156.203 103.159L155.431 102.988L156.16 99.4296Z" fill="#347841"/>
<path d="M199.703 106V71.7344H209.008V106H199.703ZM233.615 78.8359C231.412 78.8359 229.693 79.7422 228.459 81.5547C227.225 83.3516 226.608 85.8359 226.608 89.0078C226.608 95.6016 229.115 98.8984 234.131 98.8984C235.647 98.8984 237.115 98.6875 238.537 98.2656C239.959 97.8438 241.389 97.3359 242.826 96.7422V104.57C239.967 105.836 236.733 106.469 233.123 106.469C227.951 106.469 223.983 104.969 221.217 101.969C218.467 98.9688 217.092 94.6328 217.092 88.9609C217.092 85.4141 217.756 82.2969 219.084 79.6094C220.428 76.9219 222.35 74.8594 224.85 73.4219C227.365 71.9688 230.318 71.2422 233.709 71.2422C237.412 71.2422 240.951 72.0469 244.326 73.6562L241.49 80.9453C240.225 80.3516 238.959 79.8516 237.693 79.4453C236.428 79.0391 235.068 78.8359 233.615 78.8359ZM276.317 82.6328C276.317 86.4609 275.184 89.4219 272.918 91.5156C270.668 93.5938 267.465 94.6328 263.309 94.6328H260.707V106H251.449V71.7344H263.309C267.637 71.7344 270.887 72.6797 273.059 74.5703C275.231 76.4609 276.317 79.1484 276.317 82.6328ZM260.707 87.0859H262.395C263.785 87.0859 264.887 86.6953 265.699 85.9141C266.528 85.1328 266.942 84.0547 266.942 82.6797C266.942 80.3672 265.66 79.2109 263.098 79.2109H260.707V87.0859ZM304.721 106L303.033 99.5781H291.901L290.166 106H279.994L291.174 71.5938H303.526L314.846 106H304.721ZM301.112 91.9844L299.635 86.3594C299.291 85.1094 298.869 83.4922 298.369 81.5078C297.885 79.5234 297.565 78.1016 297.408 77.2422C297.268 78.0391 296.987 79.3516 296.565 81.1797C296.158 83.0078 295.244 86.6094 293.823 91.9844H301.112ZM335.75 78.8359C333.547 78.8359 331.828 79.7422 330.594 81.5547C329.36 83.3516 328.743 85.8359 328.743 89.0078C328.743 95.6016 331.25 98.8984 336.266 98.8984C337.782 98.8984 339.25 98.6875 340.672 98.2656C342.094 97.8438 343.524 97.3359 344.961 96.7422V104.57C342.102 105.836 338.868 106.469 335.258 106.469C330.086 106.469 326.118 104.969 323.352 101.969C320.602 98.9688 319.227 94.6328 319.227 88.9609C319.227 85.4141 319.891 82.2969 321.219 79.6094C322.563 76.9219 324.485 74.8594 326.985 73.4219C329.5 71.9688 332.453 71.2422 335.844 71.2422C339.547 71.2422 343.086 72.0469 346.461 73.6562L343.625 80.9453C342.36 80.3516 341.094 79.8516 339.828 79.4453C338.563 79.0391 337.203 78.8359 335.75 78.8359Z" fill="#347841"/>
<path d="M199.703 106H198.703C198.703 106.552 199.151 107 199.703 107V106ZM199.703 71.7344V70.7344C199.151 70.7344 198.703 71.1821 198.703 71.7344H199.703ZM209.008 71.7344H210.008C210.008 71.1821 209.56 70.7344 209.008 70.7344V71.7344ZM209.008 106V107C209.56 107 210.008 106.552 210.008 106H209.008ZM200.703 106V71.7344H198.703V106H200.703ZM199.703 72.7344H209.008V70.7344H199.703V72.7344ZM208.008 71.7344V106H210.008V71.7344H208.008ZM209.008 105H199.703V107H209.008V105ZM228.459 81.5547L229.283 82.1209L229.286 82.1176L228.459 81.5547ZM242.826 96.7422H243.826C243.826 96.4084 243.66 96.0966 243.382 95.911C243.105 95.7254 242.753 95.6905 242.444 95.8179L242.826 96.7422ZM242.826 104.57L243.231 105.485C243.593 105.325 243.826 104.966 243.826 104.57H242.826ZM221.217 101.969L220.48 102.644L220.482 102.647L221.217 101.969ZM219.084 79.6094L218.19 79.1622L218.188 79.1663L219.084 79.6094ZM224.85 73.4219L225.348 74.2888L225.35 74.2878L224.85 73.4219ZM244.326 73.6562L245.258 74.0188C245.448 73.5308 245.229 72.979 244.757 72.7536L244.326 73.6562ZM241.49 80.9453L241.066 81.8506C241.316 81.9683 241.605 81.9766 241.862 81.8738C242.119 81.7709 242.322 81.566 242.422 81.3079L241.49 80.9453ZM233.615 77.8359C231.083 77.8359 229.054 78.9043 227.633 80.9918L229.286 82.1176C230.333 80.5801 231.741 79.8359 233.615 79.8359V77.8359ZM227.635 80.9885C226.245 83.0119 225.608 85.7214 225.608 89.0078H227.608C227.608 85.9505 228.205 83.6912 229.283 82.1209L227.635 80.9885ZM225.608 89.0078C225.608 92.4031 226.248 95.1326 227.692 97.0312C229.176 98.9815 231.384 99.8984 234.131 99.8984V97.8984C231.862 97.8984 230.309 97.1669 229.284 95.8204C228.221 94.4221 227.608 92.2063 227.608 89.0078H225.608ZM234.131 99.8984C235.741 99.8984 237.305 99.6742 238.822 99.2243L238.253 97.3069C236.925 97.7008 235.552 97.8984 234.131 97.8984V99.8984ZM238.822 99.2243C240.278 98.7922 241.74 98.2727 243.208 97.6664L242.444 95.8179C241.037 96.3992 239.64 96.8953 238.253 97.3069L238.822 99.2243ZM241.826 96.7422V104.57H243.826V96.7422H241.826ZM242.422 103.656C239.708 104.857 236.614 105.469 233.123 105.469V107.469C236.851 107.469 240.226 106.815 243.231 105.485L242.422 103.656ZM233.123 105.469C228.151 105.469 224.48 104.034 221.952 101.291L220.482 102.647C223.485 105.904 227.752 107.469 233.123 107.469V105.469ZM221.954 101.293C219.43 98.5393 218.092 94.4815 218.092 88.9609H216.092C216.092 94.7842 217.504 99.3982 220.48 102.644L221.954 101.293ZM218.092 88.9609C218.092 85.5398 218.732 82.5791 219.981 80.0524L218.188 79.1663C216.78 82.0146 216.092 85.2884 216.092 88.9609H218.092ZM219.978 80.0566C221.238 77.5371 223.026 75.6241 225.348 74.2888L224.351 72.555C221.673 74.0947 219.617 76.3067 218.19 79.1622L219.978 80.0566ZM225.35 74.2878C227.69 72.9362 230.464 72.2422 233.709 72.2422V70.2422C230.172 70.2422 227.041 71.0013 224.349 72.556L225.35 74.2878ZM233.709 72.2422C237.262 72.2422 240.654 73.013 243.896 74.5589L244.757 72.7536C241.249 71.0808 237.563 70.2422 233.709 70.2422V72.2422ZM243.394 73.2937L240.558 80.5827L242.422 81.3079L245.258 74.0188L243.394 73.2937ZM241.915 80.04C240.613 79.429 239.307 78.9131 237.999 78.4932L237.388 80.3975C238.611 80.79 239.837 81.2741 241.066 81.8506L241.915 80.04ZM237.999 78.4932C236.626 78.0524 235.163 77.8359 233.615 77.8359V79.8359C234.974 79.8359 236.23 80.0257 237.388 80.3975L237.999 78.4932ZM272.918 91.5156L273.597 92.2502L273.597 92.25L272.918 91.5156ZM260.707 94.6328V93.6328C260.155 93.6328 259.707 94.0805 259.707 94.6328H260.707ZM260.707 106V107C261.259 107 261.707 106.552 261.707 106H260.707ZM251.449 106H250.449C250.449 106.552 250.897 107 251.449 107V106ZM251.449 71.7344V70.7344C250.897 70.7344 250.449 71.1821 250.449 71.7344H251.449ZM260.707 87.0859H259.707C259.707 87.6382 260.155 88.0859 260.707 88.0859V87.0859ZM265.699 85.9141L265.013 85.1866L265.006 85.1932L265.699 85.9141ZM260.707 79.2109V78.2109C260.155 78.2109 259.707 78.6587 259.707 79.2109H260.707ZM275.317 82.6328C275.317 86.2541 274.253 88.9207 272.239 90.7812L273.597 92.25C276.115 89.9231 277.317 86.6678 277.317 82.6328H275.317ZM272.24 90.781C270.232 92.6354 267.305 93.6328 263.309 93.6328V95.6328C267.625 95.6328 271.104 94.5521 273.597 92.2502L272.24 90.781ZM263.309 93.6328H260.707V95.6328H263.309V93.6328ZM259.707 94.6328V106H261.707V94.6328H259.707ZM260.707 105H251.449V107H260.707V105ZM252.449 106V71.7344H250.449V106H252.449ZM251.449 72.7344H263.309V70.7344H251.449V72.7344ZM263.309 72.7344C267.513 72.7344 270.485 73.6555 272.402 75.3246L273.715 73.8161C271.289 71.7039 267.761 70.7344 263.309 70.7344V72.7344ZM272.402 75.3246C274.31 76.9857 275.317 79.3713 275.317 82.6328H277.317C277.317 78.9255 276.151 75.9362 273.715 73.8161L272.402 75.3246ZM260.707 88.0859H262.395V86.0859H260.707V88.0859ZM262.395 88.0859C263.98 88.0859 265.352 87.635 266.392 86.6349L265.006 85.1932C264.421 85.7556 263.591 86.0859 262.395 86.0859V88.0859ZM266.386 86.6415C267.455 85.6328 267.942 84.2683 267.942 82.6797H265.942C265.942 83.841 265.6 84.6329 265.013 85.1867L266.386 86.6415ZM267.942 82.6797C267.942 81.3413 267.566 80.1619 266.651 79.3357C265.755 78.5272 264.509 78.2109 263.098 78.2109V80.2109C264.249 80.2109 264.925 80.4728 265.311 80.8205C265.676 81.1506 265.942 81.7056 265.942 82.6797H267.942ZM263.098 78.2109H260.707V80.2109H263.098V78.2109ZM259.707 79.2109V87.0859H261.707V79.2109H259.707ZM304.721 106L303.754 106.254C303.869 106.694 304.267 107 304.721 107V106ZM303.033 99.5781L304.001 99.324C303.885 98.8845 303.488 98.5781 303.033 98.5781V99.5781ZM291.901 99.5781V98.5781C291.449 98.5781 291.053 98.8812 290.935 99.3174L291.901 99.5781ZM290.166 106V107C290.618 107 291.014 106.697 291.132 106.261L290.166 106ZM279.994 106L279.043 105.691C278.944 105.995 278.997 106.329 279.185 106.588C279.374 106.847 279.674 107 279.994 107V106ZM291.174 71.5938V70.5938C290.741 70.5938 290.357 70.8727 290.223 71.2847L291.174 71.5938ZM303.526 71.5938L304.476 71.2812C304.341 70.871 303.957 70.5938 303.526 70.5938V71.5938ZM314.846 106V107C315.167 107 315.468 106.846 315.656 106.586C315.844 106.326 315.896 105.992 315.796 105.687L314.846 106ZM301.112 91.9844V92.9844C301.422 92.9844 301.714 92.8406 301.903 92.5952C302.093 92.3497 302.158 92.0303 302.079 91.7305L301.112 91.9844ZM299.635 86.3594L300.602 86.1055L300.599 86.0942L299.635 86.3594ZM298.369 81.5078L297.398 81.745L297.4 81.7521L298.369 81.5078ZM297.408 77.2422L298.392 77.0633C298.306 76.5868 297.89 76.2409 297.406 76.2422C296.922 76.2434 296.508 76.5915 296.424 77.0684L297.408 77.2422ZM296.565 81.1797L295.59 80.9548L295.589 80.9628L296.565 81.1797ZM293.823 91.9844L292.856 91.7286C292.776 92.0286 292.841 92.3485 293.03 92.5944C293.219 92.8403 293.512 92.9844 293.823 92.9844V91.9844ZM305.688 105.746L304.001 99.324L302.066 99.8323L303.754 106.254L305.688 105.746ZM303.033 98.5781H291.901V100.578H303.033V98.5781ZM290.935 99.3174L289.201 105.739L291.132 106.261L292.866 99.8389L290.935 99.3174ZM290.166 105H279.994V107H290.166V105ZM280.945 106.309L292.125 71.9028L290.223 71.2847L279.043 105.691L280.945 106.309ZM291.174 72.5938H303.526V70.5938H291.174V72.5938ZM302.576 71.9063L313.896 106.313L315.796 105.687L304.476 71.2812L302.576 71.9063ZM314.846 105H304.721V107H314.846V105ZM302.079 91.7305L300.602 86.1055L298.668 86.6133L300.144 92.2383L302.079 91.7305ZM300.599 86.0942C300.258 84.8539 299.838 83.2444 299.339 81.2635L297.4 81.7521C297.901 83.74 298.324 85.3649 298.671 86.6245L300.599 86.0942ZM299.341 81.2707C298.857 79.287 298.543 77.8906 298.392 77.0633L296.425 77.4211C296.587 78.3125 296.913 79.7599 297.398 81.7449L299.341 81.2707ZM296.424 77.0684C296.288 77.8373 296.012 79.1275 295.59 80.9548L297.539 81.4045C297.961 79.5756 298.248 78.2409 298.393 77.416L296.424 77.0684ZM295.589 80.9628C295.187 82.7682 294.278 86.3506 292.856 91.7286L294.789 92.2401C296.21 86.8682 297.13 83.2474 297.541 81.3966L295.589 80.9628ZM293.823 92.9844H301.112V90.9844H293.823V92.9844ZM330.594 81.5547L331.418 82.1209L331.421 82.1176L330.594 81.5547ZM344.961 96.7422H345.961C345.961 96.4084 345.795 96.0966 345.517 95.911C345.24 95.7254 344.888 95.6905 344.579 95.8179L344.961 96.7422ZM344.961 104.57L345.366 105.485C345.728 105.325 345.961 104.966 345.961 104.57H344.961ZM323.352 101.969L322.615 102.644L322.617 102.647L323.352 101.969ZM321.219 79.6094L320.325 79.1622L320.323 79.1663L321.219 79.6094ZM326.985 73.4219L327.483 74.2888L327.485 74.2878L326.985 73.4219ZM346.461 73.6562L347.393 74.0188C347.583 73.5308 347.364 72.979 346.892 72.7536L346.461 73.6562ZM343.625 80.9453L343.201 81.8506C343.451 81.9683 343.74 81.9766 343.997 81.8738C344.254 81.7709 344.457 81.566 344.557 81.3079L343.625 80.9453ZM335.75 77.8359C333.218 77.8359 331.189 78.9043 329.768 80.9918L331.421 82.1176C332.468 80.5801 333.876 79.8359 335.75 79.8359V77.8359ZM329.77 80.9885C328.38 83.0119 327.743 85.7214 327.743 89.0078H329.743C329.743 85.9505 330.34 83.6912 331.418 82.1209L329.77 80.9885ZM327.743 89.0078C327.743 92.4031 328.383 95.1326 329.827 97.0312C331.311 98.9815 333.519 99.8984 336.266 99.8984V97.8984C333.997 97.8984 332.444 97.1669 331.419 95.8204C330.356 94.4221 329.743 92.2063 329.743 89.0078H327.743ZM336.266 99.8984C337.876 99.8984 339.44 99.6742 340.957 99.2243L340.388 97.3069C339.06 97.7008 337.687 97.8984 336.266 97.8984V99.8984ZM340.957 99.2243C342.413 98.7922 343.875 98.2727 345.343 97.6664L344.579 95.8179C343.172 96.3992 341.775 96.8953 340.388 97.3069L340.957 99.2243ZM343.961 96.7422V104.57H345.961V96.7422H343.961ZM344.557 103.656C341.843 104.857 338.749 105.469 335.258 105.469V107.469C338.986 107.469 342.361 106.815 345.366 105.485L344.557 103.656ZM335.258 105.469C330.286 105.469 326.615 104.034 324.087 101.291L322.617 102.647C325.62 105.904 329.887 107.469 335.258 107.469V105.469ZM324.089 101.293C321.565 98.5393 320.227 94.4815 320.227 88.9609H318.227C318.227 94.7842 319.639 99.3982 322.615 102.644L324.089 101.293ZM320.227 88.9609C320.227 85.5398 320.867 82.5791 322.116 80.0524L320.323 79.1663C318.915 82.0146 318.227 85.2884 318.227 88.9609H320.227ZM322.113 80.0566C323.373 77.5371 325.161 75.6241 327.483 74.2888L326.486 72.555C323.808 74.0947 321.752 76.3067 320.325 79.1622L322.113 80.0566ZM327.485 74.2878C329.825 72.9362 332.599 72.2422 335.844 72.2422V70.2422C332.307 70.2422 329.176 71.0013 326.484 72.556L327.485 74.2878ZM335.844 72.2422C339.397 72.2422 342.789 73.013 346.031 74.5589L346.892 72.7536C343.384 71.0808 339.698 70.2422 335.844 70.2422V72.2422ZM345.529 73.2937L342.693 80.5827L344.557 81.3079L347.393 74.0188L345.529 73.2937ZM344.05 80.04C342.748 79.429 341.442 78.9131 340.134 78.4932L339.523 80.3975C340.746 80.79 341.972 81.2741 343.201 81.8506L344.05 80.04ZM340.134 78.4932C338.761 78.0524 337.298 77.8359 335.75 77.8359V79.8359C337.109 79.8359 338.365 80.0257 339.523 80.3975L340.134 78.4932Z" fill="white"/>
<defs>
<filter id="filter0_d" x="0" y="0" width="174" height="174" filterUnits="userSpaceOnUse" color-interpolation-filters="sRGB">
<feFlood flood-opacity="0" result="BackgroundImageFix"/>
<feColorMatrix in="SourceAlpha" type="matrix" values="0 0 0 0 0 0 0 0 0 0 0 0 0 0 0 0 0 0 127 0"/>
<feOffset/>
<feGaussianBlur stdDeviation="1.5"/>
<feColorMatrix type="matrix" values="0 0 0 0 0 0 0 0 0 0 0 0 0 0 0 0 0 0 0.25 0"/>
<feBlend mode="normal" in2="BackgroundImageFix" result="effect1_dropShadow"/>
<feBlend mode="normal" in="SourceGraphic" in2="effect1_dropShadow" result="shape"/>
</filter>
</defs>
</svg>
