<svg width="32" height="32" viewBox="0 0 32 32" fill="none" xmlns="http://www.w3.org/2000/svg">
<path d="M30.5 16C30.5 24.0081 24.0081 30.5 16 30.5C7.99187 30.5 1.5 24.0081 1.5 16C1.5 7.99187 7.99187 1.5 16 1.5C24.0081 1.5 30.5 7.99187 30.5 16Z" fill="white" stroke="#23616F" stroke-width="3"/>
<path d="M17.2686 8.71815C17.2686 8.26247 17.0823 7.82545 16.7506 7.50323C16.4189 7.18102 15.9691 7 15.5 7C15.0309 7 14.5811 7.18102 14.2494 7.50323C13.9177 7.82545 13.7314 8.26247 13.7314 8.71815V12.7094L6 15.7136L7.31365 17.186L13.7314 16.4103V20.5424L11.1717 22.43L12.7538 24L15.5 22.6661L18.2462 24L19.8283 22.43L17.2686 20.5424V16.4103L23.6863 17.186L25 15.7136L17.2686 12.7094V8.71815Z" fill="#23616F"/>
</svg>
