<svg width="32" height="32" viewBox="0 0 32 32" fill="none" xmlns="http://www.w3.org/2000/svg">
<g clip-path="url(#clip0)">
<path d="M16 0C14.2491 0 12.5152 0.344877 10.8976 1.01494C9.2799 1.685 7.81004 2.66713 6.57193 3.90524C4.07144 6.40573 2.66669 9.79711 2.66669 13.3333C2.66669 20.6972 16 32 16 32C16 32 29.3334 20.6972 29.3334 13.3333C29.3334 9.79711 27.9286 6.40573 25.4281 3.90524C22.9276 1.40476 19.5362 0 16 0V0ZM16 22.6667C14.1541 22.6667 12.3496 22.1193 10.8147 21.0937C9.27984 20.0682 8.08356 18.6105 7.37714 16.905C6.67073 15.1996 6.4859 13.323 6.84602 11.5125C7.20615 9.702 8.09507 8.03896 9.40036 6.73367C10.7056 5.42838 12.3687 4.53947 14.1792 4.17934C15.9897 3.81921 17.8663 4.00404 19.5717 4.71046C21.2772 5.41688 22.7348 6.61315 23.7604 8.14801C24.786 9.68287 25.3334 11.4874 25.3334 13.3333C25.3334 15.8087 24.35 18.1827 22.5997 19.933C20.8493 21.6833 18.4754 22.6667 16 22.6667V22.6667Z" fill="black"/>
<path d="M17.3334 8.00002C17.3334 7.6464 17.1929 7.30726 16.9428 7.05721C16.6928 6.80716 16.3537 6.66669 16 6.66669C15.6464 6.66669 15.3073 6.80716 15.0572 7.05721C14.8072 7.30726 14.6667 7.6464 14.6667 8.00002V11.0974L8.8382 13.4287L9.82853 14.5714L14.6667 13.9694V17.176L12.737 18.6409L13.9297 19.8592L16 18.824L18.0704 19.8592L19.263 18.6409L17.3334 17.176V13.9694L22.1715 14.5714L23.1619 13.4287L17.3334 11.0974V8.00002Z" fill="black"/>
</g>
<defs>
<clipPath id="clip0">
<rect width="32" height="32" fill="white"/>
</clipPath>
</defs>
</svg>
