<svg width="32" height="32" viewBox="0 0 32 32" fill="none" xmlns="http://www.w3.org/2000/svg">
<path d="M1.625 22.375C1.625 21.9625 1.625 21.55 1.625 21.1375C1.63125 21.0812 1.64375 21.0312 1.65 20.975C1.7 19.9687 1.85625 18.975 2.11875 17.9937C2.7125 15.7687 3.8 13.75 5.3625 11.9312C5.9875 11.2 6.675 10.5187 7.45625 9.91249C7.53125 9.85624 7.59375 9.80624 7.70625 9.80624C13.2438 9.81249 18.775 9.81249 24.3125 9.81249C24.3813 9.81249 24.4625 9.83749 24.5125 9.87499C24.725 10.0375 24.9375 10.2062 25.1375 10.3812C26.6 11.6812 27.7562 13.1625 28.6437 14.825C29.7062 16.8062 30.275 18.8937 30.3687 21.0812C30.425 22.3375 30.3312 23.5875 30.0812 24.8187C30 25.2187 29.9438 25.6312 29.7875 26.0125C29.3313 27.15 28.475 27.9937 27.225 28.4937C26.4625 28.8 25.65 28.9 24.8188 28.9C18.9625 28.9 13.1 28.9 7.24375 28.8937C6.9 28.8937 6.55625 28.8812 6.21875 28.8375C4.9 28.6937 3.8125 28.1812 2.98125 27.25C2.60625 26.825 2.29375 26.3687 2.15 25.8437C1.89375 24.8812 1.7375 23.9062 1.66875 22.9187C1.65625 22.7375 1.64375 22.5562 1.625 22.375Z" fill="#DDDDDD" stroke="#DDDDDD" stroke-width="0.0292969" stroke-miterlimit="10"/>
<path fill-rule="evenodd" clip-rule="evenodd" d="M21.4188 3.10001C21.6625 3.11876 21.9062 3.13751 22.1437 3.16251C23.1562 3.27501 24.0813 3.58751 24.95 4.05626C25.8438 4.53751 26.625 5.14376 27.2812 5.86876C27.3125 5.90001 27.3375 5.93751 27.375 5.97501C26.9812 6.30001 26.6 6.61876 26.2188 6.93751C25.2937 7.70626 24.375 8.46876 23.45 9.23751C23.3563 9.31251 23.2687 9.34376 23.1437 9.34376C18.3687 9.33751 13.5875 9.33751 8.8125 9.34376C8.70625 9.34376 8.6375 9.31251 8.5625 9.25626C7.28125 8.19376 6 7.12501 4.71875 6.05626C4.69375 6.03126 4.66875 6.01251 4.625 5.97501C4.7 5.89376 4.76875 5.80626 4.84375 5.72501C5.9125 4.61876 7.19375 3.78751 8.775 3.35626C9.325 3.20626 9.8875 3.13126 10.4563 3.11251C10.4875 3.11251 10.5188 3.10626 10.55 3.10001C10.6625 3.10001 10.7812 3.10001 10.9 3.10001C11.1125 3.11876 11.325 3.13126 11.5375 3.15626C12.3438 3.25001 13.075 3.51251 13.7812 3.85001C14.2438 4.07501 14.7062 4.29376 15.1812 4.49376C15.4875 4.62501 15.8188 4.69376 16.1688 4.65001C16.4938 4.60626 16.8 4.51251 17.0938 4.37501C17.4812 4.19376 17.8625 4.00626 18.25 3.81876C18.9312 3.48751 19.6438 3.24376 20.4188 3.15626C20.6313 3.13126 20.8437 3.11876 21.0562 3.10001C21.1875 3.10001 21.3 3.10001 21.4188 3.10001Z" fill="#DDDDDD" stroke="#DDDDDD" stroke-width="0.0292969" stroke-miterlimit="10"/>
</svg>
