<svg width="32" height="32" viewBox="0 0 32 32" fill="none" xmlns="http://www.w3.org/2000/svg">
<path d="M30.5 16C30.5 24.0081 24.0081 30.5 16 30.5C7.99187 30.5 1.5 24.0081 1.5 16C1.5 7.99187 7.99187 1.5 16 1.5C24.0081 1.5 30.5 7.99187 30.5 16Z" fill="white" stroke="#2F7EDA" stroke-width="3"/>
<path d="M14 11V21H21L17.0423 11H14Z" fill="#2F7EDA"/>
<path d="M13 19H5V21H13V19Z" fill="#2F7EDA"/>
<path d="M13 15H5V17H13V15Z" fill="#2F7EDA"/>
<path d="M13 11H5V13H13V11Z" fill="#2F7EDA"/>
<path d="M22.9999 20.3319C23.1336 20.3319 23.1824 20.397 23.2893 20.5399C23.4345 20.734 23.6335 20.9998 23.9997 20.9998C24.3659 20.9998 24.5649 20.734 24.7102 20.5399C24.8172 20.397 24.8659 20.3319 24.9997 20.3319C25.1335 20.3319 25.1824 20.397 25.2893 20.54C25.4346 20.734 25.6336 20.9999 25.9998 20.9999C26.3661 20.9999 26.5652 20.7341 26.7105 20.54C26.8174 20.3971 26.8663 20.332 27 20.332V19C26.6337 19 26.4347 19.2658 26.2894 19.4599C26.1824 19.6029 26.1336 19.668 25.9998 19.668C25.8661 19.668 25.8173 19.6029 25.7104 19.46C25.5651 19.2659 25.3661 19.0001 24.9997 19.0001C24.6334 19.0001 24.4344 19.2659 24.2891 19.46C24.1822 19.6029 24.1334 19.668 23.9997 19.668C23.8661 19.668 23.8173 19.6029 23.7104 19.46C23.5651 19.266 23.3662 19.0001 22.9999 19.0001C22.6336 19.0001 22.4346 19.2659 22.2894 19.46C22.1825 19.6029 22.1337 19.668 21.9999 19.668C21.8662 19.668 21.8174 19.6029 21.7105 19.46C21.5652 19.2659 21.3663 19.0001 21 19.0001V20.3321C21.1337 20.3321 21.1825 20.3972 21.2894 20.5401C21.4347 20.7342 21.6337 21 21.9999 21C22.3662 21 22.5652 20.7342 22.7105 20.5401C22.8175 20.397 22.8662 20.3319 22.9999 20.3319Z" fill="#2F7EDA"/>
</svg>
