<svg height="512pt" viewBox="0 -80 512 511" width="512pt" xmlns="http://www.w3.org/2000/svg"><path d="m266 340.5c0 5.523438-4.476562 10-10 10s-10-4.476562-10-10 4.476562-10 10-10 10 4.476562 10 10zm0 0"/><path d="m502 330.5h-65.792969c11.308594-31.546875 36.308594-73.828125 64.59375-82.722656.007813 0 .015625-.003906.023438-.007813.191406-.058593.371093-.132812.554687-.203125.179688-.066406.355469-.132812.527344-.210937.121094-.050781.25-.089844.367188-.144531 4.964843-2.421876 7.027343-8.410157 4.605468-13.375-2.035156-4.167969-6.582031-6.289063-10.929687-5.425782-5.089844.929688-87.457031 17.242188-137.285157 102.089844h-1.738281c28.234375-122.628906 82.46875-204.949219 83.882813-207.753906 4.921875-9.738282-7.015625-19.042969-15.289063-12.21875-.820312.675781-76.914062 64.261718-130.890625 174.878906-5.835937-101.195312-28.46875-274.34375-28.710937-276.207031-.65625-4.976563-4.898438-8.699219-9.917969-8.699219s-9.261719 3.722656-9.914062 8.699219c-.246094 1.863281-22.871094 175.019531-28.714844 276.199219-53.277344-109.335938-127.5-172.054688-130.855469-174.855469-4.1875-3.496094-10.519531-3.003907-14.082031 1.269531-3 3.59375-2.992188 8.605469-.503906 12.167969.546874.78125 53.410156 77.367187 83.148437 206.519531h-1.738281c-50.320313-85.679688-133.816406-101.472656-137.414063-102.113281-.046875-.007813-.09375-.011719-.144531-.019531-.273438-.046876-.550781-.082032-.828125-.105469-.027344-.003907-.054687-.003907-.082031-.007813-3.96875-.300781-7.898438 1.789063-9.75 5.582032-2.421875 4.964843-.359375 10.949218 4.605468 13.371093.515626.253907 1.0625.460938 1.625.621094 29.777344 10.332031 53.597657 52.421875 64.441407 82.671875h-65.792969c-5.523438 0-10 4.476562-10 10s4.476562 10 10 10h201c5.523438 0 10-4.476562 10-10s-4.476562-10-10-10h-35.414062c-14.15625-63.128906-33.878907-114.492188-51.003907-151.472656 27.332031 32.863281 60.496094 80.058594 85.761719 139.066406 2.847656 6.652344 11.660156 8.203125 16.582031 2.800781l6.835938-7.5c1.59375-1.75 2.515625-4.011719 2.601562-6.378906 2-56.074219 11.851563-148.171875 19.636719-214.605469 7.789062 66.429688 17.640625 158.511719 19.632812 214.601563.085938 2.367187 1.007813 4.628906 2.605469 6.382812l6.832031 7.496094c4.890626 5.359375 13.71875 3.886719 16.582032-2.800781 25.371094-59.25 58.546875-106.453125 85.855468-139.253906-17.144531 36.992187-36.914062 88.425781-51.089843 151.664062h-35.417969c-5.523438 0-10 4.476562-10 10s4.476562 10 10 10h201c5.523438 0 10-4.476562 10-10s-4.476562-10-10-10zm-434.304688-59.75c20.40625 12.441406 43.136719 31.335938 62.066407 59.75h-32.816407c-8.480468-25.769531-18.832031-45.183594-29.25-59.75zm376.609376-.003906c-10.417969 14.566406-20.769532 33.984375-29.25 59.753906h-32.816407c18.929688-28.414062 41.664063-47.3125 62.066407-59.753906zm0 0"/></svg>