<svg width="32" height="32" viewBox="0 0 32 32" fill="none" xmlns="http://www.w3.org/2000/svg">
<path d="M30.5 16C30.5 24.0081 24.0081 30.5 16 30.5C7.99187 30.5 1.5 24.0081 1.5 16C1.5 7.99187 7.99187 1.5 16 1.5C24.0081 1.5 30.5 7.99187 30.5 16Z" fill="white" stroke="#C50BBD" stroke-width="3"/>
<path d="M22.126 23C22.126 23.5523 21.6783 24 21.126 24H19.9033C19.351 24 18.9033 23.5523 18.9033 23V18.2969C18.9033 17.7446 18.4556 17.2969 17.9033 17.2969H13.6191C13.0669 17.2969 12.6191 17.7446 12.6191 18.2969V23C12.6191 23.5523 12.1714 24 11.6191 24H10.3965C9.8442 24 9.39648 23.5523 9.39648 23V9.35937C9.39648 8.80709 9.8442 8.35938 10.3965 8.35938H11.6191C12.1714 8.35938 12.6191 8.80709 12.6191 9.35937V13.6973C12.6191 14.2496 13.0669 14.6973 13.6191 14.6973H17.9033C18.4556 14.6973 18.9033 14.2496 18.9033 13.6973V9.35937C18.9033 8.80709 19.351 8.35938 19.9033 8.35938H21.126C21.6783 8.35938 22.126 8.80709 22.126 9.35937V23Z" fill="#C50BBD"/>
</svg>
