<svg width="32" height="32" viewBox="0 0 32 32" fill="none" xmlns="http://www.w3.org/2000/svg">
<rect width="32" height="32" fill="white"/>
<path d="M12.1504 4.05431C12.0882 4.08495 11.9935 4.14345 11.9384 4.18383C11.8847 4.22561 11.7702 4.30917 11.684 4.37045C11.5992 4.43034 11.4013 4.57239 11.2459 4.68659C11.0904 4.80079 10.8586 4.96931 10.73 5.06401C10.4558 5.26455 10.3809 5.33001 10.3131 5.42889C10.2495 5.52498 10.1845 5.68375 10.1647 5.79795C10.1449 5.90936 10.1703 6.04863 10.2339 6.18094C10.2777 6.27425 10.4106 6.47479 10.518 6.61267C10.5548 6.65863 10.6424 6.78118 10.7159 6.88424C10.788 6.9873 10.8657 7.09454 10.8883 7.121C10.9095 7.14746 10.9957 7.26583 11.0791 7.38282C11.1639 7.5012 11.2529 7.62515 11.2784 7.66136C11.3038 7.69617 11.3773 7.79645 11.4409 7.88418C11.5045 7.97192 11.5752 8.06941 11.5978 8.10144C11.6642 8.19475 12.0939 8.78664 12.3129 9.08468C12.3822 9.18077 12.4769 9.31029 12.5207 9.37296C12.6861 9.60554 12.8599 9.84369 12.9433 9.95371C12.9913 10.0164 13.0733 10.1306 13.127 10.2072C13.1793 10.2824 13.2472 10.3757 13.2768 10.4119C13.3235 10.4718 13.3305 10.4899 13.3305 10.5512C13.3291 10.6278 13.3277 10.6319 13.0436 11.0135C13.0097 11.0595 12.932 11.1695 12.8698 11.2573C12.809 11.345 12.7497 11.4286 12.7369 11.4411C12.7256 11.4536 12.679 11.5163 12.6338 11.5804C12.5885 11.6444 12.5165 11.7433 12.4741 11.8004C12.4331 11.8575 12.3539 11.9675 12.2988 12.0441C12.2451 12.1207 12.1419 12.2614 12.0713 12.3575C11.8734 12.6277 11.7292 12.8254 11.6232 12.9772C11.5695 13.0552 11.4918 13.161 11.4494 13.214C11.4084 13.2683 11.3335 13.3713 11.284 13.4438C11.2332 13.5162 11.1498 13.6318 11.0975 13.7014C11.0098 13.8198 10.8954 13.9758 10.5957 14.3922C10.5265 14.4883 10.4417 14.6053 10.4078 14.6498C10.3512 14.725 9.78873 15.5008 9.74068 15.5704C9.72937 15.5871 9.67284 15.6637 9.6163 15.7417C9.55977 15.8183 9.48628 15.9213 9.45377 15.9687C9.42268 16.016 9.37038 16.0857 9.33929 16.1247C9.30678 16.1623 9.22905 16.2695 9.16404 16.3614C9.10044 16.4533 9.00433 16.587 8.95204 16.6581C8.76548 16.9129 8.67079 17.0411 8.53228 17.2388C8.45455 17.3488 8.37681 17.4533 8.36127 17.4714C8.34431 17.4895 8.27929 17.5786 8.21569 17.6705C8.15351 17.7625 8.07577 17.8683 8.04609 17.9073C8.015 17.9449 7.95423 18.0299 7.91041 18.0939C7.8666 18.158 7.77473 18.2847 7.70831 18.3752C7.64047 18.4658 7.51185 18.6412 7.42281 18.7652C7.33377 18.8891 7.20657 19.0632 7.14156 19.1524C7.07655 19.2415 6.97055 19.3863 6.90695 19.4755C6.84335 19.5632 6.76279 19.676 6.72604 19.7261C6.6893 19.7749 6.58895 19.9128 6.50415 20.0311C6.41935 20.1495 6.31194 20.2971 6.26671 20.3584C6.22007 20.4197 6.14799 20.52 6.10559 20.5812C6.06319 20.6425 5.99535 20.7358 5.95436 20.7888C5.91338 20.8417 5.8413 20.9406 5.79607 21.0088C5.74943 21.077 5.66322 21.1968 5.60244 21.2762C5.48655 21.4308 5.3961 21.5547 5.16855 21.875C5.09082 21.9851 4.99613 22.116 4.95655 22.1661C4.91839 22.2163 4.84207 22.3207 4.78695 22.4001C4.73325 22.4795 4.66682 22.5686 4.64138 22.5992C4.61594 22.6285 4.56506 22.6981 4.52973 22.7524C4.49439 22.8068 4.41383 22.9196 4.35023 23.0045C4.28663 23.0881 4.18911 23.2204 4.13541 23.297C4.00538 23.4794 3.90362 23.6187 3.74109 23.8401C3.52343 24.1368 2.74469 25.2105 2.6712 25.3164C2.63445 25.3693 2.58074 25.4417 2.55389 25.4765C2.52704 25.5113 2.46909 25.5921 2.42528 25.6562C2.38146 25.7202 2.29666 25.8358 2.2373 25.9152C2.17794 25.9932 2.08184 26.1241 2.02389 26.2063C1.72144 26.6311 1.65784 26.7188 1.59848 26.794C1.56314 26.84 1.48541 26.9486 1.42464 27.0363C1.36245 27.1241 1.29037 27.2243 1.26069 27.2592C1.23242 27.294 1.18437 27.3594 1.15469 27.4054C1.12501 27.4513 1.04445 27.5641 0.976612 27.6561C0.852238 27.8218 0.633172 28.1226 0.483359 28.3329C0.440959 28.3942 0.336373 28.539 0.25016 28.6546C0.16536 28.7716 0.0749065 28.8969 0.0480532 28.9332L0 29L4.48591 28.9986H8.97041L9.26721 28.5864C9.43116 28.3594 9.60217 28.1226 9.64881 28.0599C9.69545 27.9973 9.76612 27.9012 9.80428 27.8455C9.84385 27.7898 9.92441 27.6783 9.9866 27.5962C10.0474 27.514 10.1293 27.4012 10.1675 27.3455C10.2057 27.2884 10.2862 27.1784 10.3456 27.099C10.4558 26.9542 10.5604 26.8079 10.7964 26.4765C10.8685 26.3748 10.9477 26.2676 10.9745 26.2369C11 26.2049 11.0551 26.1297 11.0975 26.0684C11.1385 26.0071 11.219 25.8943 11.277 25.8177C11.4042 25.6464 11.6204 25.3498 11.7518 25.1632C11.807 25.0866 11.8875 24.9765 11.9313 24.9194C11.9752 24.8623 12.0472 24.7621 12.0939 24.6966C12.1391 24.6312 12.2182 24.5211 12.2705 24.4529C12.4076 24.2677 12.6422 23.946 12.6592 23.9195C12.6677 23.907 12.7285 23.8206 12.7963 23.7287C12.8627 23.6368 12.939 23.5309 12.9659 23.4947C12.9913 23.4585 13.0662 23.3555 13.1298 23.2677C13.1949 23.18 13.2754 23.07 13.3065 23.0254C13.5256 22.719 13.5849 22.6368 13.6443 22.5602C13.6796 22.5143 13.7616 22.4001 13.8266 22.3082C13.8902 22.2163 13.992 22.077 14.0499 21.999C14.1093 21.921 14.2054 21.7915 14.2633 21.7107C14.3707 21.5603 14.4146 21.499 14.5926 21.2525C14.6478 21.1773 14.6986 21.1077 14.7071 21.0993C14.717 21.0896 14.7665 21.0199 14.8202 20.9433C14.8725 20.8667 14.9601 20.7442 15.0138 20.6718C15.0689 20.5994 15.182 20.4448 15.2654 20.3306L15.418 20.1217H15.5H15.582L15.7346 20.3306C15.818 20.4448 15.9311 20.5994 15.9862 20.6718C16.0399 20.7442 16.1275 20.8667 16.1798 20.9433C16.2335 21.0199 16.283 21.0896 16.2929 21.0993C16.3084 21.116 16.4215 21.272 16.7367 21.7107C16.7946 21.7915 16.8907 21.921 16.9501 21.999C17.008 22.077 17.1098 22.2163 17.1734 22.3082C17.2384 22.4001 17.3204 22.5143 17.3557 22.5602C17.4151 22.6368 17.4744 22.719 17.6935 23.0254C17.7246 23.07 17.8051 23.18 17.8702 23.2677C17.9338 23.3555 18.0087 23.4585 18.0341 23.4947C18.061 23.5309 18.1373 23.6368 18.2037 23.7287C18.2715 23.8206 18.3337 23.907 18.3408 23.9195C18.3578 23.946 18.5924 24.2677 18.7295 24.4529C18.7818 24.5211 18.8609 24.6312 18.9061 24.6966C18.9528 24.7621 19.0248 24.8623 19.0687 24.9194C19.1125 24.9765 19.193 25.0866 19.2482 25.1632C19.3796 25.3498 19.5958 25.6464 19.723 25.8177C19.781 25.8943 19.8615 26.0071 19.9025 26.0684C19.9449 26.1297 20 26.2049 20.0255 26.2369C20.0523 26.2676 20.1315 26.3748 20.2036 26.4765C20.4396 26.8079 20.5442 26.9542 20.6544 27.099C20.7138 27.1784 20.7943 27.2884 20.8325 27.3455C20.8707 27.4012 20.9526 27.514 21.0134 27.5962C21.0756 27.6783 21.1576 27.7898 21.1957 27.8455C21.2353 27.9012 21.3046 27.9973 21.3512 28.0599C21.3978 28.1226 21.5703 28.3594 21.7328 28.5864L22.0296 28.9986H26.5141L31 29L30.9519 28.9345C30.9251 28.8969 30.8346 28.7716 30.7498 28.6546C30.6636 28.539 30.559 28.3942 30.5166 28.3329C30.3697 28.1282 30.1478 27.8232 30.0234 27.6561C29.9556 27.5641 29.8806 27.4611 29.8594 27.4263C29.8368 27.3915 29.7761 27.3065 29.7224 27.2383C29.6701 27.1686 29.5782 27.0433 29.5174 26.9569C29.4015 26.794 29.2305 26.5572 29.1288 26.418C29.0948 26.3734 29.0044 26.2467 28.9266 26.138C28.8489 26.0294 28.7556 25.9027 28.7203 25.8581C28.685 25.8122 28.6228 25.7258 28.5804 25.6645C28.5394 25.6033 28.4786 25.5197 28.4475 25.4793C28.415 25.4375 28.367 25.3721 28.3401 25.3331C28.3133 25.2927 28.2341 25.1827 28.1634 25.088C28.0942 24.9933 28.0264 24.9013 28.015 24.8832C27.9938 24.8512 27.5444 24.2301 27.2589 23.8401C27.0102 23.5003 26.9664 23.439 26.8646 23.297C26.8095 23.2204 26.7134 23.0881 26.6498 23.0045C26.5862 22.9196 26.5084 22.8123 26.4773 22.7636C26.4462 22.7148 26.3841 22.6299 26.3417 22.5742C26.2979 22.5185 26.213 22.4029 26.1523 22.3193C25.9502 22.0338 25.8314 21.8695 25.7255 21.726C25.6661 21.648 25.5742 21.5213 25.5219 21.4447C25.4682 21.3681 25.3947 21.2678 25.358 21.2219C25.3212 21.1759 25.2591 21.0882 25.2167 21.0269C25.1757 20.9656 25.0993 20.8584 25.0485 20.7902C24.9283 20.6314 24.6824 20.2944 24.6386 20.2275C24.6202 20.1997 24.5496 20.1022 24.4831 20.0103C24.4153 19.9183 24.3517 19.8292 24.3404 19.8125C24.3178 19.7819 24.1439 19.5423 23.8881 19.1941C23.5828 18.7763 23.4359 18.573 23.3836 18.4964C23.3539 18.4532 23.2945 18.3725 23.2507 18.3154C23.2083 18.2597 23.1334 18.1566 23.0853 18.0884C22.9949 17.9588 22.79 17.6761 22.684 17.5327C22.65 17.4881 22.5596 17.3628 22.4819 17.2541C22.4041 17.1441 22.3108 17.0174 22.2755 16.9728C22.2402 16.9282 22.1808 16.8461 22.1455 16.7932C22.1116 16.7388 22.0522 16.6581 22.0169 16.6121C21.9815 16.5662 21.908 16.4659 21.8543 16.3893C21.802 16.3127 21.7074 16.1832 21.6466 16.101C21.5448 15.9645 21.3667 15.7194 21.224 15.5189C21.1491 15.4144 20.9922 15.1971 20.8085 14.9451C20.7265 14.8323 20.5922 14.6484 20.5103 14.5356C20.4283 14.4228 20.3082 14.2585 20.2431 14.1707C20.1767 14.0816 20.0877 13.9591 20.0453 13.8964C20.0015 13.8351 19.9308 13.7376 19.8884 13.6805C19.846 13.6234 19.7626 13.5106 19.7047 13.4284C19.5633 13.2279 19.3994 13.0009 19.299 12.8686C19.2538 12.8087 19.1634 12.6834 19.0983 12.5901C19.0333 12.4967 18.9499 12.3825 18.9132 12.3366C18.8764 12.2906 18.8114 12.2001 18.7676 12.1346C18.7238 12.0692 18.663 11.9842 18.6319 11.9466C18.6008 11.9076 18.5401 11.8241 18.4948 11.7586C18.4496 11.6932 18.3521 11.5581 18.2772 11.4564C18.126 11.2517 17.9451 11.001 17.8603 10.8812C17.8292 10.8381 17.7741 10.7615 17.7373 10.7113C17.6779 10.6305 17.6695 10.6111 17.6695 10.5498C17.6695 10.4885 17.6765 10.4704 17.7288 10.4049C17.7627 10.3645 17.8221 10.2824 17.8631 10.2239C17.9027 10.1654 17.9832 10.0526 18.0426 9.9732C18.1571 9.82001 18.3804 9.51223 18.5316 9.30054C18.5825 9.22951 18.6772 9.09721 18.7436 9.00808C18.81 8.91755 18.9217 8.76575 18.9909 8.66826C19.0616 8.57217 19.1831 8.40644 19.2595 8.3006C19.3372 8.19336 19.4107 8.09309 19.422 8.07498C19.4432 8.04156 19.6778 7.71985 19.781 7.58058C19.8135 7.53741 19.8799 7.4441 19.9308 7.37307C19.9817 7.30065 20.0679 7.18227 20.123 7.10846C20.1781 7.03465 20.2658 6.91209 20.3195 6.8355C20.3718 6.7589 20.4325 6.67673 20.4523 6.65445C20.5216 6.57646 20.7237 6.27146 20.7661 6.18233C20.8297 6.04863 20.8551 5.90936 20.8353 5.79795C20.8028 5.61551 20.7025 5.41914 20.5852 5.30912C20.5286 5.2548 20.1555 4.97209 20.0368 4.89271C19.9986 4.86625 19.8418 4.75483 19.6891 4.64342C19.0503 4.17548 18.9302 4.09192 18.8326 4.04735C18.7351 4.00279 18.7252 4.00139 18.5542 4.00139C18.3521 4.00139 18.2814 4.0195 18.1415 4.11141C17.9917 4.2089 17.8914 4.31892 17.6794 4.62253C17.6271 4.69913 17.5324 4.82864 17.4716 4.9136C17.4094 4.99716 17.2935 5.15732 17.2144 5.26734C17.1338 5.37736 17.0151 5.5403 16.9501 5.62944C16.8851 5.71857 16.7762 5.86619 16.7112 5.95811C16.6448 6.05003 16.5586 6.1698 16.519 6.22411C16.4794 6.27982 16.3904 6.40377 16.3197 6.50265C16.2505 6.60013 16.1629 6.71851 16.1275 6.76447C16.0922 6.81182 16.0046 6.93438 15.9311 7.03744C15.859 7.14049 15.7883 7.23659 15.7742 7.25052C15.7601 7.26583 15.7092 7.33686 15.6597 7.40789L15.5707 7.53741H15.5H15.4293L15.3403 7.40789C15.2908 7.33686 15.2399 7.26583 15.2258 7.25052C15.2117 7.23659 15.141 7.14049 15.0689 7.03744C14.9954 6.93438 14.9078 6.81182 14.8725 6.76447C14.8371 6.71851 14.7509 6.60013 14.6803 6.50265C14.611 6.40377 14.5206 6.27982 14.481 6.22411C14.4414 6.1698 14.3552 6.05003 14.2888 5.95811C14.2238 5.86619 14.1149 5.71857 14.0499 5.62944C13.9397 5.47903 13.8436 5.34672 13.5411 4.93031C13.4761 4.84118 13.3772 4.7033 13.3206 4.62392C13.0549 4.25068 12.9617 4.15459 12.7652 4.05571C12.6748 4.00975 12.6691 4.00836 12.4684 4.00418L12.2635 4L12.1504 4.05431Z" fill="black"/>
</svg>
