<svg width="32" height="32" viewBox="0 0 32 32" fill="none" xmlns="http://www.w3.org/2000/svg">
<path d="M1.625 22.375C1.625 21.9625 1.625 21.55 1.625 21.1375C1.63125 21.0813 1.64375 21.0313 1.65 20.975C1.7 19.9688 1.85625 18.975 2.11875 17.9938C2.7125 15.7688 3.8 13.75 5.3625 11.9313C5.9875 11.2 6.675 10.5188 7.45625 9.9125C7.53125 9.85625 7.59375 9.80625 7.70625 9.80625C13.2438 9.8125 18.775 9.8125 24.3125 9.8125C24.3813 9.8125 24.4625 9.8375 24.5125 9.875C24.725 10.0375 24.9375 10.2063 25.1375 10.3813C26.6 11.6813 27.7562 13.1625 28.6437 14.825C29.7062 16.8063 30.275 18.8937 30.3687 21.0812C30.425 22.3375 30.3312 23.5875 30.0812 24.8187C30 25.2187 29.9438 25.6312 29.7875 26.0125C29.3313 27.15 28.475 27.9937 27.225 28.4937C26.4625 28.8 25.65 28.9 24.8188 28.9C18.9625 28.9 13.1 28.9 7.24375 28.8937C6.9 28.8937 6.55625 28.8812 6.21875 28.8375C4.9 28.6937 3.8125 28.1812 2.98125 27.25C2.60625 26.825 2.29375 26.3687 2.15 25.8437C1.89375 24.8812 1.7375 23.9063 1.66875 22.9188C1.65625 22.7375 1.64375 22.5562 1.625 22.375Z" fill="#7F7F7F" stroke="#404041" stroke-width="0.0292969" stroke-miterlimit="10"/>
<path fill-rule="evenodd" clip-rule="evenodd" d="M21.4188 3.1C21.6625 3.11875 21.9062 3.1375 22.1437 3.1625C23.1562 3.275 24.0813 3.5875 24.95 4.05625C25.8438 4.5375 26.625 5.14375 27.2812 5.86875C27.3125 5.9 27.3375 5.9375 27.375 5.975C26.9812 6.3 26.6 6.61875 26.2188 6.9375C25.2937 7.70625 24.375 8.46875 23.45 9.2375C23.3563 9.3125 23.2687 9.34375 23.1437 9.34375C18.3687 9.3375 13.5875 9.3375 8.8125 9.34375C8.70625 9.34375 8.6375 9.3125 8.5625 9.25625C7.28125 8.19375 6 7.125 4.71875 6.05625C4.69375 6.03125 4.66875 6.0125 4.625 5.975C4.7 5.89375 4.76875 5.80625 4.84375 5.725C5.9125 4.61875 7.19375 3.7875 8.775 3.35625C9.325 3.20625 9.8875 3.13125 10.4563 3.1125C10.4875 3.1125 10.5188 3.10625 10.55 3.1C10.6625 3.1 10.7812 3.1 10.9 3.1C11.1125 3.11875 11.325 3.13125 11.5375 3.15625C12.3438 3.25 13.075 3.5125 13.7812 3.85C14.2438 4.075 14.7062 4.29375 15.1812 4.49375C15.4875 4.625 15.8188 4.69375 16.1688 4.65C16.4938 4.60625 16.8 4.5125 17.0938 4.375C17.4812 4.19375 17.8625 4.00625 18.25 3.81875C18.9312 3.4875 19.6438 3.24375 20.4188 3.15625C20.6313 3.13125 20.8437 3.11875 21.0562 3.1C21.1875 3.1 21.3 3.1 21.4188 3.1Z" fill="#7F7F7F" stroke="#404041" stroke-width="0.0292969" stroke-miterlimit="10"/>
</svg>
