<svg width="32" height="32" viewBox="0 0 32 32" fill="none" xmlns="http://www.w3.org/2000/svg">
<path d="M30.5 16C30.5 24.0081 24.0081 30.5 16 30.5C7.99187 30.5 1.5 24.0081 1.5 16C1.5 7.99187 7.99187 1.5 16 1.5C24.0081 1.5 30.5 7.99187 30.5 16Z" fill="white" stroke="#FF0000" stroke-width="3"/>
<path d="M14.9333 21.3333H16.0667V24H14.9333V21.3333Z" fill="#FF0000"/>
<path d="M7 12.0667H10.1333V24H7V12.0667Z" fill="#FF0000"/>
<path d="M20.7333 13.9334H24V24H20.7333V13.9334Z" fill="#FF0000"/>
<path d="M18.1333 7H14.2V9.13333H11.2667V24H13.9333V20.3333H17.0667V24H19.7333V9.13333H18.1333V7ZM14.4333 18.6667H13.3667V17.6667H14.4333V18.6667ZM14.4333 16.5333H13.3667V15.5333H14.4333V16.5333ZM14.4333 14.4H13.3667V13.4H14.4333V14.4ZM14.4333 12.2667H13.3667V11.2667H14.4333V12.2667ZM17.6333 18.6667H16.5667V17.6667H17.6333V18.6667ZM17.6333 16.5333H16.5667V15.5333H17.6333V16.5333ZM17.6333 14.4H16.5667V13.4H17.6333V14.4ZM17.6333 12.2667H16.5667V11.2667H17.6333V12.2667Z" fill="#FF0000"/>
</svg>
