<svg width="32" height="32" viewBox="0 0 32 32" fill="none" xmlns="http://www.w3.org/2000/svg">
<path d="M30.5 16C30.5 24.0081 24.0081 30.5 16 30.5C7.99187 30.5 1.5 24.0081 1.5 16C1.5 7.99187 7.99187 1.5 16 1.5C24.0081 1.5 30.5 7.99187 30.5 16Z" fill="white" stroke="#FF7A00" stroke-width="3"/>
<path d="M11.789 26C11.5565 26.0001 11.368 25.8136 11.3679 25.5835C11.3678 25.4589 11.4241 25.3409 11.5213 25.2617L17.7723 20.1671H13.052C12.8195 20.1673 12.6309 19.9809 12.6307 19.7508C12.6306 19.6637 12.6581 19.5787 12.7094 19.5079L16.4436 14.3341H14.7361C14.5035 14.3341 14.315 14.1476 14.315 13.9175C14.315 13.6874 14.5035 13.5008 14.7361 13.5008H17.262C17.4946 13.5006 17.6832 13.687 17.6834 13.9171C17.6835 14.0042 17.6559 14.0892 17.6047 14.16L13.8705 19.3338H18.946C19.1785 19.3337 19.3671 19.5202 19.3672 19.7503C19.3672 19.8748 19.3109 19.9929 19.2138 20.0721L12.0568 25.905C11.9814 25.9665 11.8867 26 11.789 26Z" fill="#FF7A00"/>
<path d="M20.209 26L11.789 26C11.5565 26.0001 11.368 25.8136 11.3679 25.5835C11.3678 25.5537 11.3709 25.5241 11.3773 25.495L15.5873 6.32981C15.6358 6.10479 15.8594 5.96125 16.0868 6.00925C16.2492 6.04355 16.3761 6.16908 16.4107 6.32981L20.6207 25.495C20.67 25.7199 20.5258 25.9418 20.2986 25.9905C20.2692 25.9969 20.2391 26 20.209 26ZM12.3119 25.1667H19.687L15.999 8.37966L12.3119 25.1667Z" fill="#FF7A00"/>
<path d="M23.577 12.6677C23.3445 12.6677 23.156 12.4811 23.156 12.251V11.0011H8.84202V12.251C8.84202 12.4811 8.65352 12.6677 8.42101 12.6677C8.1885 12.6677 8 12.4811 8 12.251V10.5845C8 10.3544 8.1885 10.1678 8.42101 10.1678H23.577C23.8095 10.1678 23.998 10.3544 23.998 10.5845V12.251C23.998 12.4811 23.8095 12.6677 23.577 12.6677Z" fill="#FF7A00"/>
<path d="M14.315 14.3342C14.2419 14.3343 14.1699 14.3156 14.1062 14.28L8.21221 10.947C8.01017 10.8319 7.94059 10.5766 8.05686 10.3766C8.17314 10.1766 8.43115 10.1078 8.63322 10.2228L14.5272 13.5559C14.729 13.6702 14.7991 13.9247 14.6836 14.1244C14.608 14.2552 14.4671 14.3354 14.315 14.3342Z" fill="#FF7A00"/>
<path d="M17.683 14.3342C17.4505 14.3354 17.2611 14.1497 17.2599 13.9197C17.2592 13.7689 17.3408 13.6295 17.4734 13.5551L23.3673 10.2221C23.5694 10.107 23.8274 10.1759 23.9437 10.3758C24.06 10.5757 23.9904 10.8311 23.7883 10.9462L17.8944 14.2793C17.83 14.3155 17.7571 14.3344 17.683 14.3342Z" fill="#FF7A00"/>
<path d="M20.209 26L11.789 26C11.5565 26.0001 11.368 25.8136 11.3679 25.5835C11.3678 25.5537 11.3709 25.5241 11.3773 25.495L15.5873 6.32981C15.6368 6.10499 15.8621 5.96253 16.0892 6.01158C16.2501 6.04631 16.3756 6.17065 16.4107 6.32981L20.6207 25.495C20.67 25.7199 20.5258 25.9418 20.2986 25.9905C20.2692 25.9969 20.2391 26 20.209 26ZM12.3119 25.1667H19.687L15.999 8.37966L12.3119 25.1667Z" fill="#FF7A00"/>
<path d="M11.789 26C11.5565 25.9996 11.3683 25.8128 11.3687 25.5827C11.3689 25.4584 11.4243 25.3407 11.5213 25.2617L17.7723 20.1671H13.052C12.8195 20.1673 12.6309 19.9809 12.6307 19.7508C12.6306 19.6637 12.6581 19.5787 12.7094 19.5079L16.4436 14.3341H14.7361C14.5035 14.3341 14.315 14.1476 14.315 13.9175C14.315 13.6874 14.5035 13.5008 14.7361 13.5008H17.262C17.4946 13.5006 17.6832 13.687 17.6834 13.9171C17.6835 14.0042 17.6559 14.0892 17.6047 14.16L13.8705 19.3338H18.946C19.1785 19.3342 19.3667 19.521 19.3663 19.7511C19.3661 19.8754 19.3107 19.9931 19.2138 20.0721L12.0568 25.905C11.9814 25.9665 11.8867 26 11.789 26Z" fill="#FF7A00"/>
<path d="M23.577 12.6677C23.3445 12.6677 23.156 12.4811 23.156 12.251V11.0011H8.84202V12.251C8.84202 12.4811 8.65352 12.6677 8.42101 12.6677C8.1885 12.6677 8 12.4811 8 12.251V10.5845C8 10.3544 8.1885 10.1678 8.42101 10.1678H23.577C23.8095 10.1678 23.998 10.3544 23.998 10.5845V12.251C23.998 12.4811 23.8095 12.6677 23.577 12.6677Z" fill="#FF7A00"/>
<path d="M14.315 14.3342C14.2419 14.3343 14.1699 14.3156 14.1062 14.28L8.21221 10.947C8.01017 10.8319 7.94059 10.5766 8.05686 10.3766C8.17314 10.1766 8.43115 10.1078 8.63322 10.2228L14.5272 13.5559C14.729 13.6702 14.7991 13.9247 14.6836 14.1244C14.608 14.2552 14.4671 14.3354 14.315 14.3342Z" fill="#FF7A00"/>
<path d="M17.683 14.3342C17.4505 14.3349 17.2614 14.1489 17.2608 13.9188C17.2603 13.7683 17.3411 13.6294 17.4734 13.5551L23.3673 10.2221C23.5694 10.107 23.8274 10.1759 23.9437 10.3758C24.06 10.5757 23.9904 10.8311 23.7883 10.9462L17.8944 14.2793C17.83 14.3155 17.7571 14.3344 17.683 14.3342Z" fill="#FF7A00"/>
</svg>
