<svg width="32" height="32" viewBox="0 0 32 32" fill="none" xmlns="http://www.w3.org/2000/svg">
<path d="M0.00667737 19.0676C0.123307 14.832 1.89678 10.8113 4.94602 7.86923C7.99525 4.9272 12.0769 3.29871 16.3139 3.33368C16.5824 3.33294 16.8402 3.43834 17.0313 3.62691C17.2224 3.81549 17.3311 4.07194 17.3339 4.34038C17.3297 4.60777 17.2203 4.86272 17.0293 5.04993C16.8384 5.23715 16.5813 5.34152 16.3139 5.34042C13.0281 5.32012 9.8368 6.43896 7.283 8.50656C4.72921 10.5742 2.97072 13.4628 2.30677 16.6808C2.3601 16.6808 2.41344 16.6675 2.46677 16.6675H3.80682C4.25771 16.6676 4.69981 16.7922 5.08445 17.0275C5.4691 17.2627 5.78137 17.5996 5.9869 18.0009H6.70692L11.0404 13.7207C11.2987 13.4706 11.6442 13.3307 12.0038 13.3307C12.3634 13.3307 12.7088 13.4706 12.9671 13.7207L14.6672 15.4008L16.3739 13.7207C16.6322 13.4706 16.9777 13.3307 17.3373 13.3307C17.6969 13.3307 18.0424 13.4706 18.3007 13.7207L22.6275 18.0009H27.6677C27.9741 18.0009 28.2775 18.0612 28.5606 18.1785C28.8437 18.2958 29.101 18.4676 29.3177 18.6843C29.5343 18.901 29.7062 19.1582 29.8235 19.4413C29.9407 19.7244 30.0011 20.0279 30.0011 20.3343C30.0011 20.6407 29.9407 20.9441 29.8235 21.2273C29.7062 21.5104 29.5343 21.7676 29.3177 21.9843C29.101 22.2009 28.8437 22.3728 28.5606 22.4901C28.2775 22.6074 27.9741 22.6677 27.6677 22.6677H27.3543L31.6745 26.9345C31.8408 27.0898 31.9502 27.2964 31.9853 27.5212C32.0203 27.746 31.979 27.976 31.8678 28.1746C31.7882 28.3062 31.6798 28.418 31.5507 28.5018C31.4217 28.5855 31.2754 28.639 31.1228 28.6583C30.9702 28.6775 30.8152 28.662 30.6695 28.6129C30.5237 28.5637 30.3909 28.4823 30.2811 28.3746L24.5009 22.6677H23.3342C23.3353 22.8386 23.3022 23.0081 23.237 23.1661C23.1717 23.324 23.0756 23.4674 22.9542 23.5877L26.341 26.9345C26.44 27.0249 26.5199 27.1343 26.576 27.2561C26.632 27.3779 26.663 27.5097 26.6672 27.6438C26.6714 27.7778 26.6486 27.9113 26.6003 28.0364C26.5519 28.1615 26.4789 28.2756 26.3857 28.3719C26.2924 28.4683 26.1808 28.545 26.0574 28.5974C25.934 28.6499 25.8013 28.677 25.6672 28.6773C25.5331 28.6775 25.4003 28.6509 25.2767 28.5989C25.1531 28.5469 25.0412 28.4706 24.9476 28.3746L20.5141 24.0011H15.3739L18.3407 26.9345C18.4397 27.0249 18.5196 27.1343 18.5757 27.2561C18.6317 27.3779 18.6627 27.5097 18.6669 27.6438C18.6711 27.7778 18.6483 27.9113 18.6 28.0364C18.5516 28.1615 18.4787 28.2756 18.3854 28.3719C18.2922 28.4683 18.1805 28.545 18.0571 28.5974C17.9337 28.6499 17.801 28.677 17.6669 28.6773C17.5328 28.6775 17.4 28.6509 17.2764 28.5989C17.1528 28.5469 17.0409 28.4706 16.9473 28.3746L13.6672 25.1411L10.4004 28.3679C10.2093 28.5579 9.95116 28.665 9.68173 28.6663C9.4123 28.6675 9.15318 28.5627 8.96034 28.3746C8.86655 28.2814 8.79224 28.1706 8.74174 28.0484C8.69123 27.9263 8.66554 27.7953 8.66617 27.6632C8.66679 27.531 8.69371 27.4003 8.74536 27.2786C8.79701 27.1569 8.87235 27.0468 8.96701 26.9545L11.9604 24.0011H8.82033L4.40017 28.3679C4.20908 28.5579 3.95095 28.665 3.68151 28.6663C3.41208 28.6675 3.15297 28.5627 2.96012 28.3746C2.86634 28.2814 2.79203 28.1706 2.74152 28.0484C2.69102 27.9263 2.66533 27.7953 2.66595 27.6632C2.66657 27.531 2.69349 27.4003 2.74514 27.2786C2.79679 27.1569 2.87214 27.0468 2.96679 26.9545L5.96023 24.0011H2.46677C2.14264 24.0018 1.82157 23.9384 1.52198 23.8147C1.22239 23.691 0.95019 23.5093 0.720995 23.2801C0.4918 23.0509 0.310127 22.7787 0.186402 22.4791C0.0626767 22.1795 -0.000663516 21.8585 1.66652e-05 21.5343V19.1343C3.33141e-06 19.1076 0.00667737 19.0876 0.00667737 19.0676ZM17.3006 18.0009H19.7741L17.334 15.5941L16.1006 16.8142L17.3006 18.0009ZM12.0404 18.0009L13.2405 16.8142L12.0004 15.5941L9.56035 18.0009H12.0404ZM2.33343 21.3343C2.53121 21.3343 2.72456 21.2757 2.88902 21.1658C3.05347 21.0559 3.18165 20.8997 3.25734 20.717C3.33303 20.5343 3.35283 20.3332 3.31425 20.1392C3.27566 19.9452 3.18042 19.767 3.04056 19.6272C2.9007 19.4873 2.72251 19.3921 2.52852 19.3535C2.33454 19.3149 2.13346 19.3347 1.95073 19.4104C1.768 19.4861 1.61181 19.6142 1.50193 19.7787C1.39204 19.9432 1.33339 20.1365 1.33339 20.3343C1.33321 20.4657 1.35896 20.5958 1.40916 20.7172C1.45935 20.8386 1.53301 20.9489 1.6259 21.0418C1.7188 21.1347 1.82911 21.2084 1.95052 21.2586C2.07192 21.3088 2.20205 21.3345 2.33342 21.3343H2.33343Z" fill="black"/>
</svg>
