<svg width="32" height="32" viewBox="0 0 32 32" fill="none" xmlns="http://www.w3.org/2000/svg">
<path d="M30.5 16C30.5 24.0081 24.0081 30.5 16 30.5C7.99187 30.5 1.5 24.0081 1.5 16C1.5 7.99187 7.99187 1.5 16 1.5C24.0081 1.5 30.5 7.99187 30.5 16Z" fill="white" stroke="#FF0000" stroke-width="3"/>
<path d="M18.2421 10.1675C17.3018 8.86428 16.4896 7.73867 16.2925 7.19976C16.249 7.08114 16.134 7.00155 16.0036 7C15.8832 7.00354 15.756 7.07542 15.7099 7.19286C15.5094 7.70248 14.7383 8.77074 13.8454 10.0086C11.8005 12.8417 9 16.7221 9 19.2467C9 22.9705 12.1401 26 16 26C19.8599 26 23 22.9705 23 19.2467C23 16.7629 20.2499 12.9509 18.2421 10.1675Z" fill="#FF0000"/>
</svg>
